<svg xmlns="http://www.w3.org/2000/svg" xmlns:xlink="http://www.w3.org/1999/xlink" xmlns:v="https://vecta.io/nano" width="603" height="547" fill="none"><style><![CDATA[.B{fill:#000}.C{fill:#ffd97f}.D{fill:#263138}.E{fill:#fff}.F{fill:#f4b41a}.G{fill-opacity:.149}.H{fill-opacity:.651}.I{fill:#dfdfdf}.J{fill:#faba23}.K{fill:#143e59}.L{fill:#f4f4f4}.M{fill:#d1b368}.N{fill:#f2c459}.O{fill:#ebab17}.P{fill:#f9f9f9}.Q{fill-opacity:.302}.R{fill-opacity:.251}.S{fill:#164766}.T{fill:#ffa8a7}.U{fill:#b16667}.V{fill:#9a494d}.W{fill-opacity:.4}.X{fill:#445964}.Y{fill-opacity:.2}.Z{fill-opacity:.502}]]></style><path d="M511.84 268.178c116.96 63.605 116.959 166.728-.002 230.333s-306.591 63.605-423.551.001-116.959-166.728.001-230.333 306.592-63.605 423.552-.001z" class="L"/><path d="M215.014 486.757c-2.283 0-4.326-1.692-4.752-3.935l-1.102-5.804c-2.546-.471-5.019-1.078-7.365-1.806-.013-.001-.155.002-.185.006l-10.233 4.74c-.708.329-1.533.502-2.387.502-1.049 0-2.08-.262-2.905-.738l-10.199-5.888c-1.262-.729-2.055-1.986-2.122-3.364s.595-2.704 1.775-3.554l6.169-4.437a22.86 22.86 0 0 1-1.537-2.324l-12.993-.821c-2.445-.154-4.362-2.195-4.362-4.647v-7.581c0-2.452 1.917-4.493 4.365-4.646l12.99-.824c.455-.79.969-1.566 1.538-2.322l-6.17-4.439c-1.181-.85-1.845-2.18-1.775-3.557s.862-2.633 2.123-3.36l10.197-5.887c.822-.477 1.856-.74 2.906-.74.854 0 1.679.174 2.387.5l10.237 4.744a1.08 1.08 0 0 0 .132.008c.031.003-.007.014-.042.025 2.377-.742 4.879-1.358 7.456-1.834l1.102-5.803a4.91 4.91 0 0 1 4.753-3.935h14.994c2.283 0 4.326 1.691 4.753 3.934l1.101 5.804a64.33 64.33 0 0 1 7.368 1.806l.182-.006 10.234-4.741c.706-.328 1.532-.502 2.388-.502 1.05 0 2.081.263 2.906.739l10.198 5.889c1.261.727 2.054 1.984 2.123 3.36s-.596 2.706-1.777 3.556l-6.168 4.438c.568.756 1.081 1.533 1.537 2.323l12.991.822a4.67 4.67 0 0 1 4.363 4.642l-.001 7.586c0 2.453-1.917 4.494-4.363 4.648l-12.991.823c-.455.789-.968 1.565-1.536 2.322l6.167 4.438c1.181.849 1.846 2.178 1.777 3.555s-.863 2.633-2.122 3.361l-10.198 5.888c-.826.477-1.858.739-2.906.739-.855 0-1.68-.173-2.388-.5l-10.233-4.742c-.032-.005-.08-.009-.136-.009-.034-.002.003-.014.037-.025-2.364.74-4.867 1.356-7.452 1.834l-1.102 5.805c-.427 2.243-2.469 3.934-4.752 3.934h-14.995zm7.499-46.628c-5.938 0-11.47 1.307-15.579 3.679-3.486 2.012-5.486 4.596-5.486 7.088s2 5.076 5.486 7.089c4.107 2.372 9.64 3.678 15.578 3.678s11.47-1.306 15.578-3.678c3.486-2.013 5.486-4.596 5.486-7.089s-2-5.076-5.486-7.089c-4.108-2.371-9.641-3.678-15.577-3.678zm87.174-19.098c-1.386 0-2.858-.645-3.841-1.68l-4.068-4.279-3.007.078c-.989 0-1.983-.027-2.962-.077l-4.329 4.552c-.836.881-2.116 1.387-3.512 1.387a5.48 5.48 0 0 1-1.297-.153l-10.107-2.412c-1.38-.347-2.452-1.201-2.982-2.354-.484-1.055-.466-2.255.052-3.292l1.605-3.178-2.462-1.523-9.543 1.606c-.224.039-.471.061-.724.061-1.555 0-3.158-.837-4.084-2.134l-3.815-5.31c-.546-.794-.82-1.623-.835-2.458.006-1.785 1.112-3.277 2.75-3.785l7.334-2.323-.001-.336-7.106-2.256c-1.726-.534-2.925-1.957-3.029-3.617l-.009-.126v-.124a3.76 3.76 0 0 1 .735-2.221l4.168-5.808c.837-1.16 2.293-1.849 3.899-1.849a5.23 5.23 0 0 1 .859.071l9.393 1.58 2.178-1.359.29-.162-1.485-2.944a4.19 4.19 0 0 1-.461-1.675l-.037-.494.062-.269c.202-1.639 1.359-2.965 3.004-3.381l10.571-2.523c.308-.076.662-.119 1.02-.119 1.384 0 2.854.646 3.837 1.686l4.066 4.274 3.074-.082 2.897.075 4.317-4.542c.835-.884 2.121-1.394 3.522-1.394.439 0 .872.052 1.284.153l10.113 2.417c1.964.467 3.314 2.064 3.326 3.909.009.569-.112 1.125-.361 1.658l-1.641 3.252.332.188 2.123 1.332 9.557-1.603c.228-.037.467-.059.714-.059 1.54 0 3.138.827 4.071 2.107l3.832 5.344c.513.704.803 1.533.827 2.386l.031.422-.075.304c-.218 1.449-1.218 2.642-2.648 3.109l-7.388 2.341v.334l7.106 2.248c2.495.789 3.788 3.805 2.313 6.076l-4.171 5.82c-.854 1.168-2.304 1.852-3.898 1.852a5.21 5.21 0 0 1-.885-.076l-9.371-1.573-2.472 1.52 1.488 2.949c.591 1.175.621 2.503.085 3.645-.52 1.108-1.51 1.904-2.719 2.183l-10.503 2.515c-.341.078-.672.116-1.007.116zm-25.493-25.532c.443.698 1.12 1.39 1.979 2.018a11.21 11.21 0 0 0 1.22.794c1.447.829 3.15 1.479 5.08 1.939 2.014.48 4.137.724 6.309.724 4.274 0 8.421-.963 11.378-2.645.46-.259.87-.526 1.226-.797.783-.574 1.382-1.162 1.824-1.779.947-1.317 1.045-2.536.311-3.84l-.186-.306a5.05 5.05 0 0 0-.245-.346 5.75 5.75 0 0 0-.26-.319l-.084-.08-.07-.086-.084-.086c-1.659-1.691-4.292-3.003-7.487-3.766-2.013-.483-4.136-.728-6.308-.728-6.287 0-12.22 2.15-14.43 5.227-1.082 1.512-.837 2.616-.558 3.314l.114.277.267.46.004.025zm284.137-66.172c22.388 12.926 22.388 33.883 0 46.81s-58.687 12.926-81.075 0-22.389-33.884 0-46.81 58.687-12.927 81.075 0zm-108.184 39.748c22.388 12.926 22.388 33.883 0 46.81s-58.687 12.926-81.076 0-22.388-33.884.001-46.81 58.687-12.926 81.075 0zm-348.714 44.522l-78.492-45.318c-2.739-1.582-2.739-4.146 0-5.728l152.944-88.304c2.739-1.581 7.181-1.581 9.92 0l78.491 45.319c2.739 1.581 2.739 4.146 0 5.727l-152.943 88.304c-2.739 1.581-7.181 1.581-9.92 0z" class="I"/><path d="M556.313 325.457s-.95-14.593 4.164-26.973 13.641-21.067 22.63-23.431 17.867 4.7 9.147 12.22-24.997 16.522-29.093 39.509l-6.848-1.325z" class="F"/><path d="M558.317 321.262a.44.44 0 0 1-.101-.011c-.268-.056-.439-.318-.382-.586 5.354-25.435 21.893-38.632 29.891-42.056.25-.11.541.009.65.26s-.009.542-.261.65c-7.833 3.354-24.041 16.314-29.312 41.35-.049.234-.255.394-.485.393z" class="E"/><path d="M602.565 308.737c-.442 1.901-2.181 3.179-3.826 4.236-1.634 1.049-3.427 2.196-4.072 4.037-1.299 3.717 2.781 7.816 1.324 11.473-.612 1.533-2.098 2.563-3.64 3.155-1.279.501-2.63.758-3.954 1.128-.649.11-1.299.185-1.94.216-1.897.084-3.916.381-5.426 1.648-2.375 2.003-2.551 5.519-3.671 8.418-1.345 3.472-4.383 6.156-7.888 7.333-2.942.975-7.594 1.163-8.628-.024-.786-.901.397-4.298.21-5.479a48.9 48.9 0 0 1-.571-9.173c.047-1.493.089-2.71-.203-4.179l-.884-4.625c-.307-1.671-.949-2.906-.669-4.7.266-1.711 1.015-3.335 1.771-4.877l2.294-4.577c.918-1.791 1.868-3.591 3.198-5.102 2.309-2.621 5.74-4.22 9.233-4.3 2.894-.067 5.94.986 8.807.301 2.788-.667 5.399-1.946 8.31-2.295 3.043-.364 6.35.324 8.555 2.575 1.24 1.265 2.07 3.086 1.67 4.811z" fill="#fcc23a"/><g class="E"><path d="M561.895 342.403c-.012 0-.024-.001-.036-.002a.44.44 0 0 1-.406-.469c1.981-27.555 28.882-36.62 35.435-37.388.237-.026.458.144.487.385a.44.44 0 0 1-.385.488c-6.409.751-32.722 9.619-34.661 36.578a.44.44 0 0 1-.434.408z"/><path d="M590.052 323.254c-.087.001-.175-.024-.252-.077s-8.454-5.658-19.811-1.705c-.229.077-.48-.041-.56-.271a.44.44 0 0 1 .271-.559c11.795-4.102 20.51 1.751 20.598 1.811a.44.44 0 0 1-.246.801z"/></g><path d="M167.542 436.814l.026 18.115c0 .687.555 1.278 1.24 1.322l9.446.597.001 13.312c.003.252.156.499.463.676l9.958 5.749c.343.198.803.265 1.262.258l-.001.02c.341-.005.676-.055.943-.179l10.095-4.677c.622-.288 1.653-.342 2.308-.138 2.515.786 5.144 1.406 7.838 1.863.677.115 1.331.744 1.459 1.418l1.263 6.652c.065.344.272.649.546.871v.004c.265.212.593.346.928.346l14.642.001c.307-.001.586-.135.836-.317.075-.053.124-.105.189-.169s.153-.11.206-.185v-.152c.08-.136.214-.243.244-.399l1.263-6.652c.127-.674.782-1.303 1.458-1.417 2.694-.457 5.322-1.077 7.837-1.864.655-.204 1.687-.15 2.31.138l10.095 4.677c.171.079.4.073.61.103v.066c.116.015.235-.007.354-.007l.263-.005c.351-.029.688-.099.953-.249.006-.004.017-.003.023-.006l9.959-5.751c.165-.094.276-.212.353-.337.005-.006.02-.018.02-.018.051-.089.07-.176.078-.265.001-.014.014-.027.014-.041l.001.001.003-5.679-.005-7.645 9.272-.59.174-.01c.093-.007.151-.09.238-.115.231-.067.469-.131.632-.302.118-.124.131-.307.194-.468.058-.144.172-.259.174-.418l.001-.014.001-.005.003-24.306a1.34 1.34 0 0 0-1.24-1.321l-9.453-.598.009-13.296c.004-.246-.146-.507-.467-.692l-9.959-5.75c-.594-.343-1.581-.387-2.203-.099l-10.095 4.677a3.7 3.7 0 0 1-2.309.138c-2.514-.786-5.142-1.405-7.837-1.863-.676-.115-1.331-.743-1.459-1.417l-1.263-6.653c-.128-.674-.788-1.221-1.474-1.221l-14.642.001c-.687 0-1.346.546-1.475 1.22l-1.263 6.653c-.128.674-.783 1.302-1.459 1.417-2.694.458-5.322 1.077-7.836 1.863a3.7 3.7 0 0 1-2.309-.138l-10.095-4.676c-.623-.289-1.61-.245-2.204.099l-9.959 5.749c-.327.189-.476.455-.458.724l-.007-.003-.002 13.267-9.443.598c-.685.043-1.241.635-1.241 1.322v5.93a1.24 1.24 0 0 0-.027.26zm38.273 4.7c9.292-5.365 24.356-5.365 33.648 0 .703.406 1.352.821 1.955 1.242a20.51 20.51 0 0 1-1.954 1.282c-9.291 5.364-24.356 5.365-33.647 0-.704-.406-1.348-.834-1.946-1.276a24.5 24.5 0 0 1 1.944-1.248z" class="C"/><g class="B"><path d="M167.538 436.815l.027 18.115a1.34 1.34 0 0 0 1.245 1.318l9.443.599v13.312c.007.255.155.497.465.679l9.961 5.745c.337.201.801.269 1.258.262v.02c.343-.006.673-.054.942-.182l10.096-4.675c.263-.121.606-.194.949-.228v-.007c.477-.054.982-.02 1.359.094 2.515.787 5.145 1.406 7.836 1.864.215.04.424.128.619.255v.074c.41.276.76.639.841 1.09l1.264 6.652c.067.344.269.646.545.868v.007c.262.215.592.343.928.343l14.644.006c.094-.006.181-.02.269-.04.383-.081.733-.309.962-.632v-.155c.08-.134.215-.242.242-.397l1.264-6.652c.068-.363.296-.693.592-.955v-.02c.249-.223.558-.391.868-.444 2.691-.458 5.321-1.077 7.836-1.864.424-.127 1.009-.154 1.541-.074v.041c.269.046.558.074.767.174l10.096 4.675c.168.081.397.074.612.101v.068h.007c.545.067 1.157-.02 1.574-.263l9.969-5.751c.087-.054.154-.108.215-.161.067-.068.121-.128.161-.195.054-.102.081-.196.087-.296l.007-3.182-.007-10.151 1.729-.114 7.547-.478.168-.013c.68-.047 1.231-.619 1.245-1.298v-16.924c0 .686-.552 1.278-1.238 1.318l-13.271.841c-.686.047-1.467.592-1.796 1.191-.727 1.338-1.662 2.65-2.819 3.914-.464.505-.41 1.218.149 1.615l7.889 5.677c.559.404.532 1.009-.066 1.352l-9.956 5.751c-.592.344-1.581.384-2.206.095l-10.09-4.675c-.625-.29-1.654-.343-2.314-.135-2.515.78-5.139 1.406-7.836 1.863-.68.115-1.332.74-1.46 1.413l-1.264 6.652c-.128.673-.787 1.225-1.473 1.225h-14.644c-.686 0-1.345-.552-1.473-1.225l-1.264-6.652c-.128-.673-.781-1.298-1.454-1.413a59.71 59.71 0 0 1-7.842-1.87c-.653-.201-1.682-.148-2.308.142l-10.096 4.675c-.619.289-1.608.249-2.2-.095l-9.961-5.751c-.592-.343-.619-.948-.068-1.345l7.897-5.684c.552-.397.605-1.11.141-1.621-1.15-1.258-2.085-2.57-2.818-3.908-.323-.599-1.103-1.144-1.789-1.191l-13.271-.834c-.687-.047-1.238-.639-1.238-1.325v-1.48c-.02.087-.034.175-.034.269zm10.715-21.377v13.265l3.828-.243c.686-.04 1.466-.585 1.789-1.19.733-1.338 1.668-2.651 2.818-3.908.465-.505.418-1.218-.141-1.621l-7.897-5.678c-.242-.181-.376-.397-.39-.618l-.007-.007z" class="Q"/><path d="M203.876 445.415l.855-.585c.034-.02.067-.047.101-.067l.982-.599c9.296-5.368 24.356-5.368 33.652 0 .303.175.599.35.881.532.37.235.727.47 1.063.719 7.292-5.394 6.646-13.197-1.944-18.155-9.289-5.368-24.356-5.368-33.645 0-8.597 4.958-9.242 12.767-1.945 18.155z" class="W"/><path d="M258.587 423.362c1.157 1.264 2.092 2.57 2.819 3.908.329.606 1.109 1.15 1.796 1.19l3.814.243.013-13.292c-.007.229-.141.464-.404.652l-7.89 5.678c-.558.403-.605 1.116-.148 1.621z" class="Q"/></g><path d="M254.398 408.867l-10.095 4.677c-.622.289-1.653.343-2.308.138-2.515-.786-5.143-1.405-7.837-1.863a1.91 1.91 0 0 1-1.459-1.417l-1.264-6.653c-.128-.674-.788-1.221-1.474-1.221l-14.642.001c-.686 0-1.346.546-1.475 1.22l-1.263 6.653c-.128.674-.783 1.302-1.459 1.417-2.694.457-5.321 1.077-7.835 1.863-.655.205-1.687.151-2.31-.138l-10.095-4.676c-.623-.289-1.609-.245-2.204.099l-9.959 5.749c-.594.343-.624.946-.067 1.347l7.893 5.68c.556.4.609 1.113.146 1.619-1.153 1.261-2.091 2.57-2.819 3.909-.327.603-1.108 1.147-1.793 1.191l-13.27.84c-.685.043-1.24.635-1.24 1.322l-.001 7.403c0 .686.556 1.277 1.24 1.321l13.271.84c.685.043 1.465.587 1.793 1.19.728 1.339 1.666 2.648 2.819 3.909.463.506.41 1.219-.147 1.62l-7.892 5.679c-.557.401-.527 1.004.067 1.347l9.959 5.749c.594.344 1.581.388 2.204.099l10.094-4.676a3.7 3.7 0 0 1 2.309-.138 59.9 59.9 0 0 0 7.837 1.863c.676.115 1.331.743 1.459 1.418l1.263 6.652c.128.674.788 1.221 1.474 1.221h14.643c.686 0 1.346-.547 1.474-1.221l1.263-6.652a1.91 1.91 0 0 1 1.459-1.418 59.9 59.9 0 0 0 7.837-1.863c.655-.204 1.687-.151 2.309.138l10.095 4.676c.623.289 1.61.245 2.204-.099l9.958-5.749c.594-.343.625-.947.067-1.348l-7.891-5.678c-.558-.401-.61-1.113-.147-1.62 1.153-1.26 2.091-2.57 2.818-3.908.328-.604 1.108-1.148 1.793-1.191l13.271-.84c.685-.044 1.24-.635 1.24-1.322v-7.403a1.34 1.34 0 0 0-1.24-1.321l-13.271-.84c-.685-.044-1.465-.587-1.793-1.191-.727-1.339-1.664-2.648-2.817-3.909-.463-.506-.411-1.219.146-1.62l7.892-5.679c.557-.4.527-1.003-.067-1.347l-9.959-5.75c-.595-.343-1.582-.387-2.204-.099zm-14.934 15.745c9.291 5.364 9.291 14.061 0 19.426s-24.357 5.365-33.648 0-9.291-14.062.001-19.427 24.355-5.364 33.647.001z" class="C"/><path d="M267.026 453.249c-.001-.234-.134-.474-.401-.667l-3.972-2.858v-9.406c.183-.072.369-.121.549-.133l13.271-.841c.686-.04 1.237-.632 1.237-1.318v16.924c-.013.68-.564 1.251-1.237 1.298l-.175.013-9.276.593.004-3.605zm-23.482 1.652c.28.043.548.104.763.203l10.09 4.675c.361.167.839.212 1.296.164v16.907c-.225.024-.456.029-.677.001h-.007v-.067c-.215-.027-.444-.02-.612-.101l-10.096-4.675c-.206-.099-.491-.127-.757-.173v-16.934zm-12.299 10.472a1.39 1.39 0 0 0 .188-.474l1.264-6.653c.033-.175.103-.345.198-.505v16.917c-.095.154-.165.319-.198.492l-1.264 6.652c-.022.124-.111.218-.188.319v-16.748z" class="M"/><path d="M212.384 457.746c.093.159.161.327.194.5l1.265 6.652a1.37 1.37 0 0 0 .191.48v16.898a1.38 1.38 0 0 1-.191-.474l-1.265-6.652c-.029-.165-.103-.313-.194-.454v-16.95zm-22.798 2.197c.457.048.935.004 1.293-.164l10.096-4.675c.215-.099.482-.16.76-.203v16.909c-.276.04-.547.1-.76.198l-10.096 4.675c-.269.128-.599.175-.942.182v-.02a3.73 3.73 0 0 1-.351-.011v-16.891zm-20.776-20.592l13.271.834a1.82 1.82 0 0 1 .548.133v9.407l-3.979 2.864c-.265.191-.396.43-.396.665l-.001 3.593-9.443-.599a1.34 1.34 0 0 1-1.245-1.318l-.027-18.115c0-.094.014-.182.034-.269v1.48c0 .686.551 1.278 1.238 1.325z" class="B G"/><path d="M339.815 386.074l-.004-.02a.52.52 0 0 0-.067-.229l-.004-.006.009-11.933c.002-.009-.001-.014.001-.023.001-.174-.065-.377-.207-.571l-3.727-5.197c-.35-.481-1.038-.803-1.535-.72l-9.741 1.634c-.503.086-1.324-.166-1.862-.531l-1.932-1.218.012-7.748-.008.011c.009-.311-.293-.608-.774-.723l-9.891-2.365c-.584-.142-1.304-.003-1.593.302l-4.729 4.977c-.295.307-.996.516-1.553.482-2.163-.133-4.322-.122-6.441.012-.534.032-1.307-.3-1.738-.757l-4.235-4.452c-.43-.457-1.169-.728-1.652-.609l-10.279 2.453c-.336.085-.532.351-.532.678-.002.008-.001.022-.001.037l-.007 7.68c-.804.457-1.57.943-2.29 1.46-.357.25-1.107.385-1.694.287l-9.436-1.588c-.587-.097-1.257.101-1.5.437l-4.096 5.709c-.057.077-.086.166-.086.253l.002.042-.023 14.828c.001.079.035.161.079.238l-.018 11.931c-.002.183.064.399.212.604l3.727 5.197c.35.481 1.038.804 1.535.72l9.738-1.639c.506-.081 1.325.166 1.863.531l1.934 1.224-.007 7.716c-.021.317.288.626.778.743l9.882 2.363c.593.145 1.306.009 1.601-.299l4.73-4.977c.294-.308.992-.522 1.553-.482a53.22 53.22 0 0 0 6.441-.012c.533-.032 1.306.299 1.734.75l4.238 4.459c.427.451 1.169.728 1.653.608l10.276-2.458c.3-.072.492-.292.524-.565.027-.168.015-7.83.015-7.83a27.3 27.3 0 0 0 2.293-1.454c.354-.256 1.105-.391 1.692-.293l9.438 1.593c.584.092 1.258-.101 1.497-.442l4.096-5.709a.45.45 0 0 0 .089-.262l.014-14.844zm-55.024.302l1.467-.934c7.065-4.079 18.507-4.078 25.57-.001.515.299.999.609 1.437.915-.48.365-.998.7-1.552 1.013-5.018 2.853-12.693 3.861-19.614 2.21-2.235-.535-4.178-1.296-5.796-2.222a14.21 14.21 0 0 1-1.512-.981z" class="C"/><g class="B"><path d="M340.036 386.339l-.005-.019a.51.51 0 0 0-.067-.23l-.003-.006.008-11.933c.003-.008-.001-.014.002-.022.001-.175-.065-.377-.207-.572l-3.727-5.197c-.35-.481-1.038-.803-1.535-.72l-9.741 1.634c-.503.087-1.324-.166-1.862-.531a27.46 27.46 0 0 0-1.932-1.218l.012-7.748-.009.011c.01-.31-.293-.608-.773-.723l-9.892-2.364c-.583-.143-1.303-.004-1.592.301l-4.73 4.977c-.294.308-.995.516-1.553.482a52.2 52.2 0 0 0-6.44.012c-.534.032-1.307-.3-1.738-.757l-4.235-4.452c-.431-.456-1.169-.728-1.652-.609l-10.279 2.453c-.337.085-.532.351-.532.678-.002.009-.002.023-.001.037l-.007 7.68c-.805.457-1.571.943-2.29 1.46-.357.25-1.107.385-1.694.288l-9.436-1.589c-.587-.097-1.258.101-1.5.437l-4.096 5.709a.42.42 0 0 0-.086.253.59.59 0 0 0 .002.042l-.024 14.828a.52.52 0 0 0 .079.238l-.017 11.931c-.003.183.064.399.212.604l3.727 5.197c.35.482 1.038.804 1.535.721l9.738-1.64c.506-.081 1.324.166 1.862.531a27.57 27.57 0 0 0 1.935 1.224l-.008 7.717c-.02.317.289.625.778.743l9.883 2.362c.592.145 1.306.009 1.601-.299l4.729-4.977c.295-.308.993-.522 1.554-.482a53.22 53.22 0 0 0 6.441-.012c.533-.032 1.306.3 1.733.75l4.239 4.459c.427.451 1.169.728 1.652.609l10.276-2.459c.3-.072.493-.292.525-.565.027-.168.015-7.829.015-7.829l2.293-1.455c.354-.255 1.104-.391 1.691-.293l9.439 1.593c.584.093 1.258-.101 1.496-.442l4.097-5.709a.45.45 0 0 0 .088-.262l.015-14.844zm-55.024.302l1.467-.934c7.065-4.079 18.506-4.078 25.57-.001a20.94 20.94 0 0 1 1.437.916 13.64 13.64 0 0 1-1.552 1.012c-5.018 2.853-12.694 3.861-19.614 2.21-2.235-.535-4.179-1.295-5.797-2.222-.54-.306-1.051-.636-1.511-.981z" class="Q"/><path d="M279.597 366.074l-2.274 1.163.007-7.682a.93.93 0 0 0 .114.397l2.462 4.877c.249.498.108 1.049-.309 1.245z" class="Q"/><path d="M268.262 378.276c-.182 1.083-.175 2.152-.013 3.222.074.477-.202.989-.66 1.137l-8.892 2.811c-.269.088-.417.303-.417.565v2.893a.52.52 0 0 1-.074-.216l.02-14.852c.014.269.283.532.713.666l8.402 2.664c.598.188.988.679.921 1.11zm5.569 12.571v14.866c-.127-.007-.248-.013-.356.007l-9.74 1.635c-.155.026-.323.006-.498-.041v-14.846c.182.048.357.061.518.034l9.74-1.641a1.41 1.41 0 0 1 .336-.014z" class="G"/><path d="M277.269 407.469l-1.93-1.217a3.43 3.43 0 0 0-1.507-.538v-14.866a3.32 3.32 0 0 1 1.52.552 29.76 29.76 0 0 0 3.949 2.266c.578.283.901.787.713 1.171l-2.677 5.3c-.037.073-.054.147-.054.221l-.014 7.111z" class="R"/><path d="M294.852 397.823v14.859c-.242.081-.464.195-.599.336l-4.728 4.978c-.175.182-.505.303-.861.343V403.48c.376-.034.706-.148.881-.336l4.735-4.985c.128-.134.33-.249.572-.336z" class="G"/><path d="M302.869 397.763v14.859c-.222-.061-.437-.108-.618-.095-2.119.128-4.285.135-6.444.007-.31-.02-.653.04-.955.148v-14.859c.302-.107.659-.168.975-.148 2.166.135 4.318.121 6.437-.006.181-.007.39.019.605.094z" class="R"/><path d="M309.166 403.433v14.853c-.343-.102-.7-.29-.942-.552l-4.238-4.46c-.282-.296-.706-.524-1.116-.652v-14.859c.417.121.847.363 1.137.659l4.237 4.453c.242.255.585.457.922.558z" class="G"/></g><path d="M320.695 400.48v7.009c-.007 0 0 1.265 0 2.778v1.319l-.021 3.733a.66.66 0 0 1-.524.565l-10.278 2.455c-.202.054-.451.02-.706-.054v-14.852c.262.081.517.101.726.054l10.278-2.462c.302-.067.484-.276.525-.545z" class="M"/><path d="M324.011 390.868v14.858c-.41.041-.8.142-1.029.31a26.66 26.66 0 0 1-2.293 1.453l.012-7.136c-.001-.136-.036-.28-.107-.425l-2.468-4.89c-.249-.491-.108-1.042.309-1.238 1.661-.767 3.202-1.648 4.567-2.616.222-.168.605-.283 1.009-.316z" class="B G"/><path d="M339.811 386.079l-.013 14.845c-.007.087-.034.175-.094.262l-4.097 5.705c-.127.188-.397.329-.699.404v-14.846c.316-.074.585-.222.727-.411l4.089-5.71c.061-.074.087-.162.087-.249z" class="M"/><path d="M277.333 359.521c-.003.008-.002.022-.001.037a.94.94 0 0 0 .111.393l2.462 4.881c.249.495.11 1.048-.31 1.24l-2.27 1.166c-.805.457-1.571.943-2.29 1.46-.357.25-1.108.385-1.695.287l-9.435-1.588c-.587-.097-1.258.101-1.5.437l-4.096 5.709c-.058.077-.086.166-.087.253l.003.042c.016.267.283.528.716.662l8.401 2.666c.595.187.988.679.919 1.112-.178 1.077-.176 2.152-.01 3.219.071.475-.201.988-.66 1.137l-8.892 2.815c-.271.084-.417.299-.418.561.003.18.074.379.21.577l3.732 5.193c.345.485 1.033.807 1.535.721l9.739-1.64c.502-.086 1.324.166 1.857.535 1.186.82 2.503 1.578 3.949 2.27.578.284.899.789.71 1.167l-2.679 5.305c-.189.378.138.793.725.941l9.888 2.359c.593.145 1.306.009 1.595-.296l4.735-4.98c.289-.305.988-.519 1.55-.488 2.163.133 4.317.125 6.439-.003.533-.032 1.312.297 1.739.748l4.239 4.458c.427.451 1.166.723 1.647.612l10.281-2.462c.481-.11.666-.61.419-1.099l-2.465-4.887c-.249-.495-.107-1.042.309-1.239 1.664-.771 3.198-1.651 4.564-2.621.36-.258 1.111-.393 1.692-.293l9.441 1.585c.581.101 1.252-.098 1.5-.437l4.091-5.706c.062-.079.086-.165.086-.253.004-.017.001-.023.001-.023-.005-.084-.026-.158-.067-.229l-.003-.006c-.107-.185-.331-.346-.645-.449l-8.403-2.657c-.59-.191-.988-.68-.918-1.112.175-1.083.172-2.157.009-3.219-.073-.481.203-.997.66-1.137l8.898-2.818a.56.56 0 0 0 .407-.541c.002-.009-.001-.014.002-.023 0-.175-.065-.377-.207-.571l-3.727-5.197c-.35-.481-1.038-.803-1.535-.72l-9.741 1.634c-.503.086-1.325-.166-1.863-.531l-1.931-1.218-2.013-1.055c-.58-.276-.904-.787-.712-1.159l2.682-5.314c.032-.069.051-.138.046-.209.01-.311-.293-.608-.774-.723l-9.891-2.365c-.584-.142-1.303-.003-1.592.302l-4.73 4.977c-.294.307-.995.516-1.553.482a51.81 51.81 0 0 0-6.44.012c-.534.032-1.307-.3-1.738-.757l-4.235-4.452c-.431-.457-1.169-.728-1.653-.609l-10.279 2.453c-.336.085-.531.351-.531.678zm37.389 15.258l.252.261c.066.064.118.128.175.19l.366.443.383.538.216.345.096.166c1.282 2.278 1.222 4.823-.494 7.208-.64.893-1.471 1.708-2.451 2.426a13.66 13.66 0 0 1-1.553 1.013c-5.017 2.853-12.693 3.861-19.614 2.21-2.234-.535-4.178-1.296-5.796-2.222-.54-.306-1.051-.636-1.511-.981-1.398-1.024-2.441-2.189-3.085-3.43-.01-.017-.016-.028-.02-.047-.038-.066-.07-.134-.103-.202-.035-.075-.068-.143-.094-.215a1.64 1.64 0 0 1-.096-.228c-.813-2.038-.567-4.231.921-6.311 3.824-5.326 14.4-7.855 23.619-5.648 3.862.925 6.878 2.534 8.789 4.484z" class="C"/><path d="M240.133 2.492L119.794 71.971c-9.133 5.273-16.606 18.216-16.606 28.762v290.56c0 4.76 2.939 10.316 6.564 12.41s9.905 1.861 14.027-.519l129.484-74.758c4.105-2.37 7.464-8.188 7.464-12.928l-.002-301.117c0-4.76-2.939-10.315-6.564-12.408s-9.906-1.86-14.028.519z" class="N"/><path d="M121.986 404.037c-3.986 1.551-9.103 1.476-12.238-.334-3.62-2.09-6.561-7.65-6.561-12.411V100.728c0-5.268 1.874-11.139 4.88-16.353l10.277 5.925c-2.844 3.954-4.707 8.834-4.707 13.132v293.914c0 5.732 3.62 8.447 8.349 6.691z" class="B G"/><path d="M124.678 84.312c-6.073 3.506-11.042 12.112-11.042 19.125l-.001 293.914c0 6.43 4.556 9.06 10.124 5.846l129.504-74.771c4.105-2.37 7.464-8.188 7.464-12.928l-.002-301.117c0-4.74-3.358-6.679-7.464-4.309l-128.583 74.24z" class="F"/><path d="M123.781 99.989c-4.123 2.38-7.464 8.168-7.464 12.928l.001 270.798c0 4.759 3.342 6.689 7.464 4.309l128.193-74.022c4.105-2.37 7.464-8.188 7.463-12.928l-.001-270.798c0-4.74-3.358-6.679-7.464-4.309L123.781 99.989z" fill="#cda64b"/><path d="M177.726 58.767l21.591-12.466c1.288-.744 2.333-.216 2.333 1.18s-1.045 3.13-2.333 3.873L177.726 63.82c-1.288.744-2.332.215-2.332-1.18s1.044-3.129 2.332-3.873zm37.049-21.422c1.208-.698 2.188-.132 2.188 1.264s-.98 3.092-2.188 3.79-2.188.132-2.188-1.263.979-3.092 2.188-3.79zm8.757-5.051c1.209-.697 2.189-.132 2.189 1.263s-.98 3.092-2.189 3.79-2.187.132-2.187-1.263.979-3.092 2.187-3.79zM153.51 72.721c1.209-.698 2.188-.132 2.188 1.263s-.979 3.092-2.188 3.79-2.188.132-2.188-1.264.98-3.092 2.188-3.79zm8.759-5.05c1.208-.697 2.188-.132 2.188 1.263s-.98 3.092-2.188 3.79-2.188.132-2.188-1.263.98-3.092 2.188-3.79z" class="X"/><path d="M111.239 134.361c0-1.488-.98-3.259-2.188-3.956-.583-.337-1.11-.359-1.5-.124l-1.641.939c-.416.249-.675.789-.675 1.553v35.039c0 1.487.98 3.259 2.188 3.956.557.322 1.063.356 1.446.154l1.692-.967c.417-.249.678-.789.678-1.555v-35.039z" class="J"/><path d="M109.611 135.3l.001 35.038c0 1.487-.98 2.127-2.189 1.43s-2.188-2.469-2.188-3.957v-35.038c0-1.487.98-2.128 2.188-1.43s2.188 2.469 2.188 3.957z" class="C"/><path d="M111.239 181.262c0-1.488-.98-3.259-2.188-3.957-.583-.336-1.11-.358-1.5-.123l-1.641.939c-.416.249-.675.789-.675 1.553v16.518c0 1.488.98 3.259 2.188 3.957.557.321 1.063.355 1.446.153l1.692-.967c.417-.248.678-.789.678-1.555v-16.518z" class="J"/><path d="M109.611 182.2l.001 16.518c0 1.488-.98 2.128-2.189 1.431s-2.188-2.47-2.188-3.957v-16.518c0-1.488.98-2.128 2.188-1.43s2.188 2.469 2.188 3.956z" class="C"/><path d="M257.843 307.283c-1.368 2.812-3.49 5.343-5.871 6.722l-128.187 74.023c-4.126 2.381-7.466.441-7.466-4.31v-6.561l123.825-71.49c2.057-1.185 3.91-3.222 5.257-5.559h.01l12.432 7.175z" class="B G"/><path d="M247.605 292.738l-.001-264.24-123.823 71.491c-4.123 2.379-7.464 8.167-7.464 12.927l.001 264.24 123.824-71.49c4.105-2.37 7.463-8.188 7.463-12.928z" class="S"/><g fill="#fefefe"><path d="M150.201 119.395c.163-.094.264-.268.264-.456v-29.92l-1.053.608v29.008l-8.285 4.783a.53.53 0 0 0-.263.456v14.807a.53.53 0 0 0 .263.456l8.285 4.785v23.018c-.588.589-1.01 1.479-1.01 2.245-.001.98.687 1.377 1.537.887s1.537-1.682 1.537-2.663c0-.766-.423-1.169-1.011-1.077v-22.714c0-.188-.101-.362-.264-.455l-8.284-4.785v-14.2l8.284-4.783zm-17.912-19.882v44.119c0 .189.1.363.264.456l8.311 4.77v13.138c-.589.589-1.011 1.479-1.011 2.245-.001.98.687 1.378 1.537.888s1.538-1.683 1.538-2.663c-.001-.766-.423-1.169-1.012-1.078v-12.835c0-.188-.1-.362-.264-.456l-8.311-4.77V98.905l-1.052.608zm1.079 265.906v-53.981c0-.188-.101-.361-.263-.455l-8.287-4.786V164.719c.589-.589 1.011-1.48 1.011-2.245 0-.981-.688-1.378-1.537-.888s-1.538 1.683-1.538 2.663c0 .766.423 1.169 1.012 1.077v141.175a.53.53 0 0 0 .263.456l8.287 4.785v54.285l1.052-.608zm-9.603-260.985v44.119a.53.53 0 0 0 .263.456l8.287 4.784v22.947c-.602.588-1.038 1.493-1.038 2.27 0 .98.688 1.378 1.537.888s1.538-1.683 1.538-2.663c0-.755-.409-1.159-.984-1.084V153.49a.53.53 0 0 0-.264-.457l-8.287-4.783v-44.424l-1.052.608z"/><path d="M124.818 370.355v-27.949c.588-.589 1.009-1.478 1.009-2.243 0-.98-.688-1.378-1.537-.887s-1.538 1.682-1.538 2.662c0 .768.424 1.17 1.014 1.077v27.948l1.052-.608zm110.874-138.347l-8.549-4.936c-.163-.094-.364-.094-.526 0l-3.486 2.013v-33.5l8.478-14.685a.53.53 0 0 0 .071-.263v-24.68a.53.53 0 0 0-.263-.456l-8.549-4.935c-.163-.093-.364-.093-.527 0l-3.484 2.012V123.93a.53.53 0 0 0-.263-.456l-8.287-4.784v-14.255l12.298-7.101 8.023 4.633v39.641c-.589.589-1.012 1.48-1.012 2.246 0 .98.688 1.377 1.537.888s1.538-1.683 1.538-2.663c0-.767-.423-1.169-1.011-1.078v-39.338a.53.53 0 0 0-.263-.456l-8.549-4.936a.53.53 0 0 0-.527 0l-12.034 6.949V54.469l-1.052.608v48.752l-3.75 2.165-8.162-4.636V61.953l-1.052.607v39.102c0 .189.102.364.266.457l8.69 4.937a.53.53 0 0 0 .523-.002l3.485-2.012v13.951c0 .188.1.361.263.455l8.286 4.784v28.953l-28.87 16.668v-48.447a.53.53 0 0 0-.263-.456l-12.56-7.252V74.212l-1.052.607v39.183a.53.53 0 0 0 .263.456l12.56 7.252v48.752l-20.846 12.036-8.022-4.633V84.084l-1.053.607v93.478a.53.53 0 0 0 .263.456l8.549 4.936a.53.53 0 0 0 .526 0l20.583-11.884v17.474c-.589.589-1.011 1.479-1.011 2.245 0 .98.688 1.378 1.537.887s1.538-1.682 1.538-2.662c0-.766-.423-1.169-1.012-1.078v-17.474l28.87-16.668v28.312c-.588.589-1.011 1.479-1.011 2.246 0 .98.688 1.377 1.537.887s1.538-1.683 1.538-2.663c0-.766-.423-1.169-1.011-1.078v-28.312l3.748-2.164 8.023 4.632v24.235l-8.479 14.685a.53.53 0 0 0-.071.263v34.248l-11.771 6.797v-61.898c.589-.589 1.012-1.479 1.012-2.246 0-.98-.688-1.377-1.537-.887s-1.538 1.682-1.538 2.662c0 .766.422 1.169 1.011 1.079v61.897l-11.771 6.796v-42.155c.589-.588 1.011-1.479 1.011-2.245 0-.98-.688-1.378-1.537-.887s-1.538 1.682-1.538 2.663c0 .766.423 1.169 1.012 1.077V244.5l-20.32 11.732v-8.657l8.286-4.785c.162-.093.263-.267.263-.455v-23.322c.589-.589 1.012-1.479 1.012-2.245 0-.98-.689-1.378-1.538-.887s-1.537 1.682-1.537 2.662c-.001.766.422 1.169 1.011 1.078v22.41l-8.286 4.784a.53.53 0 0 0-.263.456v9.568l-7.498 4.329v-66.834c.59-.588 1.012-1.479 1.012-2.245 0-.981-.688-1.378-1.537-.888s-1.537 1.683-1.538 2.663c0 .766.422 1.169 1.011 1.078v66.833l-3.748 2.165-8.023-4.634v-29.31c0-.188-.1-.362-.263-.455l-8.285-4.786v-6.693c.588-.588 1.01-1.479 1.01-2.244 0-.981-.688-1.378-1.538-.888s-1.537 1.683-1.537 2.664c0 .766.423 1.168 1.012 1.077v6.388c0 .188.101.362.263.455l8.286 4.786v29.31c0 .188.101.362.263.455l8.549 4.937c.163.094.364.094.526 0l3.485-2.012v23.767c0 .189.101.362.263.456l8.287 4.785v49.349l1.052-.607v-49.046c0-.188-.1-.362-.263-.456l-8.287-4.785v-24.07l7.498-4.329v13.896c0 .188.101.362.263.455l8.286 4.785v59.222l1.052-.608v-58.918c0-.188-.101-.362-.263-.455l-8.286-4.785v-14.2l20.32-11.732v23.769c0 .188.1.361.263.455l16.836 9.72v39.478l1.052-.607v-39.175c0-.188-.101-.362-.263-.455l-16.836-9.721v-24.071l11.771-6.796v23.767c0 .188.1.362.263.455l12.56 7.254v44.414l1.053-.607v-44.111a.53.53 0 0 0-.263-.456l-12.561-7.253v-24.071l11.771-6.796v22.411c-.588.589-1.01 1.479-1.01 2.245-.001.98.688 1.377 1.537.887s1.538-1.682 1.538-2.663c-.001-.766-.423-1.169-1.012-1.077v-22.411l3.749-2.164 8.022 4.633v74.029l1.053-.608v-73.726c0-.188-.101-.362-.263-.455zm-93.776 128.475v-53.982c0-.188-.1-.362-.263-.456l-8.286-4.784v-48.178c.589-.589 1.012-1.48 1.012-2.247 0-.981-.688-1.378-1.537-.887s-1.537 1.682-1.538 2.662c0 .766.422 1.169 1.01 1.078v47.876c0 .188.101.362.263.455l8.287 4.785v54.286l1.052-.608zM217.803 50.14v19.44a.53.53 0 0 0 .263.456l8.286 4.784v13.147c-.588.589-1.011 1.479-1.011 2.245 0 .981.688 1.378 1.537.888s1.538-1.682 1.538-2.663c0-.766-.423-1.169-1.012-1.077V74.516a.53.53 0 0 0-.263-.456l-8.285-4.784V49.533l-1.053.608z"/><path d="M234.902 40.269v13.146c-.59.588-1.012 1.479-1.012 2.246-.001.98.688 1.377 1.537.887s1.538-1.682 1.538-2.663c0-.766-.423-1.169-1.011-1.078V39.661l-1.052.608zm-8.55 4.935v19.44a.53.53 0 0 0 .263.456l8.286 4.784v18.083c-.588.589-1.01 1.479-1.011 2.244 0 .981.688 1.378 1.537.888s1.538-1.682 1.538-2.663c0-.766-.423-1.169-1.012-1.077V69.58c0-.188-.1-.362-.263-.456l-8.286-4.784V44.597l-1.052.607zm-63.064 302.94v-44.11a.53.53 0 0 0-.263-.456l-16.835-9.72v-53.99c0-.189-.1-.362-.263-.456l-12.56-7.253v-37.823c.589-.589 1.012-1.481 1.012-2.247 0-.98-.688-1.378-1.537-.887s-1.537 1.682-1.538 2.662c0 .766.422 1.169 1.01 1.078v37.521c0 .188.101.362.263.455l12.561 7.254v53.99c0 .188.101.362.263.455l16.835 9.721v44.414l1.052-.608zm12.56-224.725l-8.286-4.784V79.148l-1.052.608v39.183c0 .189.101.362.263.456l8.285 4.784v27.954c-.588.589-1.011 1.48-1.011 2.246 0 .98.688 1.378 1.537.887s1.538-1.682 1.538-2.662c0-.766-.423-1.169-1.011-1.078v-27.65a.53.53 0 0 0-.263-.456zm25.647-4.936l-16.835-9.72V69.276l-1.052.608v39.183c0 .188.101.361.263.455l16.835 9.72v18.081c-.59.589-1.012 1.48-1.012 2.246-.001.98.687 1.378 1.537.887s1.537-1.682 1.537-2.663c0-.765-.422-1.168-1.01-1.077v-17.778c0-.188-.1-.361-.263-.455z"/></g><path d="M143.402 143.415h-2.859l-.006 9.037a1.43 1.43 0 0 0 1.429 1.432 1.43 1.43 0 0 0 1.43-1.429v-.002l.006-9.038zm5.39-3.109h-2.858l-.007 9.037h.001a1.43 1.43 0 0 0 1.429 1.432 1.43 1.43 0 0 0 1.429-1.429l.006-9.04z" class="O"/><path d="M154.183 137.197h-2.859l-.006 9.037a1.43 1.43 0 0 0 1.429 1.432 1.43 1.43 0 0 0 1.43-1.429v-.003l.006-9.037zm5.39-3.109h-2.858l-.007 9.038h.001a1.43 1.43 0 0 0 1.429 1.432 1.43 1.43 0 0 0 1.429-1.43v-.002l.006-9.038z" fill-opacity=".8" class="E"/><path d="M143.401 143.415h-2.858l-.001 7.683 2.859-1.65v-6.033zm5.391-3.109h-2.859v7.68l2.859-1.651v-6.029z" fill="#fadfa0"/><path d="M161.106 112.749l-1.429-2.475 7.823-4.524a1.43 1.43 0 0 1 1.955.522 1.43 1.43 0 0 1-.523 1.952l-.002.001-7.824 4.524zm.003 6.224l-1.429-2.476 7.823-4.524a1.43 1.43 0 0 1 1.955.522 1.43 1.43 0 0 1-.523 1.952l-.002.001-7.824 4.525zm.002 6.223l-1.429-2.476 7.824-4.524a1.43 1.43 0 0 1 1.954.522 1.43 1.43 0 0 1-.523 1.952l-7.826 4.526zm.003 6.222l-1.429-2.475 7.823-4.524a1.43 1.43 0 0 1 1.955.521 1.43 1.43 0 0 1-.523 1.953l-.002.001-7.824 4.524z" fill-opacity=".8" class="E"/><path d="M163.494 104.615c-.312-.18-.746-.153-1.219.123l-23.515 13.573c-.473.276-.903.741-1.214 1.28l-3.229-1.862c.315-.539.745-1.013 1.219-1.285l22.497-12.989c.951-.549 2.495-.549 3.447 0l2.014 1.16z" class="M"/><path d="M137.037 121.298l.008 27.136c0 1.099.772 1.545 1.725.995l23.504-13.57c.952-.55 1.724-1.887 1.724-2.986v-27.142c0-1.099-.772-1.544-1.724-.995l-23.513 13.576c-.952.55-1.724 1.886-1.724 2.986z" class="C"/><path d="M137.502 149.522l-1.966-1.134c-.951-.549-1.724-1.886-1.724-2.982v-25.98c0-.548.194-1.157.505-1.697l3.229 1.862c-.316.54-.509 1.154-.509 1.706l.009 27.137c0 .522.175.895.456 1.088z" fill="#5d502e"/><path d="M140.884 144.574c-.144 0-.281-.035-.403-.105-.282-.164-.438-.487-.438-.912l-.008-21.122a2.64 2.64 0 0 1 1.211-2.096l18.308-10.575c.369-.214.727-.239 1.009-.076s.438.486.438.911L161 131.735c0 .784-.531 1.704-1.21 2.096l-18.3 10.562a1.23 1.23 0 0 1-.606.181zm.489-.386h0zm18.787-34.132c-.108 0-.236.04-.37.118l-18.309 10.575a2.19 2.19 0 0 0-.972 1.686l.008 21.122c0 .245.074.428.201.502s.321.048.536-.076l18.3-10.562c.527-.305.972-1.077.972-1.686l.001-21.136c0-.245-.073-.428-.201-.502a.33.33 0 0 0-.166-.041zm-15.91 28.233a.46.46 0 0 1-.236-.063c-.162-.092-.254-.276-.254-.502l-.002-13.884c0-.324.298-.839.578-1.001l12.078-7.028c.196-.114.401-.125.562-.032s.253.275.253.502l-.055 13.971c-.001.38-.248.81-.578 1l-12.022 6.943c-.108.062-.219.094-.324.094zm12.487-22.103c-.001.002-.033.004-.085.035l-12.079 7.027c-.131.076-.341.442-.341.592l.002 13.884c0 .061.013.089.018.095.002-.002.034-.004.087-.034l12.021-6.943a.78.78 0 0 0 .341-.591v-.001l.055-13.97c0-.06-.014-.088-.019-.094z" class="L"/><path d="M143.308 105.683a1.43 1.43 0 0 0-1.429-1.429 1.43 1.43 0 0 0-1.43 1.429l.032 8.667c-.001.211.139.422.418.583.559.323 1.464.323 2.022 0 .279-.16.418-.372.418-.583l-.031-8.667zm5.391-3.109a1.43 1.43 0 0 0-1.43-1.429 1.43 1.43 0 0 0-1.429 1.429l.031 8.667c0 .211.14.422.419.584a2.24 2.24 0 0 0 2.022 0c.278-.161.418-.372.418-.584l-.031-8.667zm5.39-3.109a1.43 1.43 0 0 0-1.429-1.429 1.43 1.43 0 0 0-1.43 1.429l.032 8.667c0 .212.14.423.419.584.558.322 1.463.322 2.021 0 .279-.161.419-.372.419-.583l-.032-8.668zm3.961-4.539a1.43 1.43 0 0 0-1.429 1.429l.032 8.667c-.001.211.139.422.418.583a2.24 2.24 0 0 0 2.022 0c.279-.161.418-.372.418-.583l-.031-8.667a1.43 1.43 0 0 0-1.43-1.429zm-29.594 35.194a1.43 1.43 0 0 1-1.953-.523 1.43 1.43 0 0 1 .524-1.953l7.521-4.306c.182-.106.436-.091.715.07a2.24 2.24 0 0 1 1.01 1.751c0 .322-.112.549-.295.654l-7.522 4.307zm.002 6.223a1.43 1.43 0 0 1-1.952-.523 1.43 1.43 0 0 1 .523-1.953l7.521-4.306c.183-.106.436-.091.715.071.558.322 1.011 1.106 1.011 1.75 0 .322-.113.549-.296.654l-7.522 4.307zm.003 6.222a1.43 1.43 0 0 1-1.952-.523 1.43 1.43 0 0 1 .523-1.953l7.521-4.306c.183-.105.436-.09.715.071a2.24 2.24 0 0 1 1.011 1.751c0 .322-.113.549-.296.654l-7.522 4.306zm-1.949 5.701a1.43 1.43 0 0 1 .523-1.953l7.521-4.306c.183-.105.436-.09.715.071.558.322 1.011 1.106 1.011 1.751 0 .322-.113.548-.296.654l-7.522 4.306a1.43 1.43 0 0 1-1.952-.523z" fill="#fadfa0"/><path d="M240.399 267.481c-.326-.189-.78-.161-1.275.128l-105.093 60.007c-.496.289-.945.774-1.271 1.339l-3.377-1.948c.33-.564.78-1.06 1.275-1.344l104.029-59.396c.995-.574 2.61-.574 3.605 0l2.107 1.214z" class="O"/><path d="M132.229 330.74l.008 24.75c0 1.15.808 1.616 1.803 1.041l105.083-60.004c.996-.575 1.803-1.973 1.803-3.123v-24.756c0-1.15-.807-1.616-1.803-1.041l-105.091 60.009c-.996.575-1.803 1.974-1.803 3.124z" class="N"/><path d="M132.715 356.628l-2.057-1.186c-.995-.574-1.803-1.973-1.803-3.12v-23.54c0-.574.202-1.211.528-1.775l3.378 1.947c-.331.565-.533 1.207-.533 1.785l.009 24.751c.001.546.184.936.478 1.138z" class="F"/><path d="M136.252 351.469c-.154 0-.299-.038-.43-.113-.3-.174-.465-.517-.465-.967l-.008-18.461c0-.825.559-1.793 1.273-2.205l99.649-56.872c.389-.225.768-.252 1.07-.079s.466.517.466.967l-.001 18.474a2.78 2.78 0 0 1-1.273 2.207l-99.64 56.857c-.221.127-.439.192-.641.192zm100.659-78.281c-.11 0-.241.04-.378.12l-99.649 56.871c-.547.316-1.009 1.116-1.009 1.749l.008 18.461c0 .251.074.437.203.512s.327.046.545-.081h.001l99.639-56.856c.546-.316 1.009-1.118 1.009-1.751l.001-18.474c0-.251-.074-.436-.204-.511-.046-.027-.102-.04-.166-.04zm-97.138 71.707c-.092 0-.179-.022-.256-.068-.172-.099-.272-.296-.272-.539l-.002-10.889c0-.343.314-.889.612-1.062l93.133-53.16c.207-.12.428-.135.601-.034s.273.296.273.54l-.057 10.98a1.32 1.32 0 0 1-.613 1.059l-93.072 53.073c-.116.066-.235.1-.347.1zm.014-.518h0zm93.536-64.778c-.005.004-.031.009-.072.033l-93.134 53.162c-.132.077-.348.451-.348.605l.002 10.889c0 .048.008.074.013.084.005-.004.032-.01.073-.034l93.073-53.072a.81.81 0 0 0 .349-.604v-.001l.057-10.979a.2.2 0 0 0-.013-.083z" class="L"/><path d="M242.86 51.176c-.325-.188-.779-.16-1.275.128l-50.248 28.902c-.495.289-.945.775-1.27 1.339l-3.378-1.948c.33-.564.78-1.06 1.275-1.344l49.184-28.292c.995-.573 2.61-.573 3.605 0l2.107 1.214z" fill="#cda64b"/><path d="M189.536 83.331l.008 28.382c0 1.15.807 1.617 1.804 1.042l50.237-28.9c.996-.575 1.803-1.973 1.803-3.123V52.345c0-1.15-.807-1.616-1.803-1.041l-50.247 28.905c-.996.575-1.803 1.973-1.802 3.123z" class="F"/><path d="M190.021 112.851l-2.056-1.186c-.996-.574-1.803-1.973-1.803-3.119V81.373c0-.573.202-1.211.528-1.775l3.377 1.948c-.33.564-.532 1.206-.532 1.784l.009 28.384c0 .546.184.935.477 1.137z" fill="#b29858"/><path d="M193.559 107.693c-.154 0-.299-.038-.43-.113-.3-.174-.465-.517-.465-.967l-.009-22.093c0-.825.559-1.793 1.274-2.206l44.803-25.767c.39-.225.769-.253 1.071-.079s.466.517.466.967l-.001 22.106c0 .825-.559 1.794-1.273 2.207L194.2 107.501c-.221.127-.439.192-.641.192zm45.814-50.809c-.11 0-.241.04-.378.12l-44.804 25.767c-.547.315-1.009 1.116-1.009 1.749l.008 22.093c0 .25.074.436.203.511s.327.047.545-.08h.001l44.793-25.752c.547-.316 1.01-1.117 1.01-1.75l.001-22.106c0-.251-.074-.437-.204-.512-.046-.027-.103-.04-.166-.04z" class="C"/><path d="M197.079 101.119c-.091 0-.179-.023-.256-.068-.172-.1-.272-.297-.272-.54l-.002-14.52c0-.343.314-.889.613-1.062l38.287-22.056c.208-.12.429-.135.601-.034s.273.296.273.54l-.057 14.612a1.32 1.32 0 0 1-.612 1.059l-38.229 21.968a.69.69 0 0 1-.346.101zm.015-.518h0zm38.69-37.305c-.005.004-.031.009-.072.033l-38.289 22.057c-.132.077-.348.451-.348.605l.002 14.52a.19.19 0 0 0 .014.085c.005-.005.031-.011.072-.034l38.228-21.968c.182-.105.349-.394.349-.604v-.001l.057-14.611c0-.047-.008-.072-.013-.082z" class="L"/><path d="M153.983 180.755v19.605c0 1.473-1.031 3.251-2.304 3.988l-20.583 12.038c-1.274.737-2.294.137-2.294-1.326v-19.605c0-1.473 1.031-3.251 2.294-3.988l20.583-12.038c1.273-.737 2.304-.137 2.304 1.326z" class="C"/><g class="E"><path d="M153.983 184.996v1.199l-25.181 14.659v-1.21l25.181-14.648z"/><path d="M144.829 201.147l1.041-1.202v-9.986l-1.041 1.201v9.987zm-7.92 4.755l1.04-1.202v-9.971l-1.04 1.201v9.972z"/><path d="M153.983 195.004v1.199l-25.181 14.659v-1.21l25.181-14.648z"/></g><path d="M225.632 189.466c.445.25.72.794.72 1.574v63.139c0 1.557-1.094 3.451-2.442 4.229l-91.331 52.731c-.676.39-1.284.424-1.723.164l-2.239-1.292c-.446-.25-.722-.794-.722-1.576v-63.138c-.001-1.557 1.093-3.451 2.441-4.229l91.333-52.732c.67-.387 1.274-.423 1.712-.171l2.251 1.301z" class="M"/><path d="M130.848 244.187l-2.237-1.291c-.44.762-.714 1.619-.72 2.397v63.142c.004.784.28 1.321.729 1.58l2.237 1.292c-.44-.254-.72-.806-.719-1.575V246.59c-.009-.774.27-1.641.71-2.403z" fill-opacity=".549" class="B"/><path d="M132.579 242.362l91.332-52.732c1.348-.779 2.441-.147 2.441 1.41v63.139c0 1.557-1.093 3.451-2.442 4.23l-91.331 52.73c-1.349.779-2.442.148-2.442-1.41l-.001-63.138c0-1.557 1.094-3.451 2.443-4.229z" class="N"/><g fill="#fefefe"><path d="M143.548 255.792l-10.675 6.164c-.27.156-.488.164-.488.02s.218-.388.488-.544l10.335-5.967v-4.121c0-.081.043-.156.113-.197l5.525-3.19a.23.23 0 0 1 .227 0l3.57 2.061 8.588-4.959c.093-.346.335-.695.62-.861.366-.211.663-.04.663.383s-.297.936-.663 1.147c-.286.165-.527.094-.62-.145l-8.474 4.893a.23.23 0 0 1-.227 0l-3.57-2.061-5.299 3.059.001 4.122c-.001.081-.044.156-.114.196z"/><path d="M132.873 252.913l15.974-9.223c.07-.04.157-.04.227.001l3.57 2.074 3.73-2.154c.092-.346.334-.696.619-.861.366-.211.663-.04.663.382a1.47 1.47 0 0 1-.663 1.148c-.285.165-.527.094-.619-.145l-3.617 2.088c-.071.04-.157.04-.227-.001l-3.57-2.073-16.087 9.288c-.269.155-.488.164-.488.019s.219-.388.488-.543zm0-4.241l15.973-9.222c.071-.041.157-.041.227 0l3.57 2.061 8.562-4.943c.09-.352.333-.709.623-.876.366-.212.663-.041.663.382s-.297.936-.663 1.147c-.281.163-.52.097-.616-.133l-8.456 4.881c-.07.041-.156.041-.226 0l-3.57-2.061-16.087 9.288c-.27.155-.488.164-.488.02s.218-.388.488-.544z"/><path d="M192.572 265.374v-1.734l-4.772 2.755-3.653 6.327c-.02.034-.048.063-.083.083l-9.208 5.316c-.07.041-.157.041-.227 0l-3.683-2.126c-.07-.041-.113-.116-.113-.197v-1.733l-10.689 6.171c-.071.041-.157.041-.227 0l-3.57-2.061-5.319 3.07v6.119l3.456 1.995 14.791-8.539c.093-.347.335-.696.62-.861.366-.212.663-.04.663.382s-.297.936-.663 1.147c-.286.166-.527.095-.62-.145l-14.677 8.475a.23.23 0 0 1-.227 0l-3.683-2.127c-.07-.04-.114-.116-.114-.196l.001-5.988-17.702 10.22c-.27.156-.488.165-.488.021s.218-.388.488-.544l17.702-10.22v-1.866l-3.488-2.046-14.214 8.206c-.27.156-.488.165-.488.02s.218-.388.488-.544l14.101-8.141c.071-.041.158-.041.228.001l3.714 2.179c.069.04.112.115.112.195v1.734l5.205-3.005c.071-.041.157-.041.227 0l3.57 2.061 10.803-6.237v-14.363l-18.077 10.436c-.07.041-.157.041-.226 0l-5.412-3.123-14.245 8.224c-.27.156-.488.164-.488.02s.218-.388.488-.544l14.131-8.159c.07-.04.157-.04.227.001l5.412 3.123 18.19-10.502v-10.371l-3.457-1.995-34.503 19.92c-.27.156-.488.165-.488.021s.218-.388.488-.544l34.39-19.855c.07-.041.156-.04.226 0l3.684 2.126c.07.041.113.116.113.196v10.241l6.52-3.765c.093-.346.334-.696.62-.86.365-.212.662-.04.662.382a1.47 1.47 0 0 1-.662 1.147c-.286.165-.528.095-.62-.145l-6.52 3.764v14.363l10.564-6.099c.093-.346.334-.696.62-.861.366-.211.662-.04.662.383s-.296.936-.662 1.147c-.286.165-.528.094-.62-.145l-10.564 6.099v1.865l3.457 1.995 9.042-5.22 3.653-6.328c.02-.034.048-.063.083-.083l5.051-2.916v-5.857l-15.368 8.873c-.092.347-.334.697-.62.862-.365.211-.662.04-.662-.383a1.47 1.47 0 0 1 .662-1.147c.286-.165.527-.094.62.145l15.368-8.873v-5.856l-10.346 5.973c-.092.347-.334.696-.619.861-.366.211-.663.04-.663-.382a1.47 1.47 0 0 1 .663-1.148c.285-.165.527-.094.619.145l10.346-5.973v-10.109l-3.23 1.865v4.123c0 .08-.043.155-.113.196l-4.167 2.406c-.093.346-.334.696-.621.861-.365.211-.662.04-.662-.382a1.47 1.47 0 0 1 .663-1.148c.286-.165.527-.094.62.145l3.827-2.209v-4.123c0-.08.043-.155.113-.196l3.57-2.061v-3.73l-17.209 9.936c-.093.347-.334.696-.62.861-.366.211-.663.04-.663-.382a1.47 1.47 0 0 1 .663-1.148c.285-.165.527-.094.62.145l17.209-9.936v-1.864l-3.457-1.996-10.936 6.314c-.07.041-.157.041-.227 0l-3.57-2.06-6.749 3.896c-.093.346-.334.696-.62.861-.366.211-.662.04-.662-.383a1.47 1.47 0 0 1 .662-1.147c.286-.166.527-.094.62.145l6.636-3.831c.07-.04.156-.04.226 0l3.571 2.061 10.936-6.314c.07-.041.157-.04.226 0l3.684 2.127c.07.04.113.115.113.196v1.733l8.868-5.12c.071-.04.157-.04.227.001l3.57 2.061 17.925-10.349c.27-.156.488-.165.488-.021s-.218.388-.488.544l-17.811 10.284a.23.23 0 0 1-.227 0l-3.57-2.061-8.982 5.185v3.73l5.185-2.993c.07-.041.157-.041.227 0l3.57 2.061 21.608-12.476c.27-.156.489-.165.488-.02s-.218.388-.488.544l-21.495 12.41c-.07.04-.156.04-.226 0l-3.571-2.061-5.298 3.059v10.109l8.868-5.12c.071-.041.157-.041.227 0l7.254 4.187 14.241-8.222c.27-.156.489-.165.489-.02s-.219.388-.489.544l-14.128 8.157c-.07.04-.157.04-.226 0l-7.254-4.188-8.982 5.185v5.856l8.868-5.12a.23.23 0 0 1 .227 0l5.412 3.125 16.083-9.286c.27-.156.489-.165.489-.02s-.219.388-.489.543l-15.97 9.221c-.07.04-.156.04-.226 0l-5.412-3.124-8.982 5.185v5.856l8.362-4.827c.093-.347.334-.696.62-.861.366-.212.662-.041.662.382s-.296.936-.662 1.148c-.286.164-.527.093-.62-.146l-8.362 4.828v1.865l3.457 1.995 27.133-15.665c.27-.156.489-.165.489-.02s-.219.388-.489.543l-27.02 15.601c-.07.04-.156.04-.226 0l-3.683-2.127c-.071-.04-.114-.115-.114-.196zm-59.699 30.083l6.765-3.906a.23.23 0 0 1 .227 0l3.569 2.062 4.905-2.833c.093-.346.335-.695.621-.86.365-.211.662-.04.662.382a1.47 1.47 0 0 1-.662 1.148c-.286.165-.528.094-.621-.146l-4.791 2.767a.23.23 0 0 1-.227 0l-3.57-2.061-6.878 3.971c-.27.156-.489.165-.488.02s.218-.388.488-.544zm0 8.506l4.417-2.55c.093-.346.334-.696.62-.861.365-.211.662-.04.662.382a1.47 1.47 0 0 1-.662 1.148c-.286.165-.527.094-.62-.145l-4.417 2.55c-.27.156-.488.165-.488.02s.218-.388.488-.544zm0-4.253l6.765-3.905c.07-.041.156-.041.226-.001l3.57 2.062 6.747-3.896c.093-.346.335-.696.62-.86.366-.212.662-.04.662.382s-.296.936-.662 1.147c-.286.166-.527.095-.62-.145l-6.633 3.83a.23.23 0 0 1-.227 0l-3.57-2.061-6.878 3.971c-.27.156-.489.164-.488.02s.218-.388.488-.544z"/><path d="M147.118 262.238l-14.245 8.224c-.27.156-.488.164-.488.02s.218-.388.488-.544l14.131-8.159a.23.23 0 0 1 .227 0l3.57 2.062 10.43-6.022c.093-.347.334-.697.62-.862.366-.211.663-.04.663.383s-.297.936-.663 1.147c-.286.165-.527.094-.62-.145l-10.317 5.956c-.07.041-.156.041-.226 0l-3.57-2.06zm0 8.506l-14.245 8.224c-.269.156-.488.165-.488.02s.219-.388.488-.543l14.132-8.16c.07-.04.156-.04.227.001l7.253 4.187 6.746-3.894c.093-.347.334-.697.62-.862.366-.212.662-.04.662.382a1.47 1.47 0 0 1-.662 1.148c-.286.164-.527.094-.62-.145l-6.633 3.829c-.07.041-.157.041-.227.001l-7.253-4.188z"/></g><path d="M138.215 285.299c-.218-.125-.354-.398-.352-.782l-.002-19.027c.002-.384.133-.808.351-1.185l-2.261-1.308c-.217.381-.354.808-.353 1.19v18.205c0 .769-.072 1.352.594 1.737l2.023 1.17z" class="D"/><path d="M139.071 263.399l16.47-9.504c.667-.384 1.208-.072 1.208.698v19.019c0 .771-.541 1.708-1.208 2.093l-16.471 9.51c-.667.385-1.208.072-1.208-.698v-19.026c0-.771.541-1.707 1.209-2.092z" class="X"/><path d="M156.361 253.791l-1.991-1.15c-.666-.385-1.135-.031-1.8.353l-15.766 9.103c-.332.192-.635.522-.853.9l2.261 1.308c.217-.381.522-.713.857-.907l16.472-9.503c.316-.183.604-.207.82-.104z" fill="#36464f"/><path d="M154.645 258.009l.002 14.806a1.85 1.85 0 0 1-.847 1.469l-12.826 7.406c-.258.149-.509.167-.707.053s-.307-.34-.307-.639l.003-14.816a1.85 1.85 0 0 1 .847-1.469l12.821-7.396c.258-.148.509-.167.707-.053a.55.55 0 0 1 .205.207.86.86 0 0 1 .102.432zm-.163.003l-.002-.003.002.003zm-14.049 23.444c.089.052.226.032.375-.054l12.826-7.406c.37-.213.682-.754.682-1.181l-.002-14.806c0-.174-.052-.301-.142-.352s-.226-.032-.375.053l-12.821 7.397c-.37.213-.682.754-.682 1.181l-.003 14.816a.55.55 0 0 0 .058.266.24.24 0 0 0 .084.086zm11.532-19.404l-.001 9.728a.87.87 0 0 1-.404.701l-8.46 4.929c-.137.08-.28.087-.393.022s-.178-.193-.177-.352l.033-9.793a1.01 1.01 0 0 1 .405-.701l8.426-4.863c.138-.08.281-.088.394-.022.05.028.091.07.121.121a.47.47 0 0 1 .056.23zm-9.031 15.071l8.459-4.928c.128-.074.239-.267.239-.415l.002-9.727c0-.043-.01-.063-.01-.065s-.027.001-.064.022l-8.426 4.863a.75.75 0 0 0-.24.416l-.032 9.792c-.001.042.009.062.009.064s.027-.001.063-.022z" class="L"/><g class="B"><path d="M186.519 128.3c-.011.02-.007.035-.009.06l.002 79.359c.005.511.349 1.021 1.013 1.405l1.992 1.15c.626.361 1.428.551 2.26.576l-.002-79.359c-.813-.013-1.634-.214-2.26-.576l-1.992-1.15c-.703-.406-1.036-.936-1.004-1.465z" class="G"/><path d="M187.526 129.77l1.989 1.149c1.348.779 3.534.779 4.883 0l45.515-26.278c1.349-.779 1.349-2.041 0-2.82l-1.989-1.148c-1.348-.779-3.535-.779-4.883 0l-45.515 26.277c-1.348.778-1.349 2.041 0 2.82z" class="R"/><path d="M196.585 127.378l-3.116-1.799a1.62 1.62 0 0 0-1.47-.002l-.55.32c-.308.174-.379.432-.225.639a.61.61 0 0 0 .23.21l3.116 1.799c.4.232 1.052.231 1.46-.003l.55-.32c.084-.056.153-.107.197-.16.195-.226.121-.504-.192-.684zm3.261-1.881l-3.116-1.799c-.411-.237-1.063-.236-1.471-.003l-.55.321c-.308.174-.379.432-.225.638a.61.61 0 0 0 .23.211l3.116 1.799a1.62 1.62 0 0 0 1.46-.003l.551-.321c.084-.055.152-.107.202-.17.18-.221.115-.493-.197-.673zm3.261-1.882l-3.116-1.799c-.41-.236-1.062-.235-1.47-.002l-.55.321c-.308.174-.38.432-.225.639a.61.61 0 0 0 .23.21l3.116 1.799c.4.231 1.052.23 1.46-.003l.55-.321a.6.6 0 0 0 .202-.17c.18-.221.116-.493-.197-.674zm3.267-1.89l-3.116-1.8c-.401-.231-1.068-.225-1.471-.002l-.549.321c-.309.174-.38.432-.226.638a.61.61 0 0 0 .23.211l3.116 1.799a1.62 1.62 0 0 0 1.461-.003l.55-.321c.084-.055.153-.107.196-.16.196-.225.121-.503-.191-.683zm-43.326 89.008c0 1.637.873 3.149 2.29 3.968l.218.125c1.426.824 2.3 2.35 2.29 3.997l-.213 34.135-1.127-.65.212-33.491c.007-1.24-.654-2.395-1.726-3.014l-.218-.125c-1.761-1.017-2.855-2.911-2.855-4.945l.001-45.621 1.128.651v44.97z" class="Q"/></g><path d="M174.76 203.971c0 1.637.874 3.149 2.291 3.968l.217.125a4.58 4.58 0 0 1 2.29 3.997l-.213 34.135-.937.542.213-34.136a4.58 4.58 0 0 0-2.29-3.996l-.218-.126c-1.417-.819-2.29-2.331-2.29-3.967v-44.971l.937-.541v44.97zm-4.363 2.519c0 1.637.873 3.149 2.29 3.968l.218.125c1.426.824 2.3 2.35 2.29 3.996l-.213 34.136-.937.541.213-34.135c.01-1.647-.864-3.173-2.291-3.997l-.217-.125c-1.417-.819-2.29-2.331-2.291-3.968v-44.97l.938-.541v44.97zm-4.363 2.519c0 1.637.873 3.149 2.29 3.968l.217.125a4.58 4.58 0 0 1 2.291 3.997l-.213 34.135-.938.541.213-34.135a4.58 4.58 0 0 0-2.29-3.997l-.217-.125a4.58 4.58 0 0 1-2.291-3.968v-44.97l.938-.541v44.97z" class="P"/><path d="M160.869 171.799c-.218-.126-.354-.398-.353-.783l.001-11.305c.002-.385.134-.808.352-1.186l-2.262-1.307c-.216.38-.353.807-.352 1.19l-.004 10.483c.001.77-.071 1.353.594 1.738l2.024 1.17z" class="D"/><path d="M161.726 157.618l16.471-9.503c.667-.385 1.208-.073 1.208.698l-.003 11.299c0 .77-.541 1.707-1.208 2.092l-16.471 9.51c-.667.385-1.208.073-1.208-.698l.003-11.306c0-.77.541-1.707 1.208-2.092z" class="X"/><path d="M179.017 148.011l-1.99-1.15c-.666-.385-1.135-.031-1.8.353l-15.766 9.103c-.333.192-.635.523-.854.901l2.262 1.307c.217-.381.522-.713.857-.907l16.471-9.503c.318-.182.605-.207.82-.104z" fill="#36464f"/><path d="M177.302 152.229l-.001 7.086a1.85 1.85 0 0 1-.848 1.468l-12.826 7.407c-.258.148-.509.167-.707.053s-.307-.34-.307-.639l.006-7.096c0-.549.372-1.194.848-1.469l12.821-7.396c.258-.148.509-.167.707-.053a.56.56 0 0 1 .205.207c.067.116.102.262.102.432zm-.163.004l-.003-.004.003.004zm-14.053 15.723c.09.051.227.032.375-.054l12.826-7.406c.37-.214.683-.754.683-1.181l.001-7.086c-.001-.174-.052-.301-.142-.352s-.226-.032-.375.054l-12.821 7.396a1.53 1.53 0 0 0-.682 1.181l-.006 7.096c0 .108.02.2.058.265a.24.24 0 0 0 .083.087zm11.535-11.684l-.004 2.008c0 .266-.174.567-.404.701l-8.46 4.929c-.137.079-.281.087-.393.022s-.178-.194-.177-.353l.036-2.071c.001-.227.209-.588.405-.702l8.426-4.863c.138-.08.281-.088.394-.023.051.03.091.071.121.122.037.064.056.143.056.23zm-9.034 7.351l8.459-4.929a.55.55 0 0 0 .24-.414l.004-2.008c0-.043-.01-.062-.01-.064s-.027.001-.064.022l-8.426 4.864c-.091.052-.239.308-.239.414l-.037 2.072c0 .042.01.063.01.064s.027 0 .063-.021z" class="L"/><path d="M157.249 109.934c-4.122 2.38-7.463 8.167-7.463 12.927l.001 270.794c0 4.76 3.341 6.689 7.463 4.309l128.191-74.021c4.105-2.37 7.464-8.187 7.464-12.928l-.002-270.793c0-4.74-3.359-6.679-7.463-4.309l-128.191 74.022z" class="K"/><path d="M288.756 35.978c1.922 0 3.07 1.586 3.07 4.244l.001 270.794c0 4.335-3.171 9.827-6.925 11.994l-128.19 74.021c-.992.573-1.958.875-2.795.875-1.912 0-3.053-1.589-3.053-4.251l-.001-270.793c0-4.41 3.107-9.79 6.925-11.995l128.19-74.021c.983-.567 1.943-.867 2.778-.867zm0-1.077c-1.001 0-2.127.325-3.316 1.012l-128.191 74.021c-4.122 2.38-7.463 8.168-7.463 12.928l.001 270.793c0 3.376 1.681 5.329 4.13 5.329 1.004 0 2.135-.328 3.333-1.02l128.191-74.02c4.105-2.371 7.464-8.188 7.464-12.928l-.002-270.794c0-3.367-1.695-5.321-4.147-5.321z" class="O"/><g class="P"><path d="M175.277 121.313c-.027-.031-.042-.099-.042-.205v-1.005l-1.572.908c-.086.05-.129.004-.129-.139v-.36c0-.082.004-.149.014-.199s.029-.114.055-.194l1.672-4.564c.03-.083.056-.141.079-.178s.06-.071.109-.099l.219-.125c.066-.04.113-.041.144-.005s.044.11.044.221v3.512l.348-.201c.066-.038.112-.041.138-.007s.04.109.04.221v.239a.64.64 0 0 1-.04.251c-.026.062-.072.113-.138.151l-.348.201v1.005c0 .106-.014.191-.042.254a.34.34 0 0 1-.146.155l-.264.151c-.066.04-.112.043-.141.012zm.062-2.126v-2.504l-1.141 3.163 1.141-.659zm1.806.439c-.308-.363-.461-1.048-.461-2.053s.154-1.862.463-2.583.744-1.245 1.302-1.567c.225-.131.436-.212.631-.241s.357-.007.486.072c.03.017.045.047.045.089a.49.49 0 0 1-.02.116l-.144.524c-.02.064-.039.103-.059.115-.011.005-.032.003-.065-.006-.225-.094-.493-.052-.804.128-.377.218-.673.577-.888 1.081s-.323 1.14-.323 1.911.105 1.293.314 1.548.493.278.857.069a2.3 2.3 0 0 0 .387-.281c.126-.111.229-.225.308-.341v-1.632l-.655.378c-.066.039-.112.041-.138.005s-.041-.106-.041-.219v-.229a.62.62 0 0 1 .041-.256.32.32 0 0 1 .138-.148l1.047-.604c.072-.042.125-.04.156.003s.048.13.048.26v2.328a1.01 1.01 0 0 1-.016.207c-.009.05-.031.102-.064.157-.304.516-.718.925-1.241 1.227-.562.324-.997.306-1.304-.058zm13.252-8.02c0 .775-.409 1.64-.913 1.931s-.913-.102-.913-.878.409-1.64.913-1.932.913.103.913.879zm-.913-3.178c-.919.531-1.718 1.786-2.123 3.185-.082.284-.04.555.097.641l.002.001c.173.108.428-.117.53-.475.283-.99.848-1.876 1.494-2.249s1.211-.138 1.493.525c.102.241.359.171.533-.139l.001-.003c.136-.244.177-.562.096-.75-.404-.934-1.204-1.267-2.123-.736zm0-2.249c-1.367.789-2.57 2.584-3.259 4.638-.101.302-.072.606.075.7l.003.001c.168.107.409-.101.523-.445.558-1.678 1.541-3.146 2.658-3.791s2.102-.313 2.661.722c.114.211.355.14.522-.159.148-.264.177-.601.076-.786-.683-1.262-1.89-1.67-3.259-.88zm23.839-10.431c-.028-.04-.039-.094-.034-.167a.51.51 0 0 1 .064-.203l1.31-2.346.1-.164c.034-.054.071-.093.111-.116l.471-.272c.045-.025.083-.023.115.008s.047.08.047.149v6.005c0 .067-.015.137-.047.204s-.07.115-.115.141l-.489.282c-.045.025-.082.024-.114-.008s-.049-.08-.049-.148V94.52l-.857 1.526c-.036.063-.075.103-.118.119s-.079.004-.112-.034l-.283-.384zm3.054-1.764c-.029-.039-.039-.094-.033-.167s.026-.138.063-.203l1.31-2.345.1-.165a.33.33 0 0 1 .112-.114l.47-.273c.044-.025.082-.023.115.008s.048.081.048.148v6.005c0 .069-.016.136-.048.204s-.071.115-.115.141l-.488.282c-.046.026-.083.022-.116-.008s-.048-.08-.048-.148v-4.591l-.857 1.527c-.036.064-.075.103-.117.119s-.081.004-.112-.034l-.284-.384zm4.007-2.573c.045-.026.083-.023.116.007s.048.081.048.149v.911c0 .068-.016.137-.048.204s-.071.114-.116.141l-.561.324c-.044.026-.082.024-.115-.008s-.048-.081-.048-.148v-.911c0-.069.017-.136.048-.205s.071-.114.115-.14l.561-.324zm0 3.253c.045-.026.083-.022.116.007s.048.081.048.149v.911c0 .068-.016.137-.048.204s-.071.114-.116.141l-.561.324c-.044.025-.082.023-.115-.008s-.048-.081-.048-.148v-.911c0-.069.017-.136.048-.205s.071-.114.115-.14l.561-.324zm3.225-.45c-.044.025-.082.023-.115-.008s-.048-.081-.048-.148v-1.125l-1.872 1.08c-.044.025-.082.023-.114-.007s-.049-.081-.049-.149v-.66c0-.087.014-.17.039-.251l.094-.262 1.847-4.618c.081-.202.164-.327.247-.375l.46-.265c.044-.026.082-.023.115.008s.047.08.047.149v3.718l.52-.3c.044-.025.083-.022.114.008s.049.082.049.149v.661c0 .067-.016.136-.049.204s-.07.114-.114.14l-.52.3v1.126a.47.47 0 0 1-.047.203c-.033.069-.071.115-.115.141l-.489.282zm-.163-2.443v-1.989l-1.033 2.585 1.033-.595zm2.589-5.212a.47.47 0 0 1 .049-.204c.031-.069.069-.114.114-.141l2.269-1.31c.045-.026.083-.024.115.007s.049.08.049.149v.661c0 .067-.017.136-.049.203s-.07.115-.115.142l-1.695.978-.067 1.229a1.64 1.64 0 0 1 .324-.308l.262-.171c.225-.13.434-.204.627-.222a.71.71 0 0 1 .502.123c.141.102.251.263.331.483s.121.503.121.85a4.51 4.51 0 0 1-.123 1.089 3.86 3.86 0 0 1-.339.892 2.98 2.98 0 0 1-.504.69c-.193.196-.398.356-.615.481-.279.161-.517.249-.715.265s-.365-.024-.496-.119-.229-.233-.295-.415a2.04 2.04 0 0 1-.112-.628.39.39 0 0 1 .045-.207c.034-.067.074-.112.118-.138l.489-.281c.04-.024.077-.025.108-.004s.055.064.067.124c.024.13.062.224.115.282a.32.32 0 0 0 .18.11c.069.013.145.004.23-.026a1.62 1.62 0 0 0 .266-.126c.229-.132.414-.334.554-.608a1.96 1.96 0 0 0 .212-.911c0-.28-.071-.472-.212-.576s-.325-.094-.554.032c-.121.07-.217.139-.287.208a1.4 1.4 0 0 0-.172.197l-.121.167c-.036.049-.082.09-.139.122l-.556.32c-.043.025-.082.023-.114-.007s-.048-.081-.048-.149l.181-3.256zm-68.125 45.529v-1.937l1.677-.969v1.937l-1.677.969zm2.516-1.453v-3.874l1.678-.969v3.875l-1.678.968zm2.517-1.452v-5.812l1.677-.969v5.812l-1.677.969zm2.517-1.455v-7.749l1.678-.969v7.749l-1.678.969zm117.833-74.32c-.177-.26-.398-.331-.623-.201l-6.267 3.603c-.406.234-.724 1.07-.724 1.902v3.522c0 .464.097.863.273 1.123.075.111.16.189.252.23.119.053.244.043.371-.03l6.266-3.603c.406-.235.725-1.07.725-1.904v-3.52c0-.463-.097-.862-.273-1.122zm-7.169 9.497c-.064-.094-.101-.282-.101-.515v-3.522c0-.614.253-1.278.552-1.45l6.266-3.603c.073-.042.142-.051.198-.025.031.014.058.037.081.071.065.094.101.282.101.514v3.521c0 .615-.252 1.28-.551 1.451l-6.267 3.604c-.114.067-.214.05-.279-.047zm1.64-5.561v4.167l-.984.564c-.084.048-.192-.012-.192-.108v-3.098c0-.444.192-.949.408-1.081l.768-.444z"/><path d="M278.221 57.091l1.177-.684v4.167l-1.177.673v-4.155zm1.633-.936l1.176-.684v4.179l-1.176.672v-4.167zm2.809-1.345v3.002a1.56 1.56 0 0 1-.78 1.345l-.396.228v-4.167l.937-.54c.108-.06.239.012.239.132zm1.137-.391c.173-.103.314.4.314 1.123v.655c0 .723-.142 1.406-.318 1.524l-.318.215.008-3.331.314-.186zm-17.637 10.647l6.094-5.408-1.88 7.928-.888-3.299-3.326.779z"/></g><path d="M169.153 373.145c-.316 0-.613-.077-.878-.23-.617-.356-.957-1.06-.957-1.983v-9.807c0-1.691 1.146-3.677 2.611-4.521l30.448-17.58c.798-.463 1.579-.519 2.194-.164s.957 1.059.957 1.983v9.807c0 1.69-1.147 3.675-2.611 4.521l-30.448 17.58c-.454.263-.901.394-1.316.394zm32.539-33.431c-.225 0-.492.083-.775.246l-30.448 17.579c-1.122.648-2.07 2.29-2.07 3.586v9.807c0 .513.151.895.415 1.047s.669.092 1.115-.164l30.448-17.579c1.122-.648 2.07-2.291 2.07-3.586v-9.807c0-.513-.151-.895-.415-1.047-.096-.055-.211-.082-.34-.082zm-24.607 20.07l-.007.292-.003.378.003.381.007.286c.007.118.023.226.046.323a.53.53 0 0 0 .113.229c.053.056.118.085.198.09s.177-.028.294-.096.214-.143.29-.229a1.49 1.49 0 0 0 .186-.262 1.48 1.48 0 0 0 .111-.268l.06-.241c.015-.095.035-.165.056-.213s.061-.086.119-.12l.677-.39c.03-.019.057-.016.079.005s.033.057.033.104c-.003.273-.046.553-.129.838a3.81 3.81 0 0 1-.341.818 3.88 3.88 0 0 1-.508.71c-.195.215-.406.39-.633.522-.247.142-.469.213-.663.211s-.362-.06-.499-.177-.244-.283-.319-.504a2.64 2.64 0 0 1-.126-.758l-.01-.694.01-.722c.007-.295.049-.597.125-.903a4.18 4.18 0 0 1 .317-.87c.136-.276.303-.527.498-.754s.42-.413.667-.555c.227-.132.438-.203.633-.211a.86.86 0 0 1 .508.123.91.91 0 0 1 .341.423c.082.19.126.422.129.69a.32.32 0 0 1-.033.142c-.022.049-.049.08-.079.098l-.677.391c-.058.034-.098.04-.119.017s-.041-.071-.056-.147a1.35 1.35 0 0 0-.06-.171c-.027-.06-.063-.107-.111-.139s-.111-.049-.186-.048-.174.035-.29.103-.215.15-.294.247-.145.2-.198.315-.088.235-.113.36a3.04 3.04 0 0 0-.046.376zm2.816.651c0-.35.088-.689.261-1.018s.457-.658.85-.992l.605-.509c0-.127-.023-.218-.068-.275s-.122-.052-.232.011c-.079.046-.14.099-.184.159s-.075.108-.095.146c-.031.06-.06.104-.087.13a.55.55 0 0 1-.1.073l-.655.379c-.035.019-.064.02-.086.002s-.031-.057-.028-.112c.007-.125.042-.273.103-.441s.147-.339.256-.513a3.33 3.33 0 0 1 .387-.503c.15-.161.314-.291.489-.392.21-.123.392-.187.548-.198s.283.026.384.109.176.205.225.369.073.367.073.6v2.41c0 .058-.014.117-.043.176a.24.24 0 0 1-.098.119l-.65.376c-.038.022-.071.02-.098-.007s-.041-.069-.041-.127v-.223a2.47 2.47 0 0 1-.308.555c-.122.163-.284.303-.483.418-.148.085-.28.13-.395.133s-.212-.028-.29-.095-.136-.166-.179-.294-.061-.286-.061-.466zm1.178-.498a.83.83 0 0 0 .213-.182 1.28 1.28 0 0 0 .169-.262c.049-.096.086-.198.114-.306a1.35 1.35 0 0 0 .042-.323l-.475.384a1.05 1.05 0 0 0-.225.266c-.057.098-.086.196-.086.296s.022.158.065.174.103-.001.183-.047zm5.052-2.137c0 .059-.014.117-.042.175a.27.27 0 0 1-.097.12l-.651.376c-.038.021-.071.019-.098-.007s-.041-.069-.041-.127v-2.013c0-.227-.036-.391-.109-.486s-.186-.099-.341-.01-.267.223-.338.403-.106.382-.106.608v2.014a.4.4 0 0 1-.041.174c-.028.059-.061.099-.099.121l-.651.376c-.037.022-.07.019-.097-.008s-.042-.069-.042-.127v-3.706c0-.058.014-.117.042-.174a.27.27 0 0 1 .097-.122l.626-.361c.037-.022.069-.02.097.008s.042.069.042.127v.183a2.27 2.27 0 0 1 .104-.227 1.85 1.85 0 0 1 .148-.242 2.05 2.05 0 0 1 .205-.23c.077-.072.168-.139.271-.198.165-.096.317-.148.455-.156a.46.46 0 0 1 .354.125c.098.091.174.235.229.432s.083.452.083.764v2.188zm1.652-3.087l-.009.285.009.272c.011.186.057.313.141.382s.192.064.329-.016a.81.81 0 0 0 .262-.226c.06-.087.109-.184.147-.297a1.11 1.11 0 0 1 .06-.144c.021-.045.052-.078.09-.101l.676-.39c.038-.023.072-.02.102.005s.041.068.038.129c-.004.087-.026.225-.067.411a3.01 3.01 0 0 1-.217.616 3.34 3.34 0 0 1-.418.663 2.35 2.35 0 0 1-.673.567c-.192.111-.371.172-.539.184s-.314-.026-.438-.112-.226-.221-.3-.404-.115-.412-.122-.689l-.006-.316.006-.321a3.37 3.37 0 0 1 .122-.829c.074-.268.173-.518.3-.75a3.05 3.05 0 0 1 .438-.621c.168-.18.347-.326.539-.437.273-.158.497-.228.673-.21a.67.67 0 0 1 .418.181.82.82 0 0 1 .217.363c.041.142.063.253.067.335a.36.36 0 0 1-.038.174c-.03.06-.064.101-.102.122l-.676.391c-.038.022-.069.023-.09.004a.29.29 0 0 1-.06-.077c-.038-.068-.087-.111-.147-.126s-.147.01-.262.076c-.137.078-.247.201-.329.364s-.13.347-.141.542zm3.353-1.203c0 .122.015.214.044.277s.067.104.112.126.094.027.15.013a.66.66 0 0 0 .16-.064c.104-.06.185-.123.245-.19a1.01 1.01 0 0 0 .152-.223l.082-.14c.018-.022.048-.047.088-.07l.672-.389c.077-.043.113-.006.113.11a1.31 1.31 0 0 1-.076.336c-.052.159-.133.339-.24.536s-.251.397-.421.598a2.36 2.36 0 0 1-.615.504c-.225.13-.423.197-.597.199a.59.59 0 0 1-.439-.172c-.119-.117-.208-.291-.269-.522a3.4 3.4 0 0 1-.09-.845 4.57 4.57 0 0 1 .09-.908 3.85 3.85 0 0 1 .269-.835 3.15 3.15 0 0 1 .439-.704c.174-.207.372-.377.597-.507.251-.145.465-.203.642-.176a.67.67 0 0 1 .435.254c.113.141.193.328.242.556s.075.47.075.724v.223c0 .058-.014.116-.042.176s-.06.099-.097.12l-1.721.993zm.466-1.796c-.145.083-.255.214-.331.389s-.121.352-.135.523l.931-.536c-.014-.156-.06-.278-.135-.368s-.185-.092-.33-.008zm3.053 1.164a.41.41 0 0 1-.041.175c-.029.06-.061.099-.099.121l-.651.376c-.037.021-.071.019-.098-.007s-.041-.07-.041-.128v-5.218c0-.058.013-.116.041-.175s.061-.097.098-.12l.651-.375c.038-.023.07-.02.099.006s.041.069.041.128v5.217z" class="I"/><path d="M240.243 329.155v-9.807c0-1.492 1.048-3.307 2.34-4.054l30.448-17.579c1.293-.746 2.341-.141 2.341 1.351v9.807c0 1.492-1.048 3.307-2.341 4.053l-30.448 17.58c-1.292.746-2.34.141-2.34-1.351z" class="J"/><path d="M252.121 314.362c.069-.04.121-.041.157-.003a.3.3 0 0 1 .075.132l1.126 4.36c.013.046.021.081.021.107 0 .048-.011.095-.034.143s-.049.08-.079.097l-.652.376c-.068.04-.117.047-.146.018s-.048-.061-.055-.099l-.145-.578-1.374.795-.144.743c-.007.046-.026.101-.055.162a.34.34 0 0 1-.148.153l-.65.376c-.031.018-.058.016-.08-.005s-.034-.057-.034-.105a.81.81 0 0 1 .021-.132l1.127-5.66c.013-.066.038-.14.073-.218a.38.38 0 0 1 .159-.179l.837-.483zm-.837 3.96l.837-.483-.418-1.668-.419 2.151zm4.454-.401c-.101.057-.188.093-.264.105a.47.47 0 0 1-.197-.006.34.34 0 0 1-.139-.075c-.038-.034-.07-.066-.093-.102v1.696c0 .056-.014.116-.041.174s-.061.098-.1.12l-.65.376c-.038.022-.07.02-.098-.007s-.041-.069-.041-.127v-5.218c0-.058.014-.116.041-.175s.06-.099.098-.12l.625-.361c.038-.021.071-.019.098.008s.043.068.043.127v.182l.1-.224a1.46 1.46 0 0 1 .134-.234 1.58 1.58 0 0 1 .196-.224c.078-.074.174-.144.288-.209.155-.09.3-.139.438-.146a.49.49 0 0 1 .362.125c.104.091.186.233.25.424s.099.441.106.749l.005.319-.005.326a4.09 4.09 0 0 1-.106.872c-.064.265-.147.504-.25.714s-.224.394-.362.547a1.83 1.83 0 0 1-.438.364zm.231-2.058c.011-.154.011-.303 0-.446-.01-.179-.049-.319-.119-.416s-.183-.101-.345-.007a.69.69 0 0 0-.197.168c-.055.069-.1.145-.137.228s-.064.164-.085.251a1.55 1.55 0 0 0-.041.253l-.011.285.011.273c.006.076.02.146.041.207s.05.114.085.154a.2.2 0 0 0 .137.067c.055.007.121-.012.197-.057a.78.78 0 0 0 .345-.406c.07-.179.109-.362.119-.554zm3.301.018c-.1.057-.188.093-.264.104s-.142.01-.196-.005a.33.33 0 0 1-.139-.076.52.52 0 0 1-.094-.101v1.696c0 .056-.013.115-.041.174a.26.26 0 0 1-.098.12l-.651.376c-.037.022-.071.02-.098-.008s-.041-.068-.041-.126v-5.218c0-.058.014-.116.041-.175s.061-.099.098-.12l.626-.361c.037-.021.069-.019.097.008s.042.068.042.127v.181l.1-.223c.036-.08.08-.156.136-.234a1.46 1.46 0 0 1 .195-.224c.078-.074.173-.144.287-.209.155-.09.302-.139.439-.146a.49.49 0 0 1 .361.124c.102.09.187.234.251.425s.099.441.106.749l.005.319-.005.326c-.007.317-.042.607-.106.872s-.148.504-.251.714a2.37 2.37 0 0 1-.361.547c-.137.153-.284.274-.439.364zm.232-2.059c.011-.153.011-.302 0-.445-.01-.18-.049-.319-.119-.416s-.184-.101-.345-.008a.71.71 0 0 0-.197.169 1.01 1.01 0 0 0-.137.228 1.55 1.55 0 0 0-.086.251c-.021.086-.034.171-.041.253a3.53 3.53 0 0 0-.009.285l.009.272a.9.9 0 0 0 .041.208c.022.063.05.114.086.154s.082.063.137.067.121-.012.197-.057c.161-.093.276-.23.345-.406s.109-.362.119-.555zm2.608.125c0 .058-.014.117-.041.176s-.06.097-.098.12l-.652.376c-.037.021-.069.019-.097-.007s-.041-.069-.041-.128v-5.218a.41.41 0 0 1 .041-.175.27.27 0 0 1 .097-.12l.652-.376c.038-.021.07-.019.098.006s.041.07.041.128v5.218zm2.259.233a.98.98 0 0 1-.052.156c-.024.056-.057.096-.098.12l-.677.391c-.035.019-.064.019-.088-.004s-.036-.061-.036-.114a.35.35 0 0 1 .005-.059l.392-1.651-1.042-3.128c-.005-.014-.007-.031-.007-.052 0-.053.014-.106.037-.157a.23.23 0 0 1 .088-.107l.676-.391c.042-.023.074-.021.1.009a.22.22 0 0 1 .05.097l.574 1.736.569-2.396a.82.82 0 0 1 .05-.156c.025-.058.057-.097.099-.122l.682-.394c.034-.019.064-.018.088.006s.036.061.036.114a.35.35 0 0 1-.005.059l-1.441 6.043z" class="P"/><path d="M187.782 136.287c6.827-3.92 12.361-.742 12.361 7.098s-5.552 17.384-12.402 21.317-12.383.755-12.36-7.098 5.575-17.397 12.401-21.317z" class="N"/><path d="M212.463 139.029l53.769-31.043c1.448-.836 2.621-.243 2.621 1.325s-1.174 3.517-2.621 4.353l-53.956 31.152c-1.448.836-2.579.218-2.528-1.38s1.268-3.571 2.715-4.407z" class="I"/><path d="M212.463 127.676l62.027-35.809c1.448-.836 2.621-.242 2.621 1.326s-1.173 3.517-2.621 4.352l-62.214 35.917c-1.448.836-2.579.218-2.528-1.381s1.268-3.57 2.715-4.406z" class="J"/><path d="M179.961 259.873l14.313-8.241c1.443-.844 2.62-.174 2.63 1.497l.098 22.273c.01 1.671-1.156 3.704-2.603 4.539l-14.428 8.331c-1.447.835-2.621.158-2.621-1.513l-.001-22.331c0-1.671 1.169-3.711 2.612-4.555z" class="C"/><path d="M209.589 259.839l41.949-24.168c1.447-.836 2.621-.242 2.62 1.326s-1.173 3.517-2.621 4.353l-42.136 24.275c-1.447.836-2.579.218-2.527-1.38s1.267-3.57 2.715-4.406z" class="I"/><path d="M209.589 248.455l53.768-31.044c1.448-.835 2.621-.242 2.621 1.326s-1.173 3.517-2.621 4.353l-53.956 31.152c-1.447.836-2.579.218-2.527-1.38s1.267-3.571 2.715-4.407z" class="J"/><path d="M179.961 299.642l14.313-8.253c1.443-.845 2.62-.174 2.63 1.497l.098 22.408c.01 1.672-1.156 3.704-2.603 4.54l-14.428 8.33c-1.447.836-2.621.159-2.621-1.513l-.001-22.453c0-1.672 1.169-3.711 2.612-4.556z" class="C"/><path d="M209.589 299.731l41.949-24.167c1.447-.836 2.621-.243 2.62 1.326s-1.173 3.516-2.621 4.352l-42.136 24.276c-1.447.836-2.579.218-2.527-1.38s1.267-3.571 2.715-4.407z" class="I"/><path d="M209.589 288.347l53.768-31.044c1.448-.836 2.621-.242 2.621 1.326s-1.173 3.517-2.621 4.352l-53.956 31.153c-1.447.835-2.579.217-2.527-1.381s1.267-3.57 2.715-4.406z" class="J"/><path d="M171.038 186.47l41.829-24.15c1.24-.716 2.245-.208 2.245 1.135s-1.005 3.011-2.244 3.726l-41.83 24.151c-1.239.715-2.244.207-2.244-1.135s1.004-3.011 2.244-3.727z" class="M"/><path d="M171.038 207.682l24.59-14.177c1.24-.716 2.245-.207 2.245 1.135s-1.005 3.012-2.244 3.727l-24.59 14.177c-1.24.716-2.245.207-2.245-1.135s1.004-3.011 2.244-3.727z" class="I"/><g fill="#e09d00"><path d="M168.794 202.204c-.178 0-.353-.093-.448-.26-.144-.248-.059-.565.189-.708l109.477-63.208a.52.52 0 0 1 .708.19c.143.249.059.565-.19.708l-109.477 63.208c-.081.047-.171.07-.259.07z"/><path d="M168.794 221.641c-.178 0-.353-.093-.448-.259-.144-.248-.059-.565.189-.708l109.477-63.208c.247-.143.565-.06.708.189s.059.565-.19.708l-109.477 63.209c-.081.047-.171.069-.259.069z"/></g><path d="M267.45 152.171c1.052-.607 1.905-.114 1.905 1.1s-.857 2.684-1.914 3.282-1.91.105-1.905-1.1.863-2.674 1.914-3.282zm-1.237 6.201c-.358 0-.691-.084-.987-.254-.66-.379-1.028-1.136-1.033-2.13-.009-1.972 1.456-4.424 3.268-5.464l6.43-3.723c.982-.565 1.915-.65 2.621-.24.657.38 1.02 1.135 1.02 2.125 0 2-1.441 4.398-3.28 5.46l-6.403 3.728c-.573.331-1.13.498-1.636.498zm-1.304-2.387c.004.728.242 1.265.674 1.513.474.271 1.167.183 1.907-.243l6.403-3.729c1.612-.93 2.922-3.102 2.922-4.84 0-.724-.235-1.259-.661-1.505-.471-.273-1.165-.186-1.906.24l-6.43 3.723c-1.613.927-2.918 3.098-2.909 4.841zm-93.871 71.127l37.628-21.732c1.239-.716 2.244-.207 2.244 1.135s-1.005 3.012-2.244 3.727l-37.627 21.732c-1.24.716-2.245.207-2.245-1.135s1.004-3.011 2.244-3.727z" class="I"/><path d="M168.794 241.07c-.178 0-.353-.093-.448-.259-.144-.248-.059-.565.189-.707l109.477-63.209a.52.52 0 0 1 .708.19c.143.248.059.565-.19.708L169.053 241c-.081.048-.171.07-.259.07z" fill="#e09d00"/><path d="M266.213 177.802c-.358 0-.691-.084-.987-.254-.66-.379-1.028-1.136-1.033-2.13-.009-1.972 1.456-4.424 3.268-5.464l6.43-3.723c.982-.565 1.915-.65 2.621-.24.657.38 1.02 1.135 1.02 2.125 0 2-1.441 4.398-3.28 5.46l-6.403 3.728c-.573.331-1.13.498-1.636.498z" class="N"/><path d="M274.333 167.577c1.052-.608 1.904-.116 1.904 1.099s-.857 2.684-1.914 3.282-1.91.105-1.905-1.1.863-2.675 1.915-3.281z" class="P"/><path d="M171.038 246.542l24.59-14.177c1.24-.716 2.245-.208 2.245 1.135s-1.005 3.011-2.244 3.727l-24.59 14.177c-1.24.715-2.245.207-2.245-1.135s1.004-3.011 2.244-3.727zm96.412-55.511c1.052-.608 1.905-.115 1.905 1.099s-.857 2.684-1.914 3.282-1.91.105-1.905-1.1.863-2.674 1.914-3.281zm-1.237 6.201c-.358 0-.691-.084-.987-.253-.66-.38-1.028-1.137-1.033-2.131-.009-1.972 1.456-4.424 3.268-5.464l6.43-3.723c.982-.565 1.915-.65 2.621-.24.657.38 1.02 1.134 1.02 2.125 0 1.999-1.441 4.398-3.28 5.46l-6.403 3.728c-.573.331-1.13.498-1.636.498zm-1.304-2.387c.004.728.242 1.265.674 1.513.474.271 1.167.183 1.907-.244l6.403-3.728c1.612-.931 2.922-3.102 2.922-4.84 0-.724-.235-1.258-.661-1.506-.471-.272-1.165-.185-1.906.241l-6.43 3.723c-1.613.927-2.918 3.098-2.909 4.841z" class="I"/><path d="M82.68 94.115c0-2.216-1.555-4.911-3.475-6.019l-2.83-1.633c-1.918-1.108-5.03-1.108-6.949 0l-43.39 25.097c-1.919 1.108-3.475 3.802-3.475 6.018v47.742c0 2.217 1.556 4.911 3.475 6.019l2.83 1.634c1.919 1.108 5.031 1.108 6.95 0l43.39-25.097c1.919-1.107 3.475-3.802 3.475-6.018V94.115z" class="F"/><path d="M22.562 165.32c0 2.216 1.556 4.91 3.475 6.019l2.829 1.633c1.735 1.002 4.434 1.089 6.355.28-1.635.618-2.881-.304-2.881-2.286v-47.742c0-1.108.389-2.336 1.018-3.425l-9.779-5.646c-.629 1.089-1.017 2.317-1.017 3.425v47.742z" class="B Y"/><path d="M82.566 93.127c-.405-1.475-1.751-1.945-3.355-1.021l-43.398 25.103c-.956.551-1.832 1.491-2.448 2.593l-9.775-5.641c.632-1.103 1.491-2.043 2.447-2.594L69.42 86.465c1.929-1.102 5.041-1.102 6.955 0l2.837 1.638c1.637.941 3.015 3.048 3.355 5.025z" class="E Z"/><path d="M71.968 105.458c-2.031-.85-4.375.105-5.223 2.13l-15.076 35.87-3.591-3.492c-1.569-1.53-4.099-1.495-5.639.083-1.53 1.575-1.494 4.104.081 5.638l7.782 7.564c.748.727 1.735 1.127 2.779 1.127a4.08 4.08 0 0 0 .795-.078c1.295-.264 2.373-1.149 2.881-2.362l17.339-41.257c.851-2.03-.104-4.373-2.129-5.223z" class="P"/><path d="M82.68 179.402c0-2.216-1.555-4.911-3.475-6.019l-2.83-1.633c-1.918-1.109-5.03-1.109-6.949 0l-43.39 25.096c-1.919 1.108-3.475 3.803-3.475 6.019v47.741c0 2.217 1.556 4.911 3.475 6.019l2.83 1.634c1.919 1.108 5.031 1.108 6.95 0l43.39-25.097c1.919-1.107 3.475-3.802 3.475-6.018v-47.742z" class="F"/><path d="M22.562 250.607c0 2.216 1.556 4.91 3.475 6.018l2.829 1.634c1.735 1.002 4.434 1.089 6.355.28-1.635.619-2.881-.304-2.881-2.286v-47.742c0-1.108.389-2.336 1.018-3.425l-9.779-5.646c-.629 1.089-1.017 2.317-1.017 3.425v47.742z" class="B Y"/><path d="M82.566 178.414c-.405-1.475-1.751-1.945-3.355-1.021l-43.398 25.103c-.956.551-1.832 1.491-2.448 2.593l-9.775-5.641c.632-1.103 1.491-2.043 2.447-2.594l43.381-25.102c1.929-1.103 5.041-1.103 6.955 0l2.837 1.637c1.637.941 3.015 3.048 3.355 5.025z" class="E Z"/><path d="M71.968 190.745c-2.031-.85-4.375.105-5.223 2.13l-15.076 35.87-3.591-3.492c-1.569-1.53-4.099-1.495-5.639.083-1.53 1.575-1.494 4.105.081 5.638l7.782 7.565c.748.727 1.735 1.127 2.779 1.127a4.08 4.08 0 0 0 .795-.078c1.295-.265 2.373-1.149 2.881-2.363l17.339-41.257c.851-2.03-.104-4.373-2.129-5.223z" class="P"/><path d="M82.68 264.689c0-2.216-1.555-4.91-3.475-6.019l-2.83-1.633c-1.918-1.108-5.03-1.108-6.949 0l-43.39 25.096c-1.919 1.109-3.475 3.803-3.475 6.019v47.742c0 2.216 1.556 4.911 3.475 6.019l2.83 1.634c1.919 1.107 5.031 1.107 6.95 0l43.39-25.098c1.919-1.107 3.475-3.802 3.475-6.017v-47.743z" class="K"/><path d="M22.562 335.894c0 2.216 1.556 4.911 3.475 6.019l2.829 1.634c1.735 1.001 4.434 1.088 6.355.279-1.635.619-2.881-.304-2.881-2.286v-47.742c0-1.108.389-2.335 1.018-3.425l-9.779-5.645c-.629 1.089-1.017 2.316-1.017 3.425v47.741z" class="B Y"/><path d="M82.566 263.702c-.405-1.475-1.751-1.946-3.355-1.021l-43.398 25.102c-.956.551-1.832 1.491-2.448 2.593l-9.775-5.641c.632-1.102 1.491-2.043 2.447-2.594l43.381-25.102c1.929-1.103 5.041-1.103 6.955 0l2.837 1.637c1.637.941 3.015 3.048 3.355 5.026z" class="E Z"/><path d="M476.814 144.518c-4.827-.945-6.278-2.033-11.173-8.546-2.549-3.389-11.793-17.847-12.927-19.563-.504-.762-2.416-3.026-4.088-4.43s-3.244-2.617-4.226-4.134c-1.777-2.746-2.909-6.293-.996-9.448.351-.579.863-1.094.983-1.761.131-.727-.239-1.49-.043-2.202.301-1.091 1.718-1.471 2.293-2.437a1.95 1.95 0 0 0 .06-.11c.404-.802.126-1.764-.159-2.616l-2.327-6.966c-.16-.478-.632-1.138-.473-1.661.088-.29.378-.476.67-.555.898-.241 1.817.315 2.477.97 1.548 1.535 2.495 3.764 3.286 5.755a58.5 58.5 0 0 0 3.199 6.758c.318.574 1.456 2.631 2.19 1.769.592-.694.669-1.688.736-2.545.061-.776.39-1.708.789-2.373.433-.724 1.853-1.897 2.324-.553.098.28.102.582.104.879l.102 4.832c-.005.806-.037 1.611-.096 2.414-.031.416-.069.832-.114 1.248-.03.273-.238.907-.145 1.155-.172 1.198-.405 2.398-.355 3.607.074 1.806.929 2.957 2.108 4.229l1.604 1.7 16.113 18.982 52.806 5.274-10.008 17.843-44.714-7.515z" class="U"/><path d="M525.337 132.666c-7.02-.68-46.606-3.75-46.606-3.75l-9.739-11.473s-3.014 7.452-10.493 7.892c0 0 7.487 12.091 10.274 15.84s3.652 3.364 12.494 4.902l36.306 6.275 7.764-19.686z" class="F"/><path d="M447.675 92.728c1.708.083 3.278.64 3.94 1.592s2.256 4.013 2.494 4.745.376 1.847-.632 2.355c0 0 .187 1.331-1.136 2.097 0 0 .168 1.348-1.203 2.193 0 0-.016 1.245-1.073 1.806 0 0 1.32-.222 1.598-1.591 0 0 1.279-.515 1.159-2.128 0 0 1.324-.61 1.221-1.975 0 0 1.262-.64.961-2.274s-1.467-3.394-2.222-4.687-1.55-2.748-5.107-2.133z" class="V"/><path d="M562.219 345.062c-3.017 1.737-7.741 2.406-11.433 1.002l-2.01-20.619 12.898 1.312.545 18.305zm-37.041-10.793c-2.423 5.677-7.144 4.265-12.519.835l.33-20.008 12.705-.378-.516 19.551z" class="U"/><path d="M540.389 364.544c-.328.327-.162 2.494.227 3.067.418.615 2.768 2.502 6.922 2.675 3.969.166 7.49-.473 9.771-2.019s3.358-3.207 3.51-5.47-.164-4.432.86-6.2l2.793-4.368c.693-1.913-.11-4.595-.11-4.595l-23.973 16.91z" class="D"/><path d="M549.007 344.337l-.048.472c-.211 2.544-.867 5.048-1.917 7.374-.54 1.197-1.187 2.34-1.923 3.427s-1.683 1.939-2.554 2.935c-1.228 1.405-2.256 3.096-2.301 4.935-.076 3.111 3.327 4.067 5.936 4.452 2.786.411 5.74.174 8.423-.675 2.984-.945 5.086-3.342 5.497-6.359.117-.867.038-1.747.114-2.618.174-1.987 1.145-3.826 2.254-5.507.644-.975 1.346-1.929 1.766-3.013.752-1.947.039-4.091-.536-5.991-.497-1.641-1.058-3.498-1.636-3.324.011.491-.085.827-.246 1.277-.155.438-.157.911-.196 1.369a5.95 5.95 0 0 1-.403 1.703c-.072.178-.154.356-.281.499s-.306.252-.499.254l-.059-1.994c-.014-.25-.042-.525-.222-.699-.405-.39-1.251-.094-1.745-.047l-2.377.159a25.51 25.51 0 0 1-4.748-.348c-.473-.08-.982-.169-1.415.039-.602.287-.796.988-.884 1.68z" class="S"/><path d="M492.211 348.043c-.305.689-.173 1.962.237 2.76s4.707 3.054 10.395 2.501 9.534-2.968 11.665-4.471 4.384-1.84 7.202-2.085 6.482-1.763 7.062-3.102-.2-3.591-.2-3.591l-36.361 7.988z" class="D"/><path d="M514.595 329.833l-1.496-.498c-.274-.091-.577-.182-.845-.072-.36.148-.49.582-.576.962-.175.777-.227 1.779-.548 2.495-.291.651-1.03 1.261-1.549 1.727-1.348 1.211-2.91 2.174-4.474 3.076-1.833 1.057-3.633 1.887-5.53 2.809-1.935.941-4.522 1.557-6.026 2.637-2.191 1.574-2.367 5.37.225 6.79 2.237 1.225 8.063 2.451 14.078.553 3.277-1.035 6.84-4.675 11.167-5.144 2.753-.298 7.945-1.228 9.659-3.375.629-.949-.335-3.868-1.131-6.389-.867-2.751-1.296-7.083-2.208-6.811-.037.925-.819 1.482-1.281 2.271-.408.696-.625 1.485-.924 2.234s-.711 1.495-1.383 1.941-1.659.502-2.238-.06c-.838-.814-.401-2.302-1.023-3.291-.421-.671-1.231-.966-1.983-1.217l-1.914-.638z" class="S"/><path d="M557.546 199.99l3.573 69.686c.31 2.7 1.307 9.191 1.8 18.934.714 14.129.238 49.494.238 49.494s-7.542 3.338-13.804.945l-9.509-62.522-6.663-35.153-2.059 29.706s.704 8.493-.479 17.95c-.806 6.443-4.122 38.154-4.122 38.154s-8.054 2.252-14.858.177l-.884-55.398c-.331-6.767-1.745-76.34-1.745-76.34l48.512 4.367z" class="K"/><path d="M533.181 241.374l-3.748-17.731s-5.563.773-10.638-4.053c0 0 1.51 4.346 8.944 6.153l3.752 17.943.373 16.683 1.317-18.995z" class="D"/><path d="M553.444 135.307c4.273.76 4.554 2.876 5.489 7.113.464 2.104 1.5 6.625 1.089 10.414l-3.18 25.049 1.092 28.85c-6.876 7.48-34.368 9.879-49.382-1.086 0 0-2.495-35.632.481-53.713 2.275-13.825 7.612-19.299 16.452-19.268l15.126 1.288 12.833 1.353z" class="C"/><path d="M537.462 101.717a13.43 13.43 0 0 1-13.472 13.38 13.43 13.43 0 0 1-13.381-13.473 13.43 13.43 0 0 1 13.473-13.38 13.43 13.43 0 0 1 13.38 13.473zm4.203 2.623l2.867-7.696s2.344-.394 4.165 1.481c1.784 1.837.764 7.566-1.485 13.173 0 0-2.211 10.214-3.089 11.891s-2.683 2.147-2.683 2.147l.225-20.995z" class="D"/><path d="M541.882 111.752c.82.494 1.998-1.081 3.015-2.137s4.33-2.495 5.969.988c1.669 3.55-1.485 8.222-4.093 9.03-4.493 1.394-5.157-1.488-5.157-1.488l-.398 16.19s-2.964 7.181-10.927 8.232-6.3-5.504-3.676-8.711l.03-4.927s-4.069.603-6.052.29c-3.299-.522-5.367-3.133-6.356-6.71-1.588-5.745-2.183-10.381-.78-21.663 1.538-12.367 15.928-12.446 23.682-7.529s4.743 18.435 4.743 18.435z" class="U"/><path d="M541.798 112.839c1.298-.374 2.244-2.451 3.099-3.224 1.422-1.285-.366-12.971-.366-12.971s1.372-2.898-1.347-5.912c-.99-1.097-2.862-1.767-4.236-2.209-4.197-1.351-8.732-1.001-13.114-.518s-8.847 1.085-13.166.201c-.332-.068-.669-.145-1.006-.105-.931.111-1.547 1.112-1.561 2.051-.028 2.001 1.65 3.896 3.012 5.193 1.496 1.425 3.289 2.54 5.194 3.332 3.265 1.356 6.88 1.854 10.391 1.447a19.95 19.95 0 0 0 4.43-1.03c-.069.024.878 1.408.976 1.522.415.483.899.907 1.432 1.255.525.342 1.117.645 1.725.803.634.165 1.237.084 1.589.767.225.434.244.941.258 1.429l.128 4.293c.021.727.045 1.467.29 2.152s.751 1.316 1.448 1.521c.29.086.564.079.824.004z" class="D"/><path d="M526.645 128.929s7.374-1.459 9.955-2.82c1.727-.91 3.153-2.494 3.573-3.511 0 0-.49 2.185-2.037 4.149-1.893 2.402-11.497 4.143-11.497 4.143l.006-1.961z" class="V"/><path d="M527.736 109.522c-.003.847.656 1.534 1.471 1.535s1.479-.686 1.482-1.533-.656-1.535-1.471-1.536-1.479.686-1.482 1.534zm1.764-4.549l3.271 2.121c.572-.943.303-2.182-.601-2.767s-2.099-.297-2.67.646z" class="D"/><path d="M530.196 118.503L525 120.724c.672 1.45 2.207 2.172 3.815 1.514 1.444-.591 2.054-2.286 1.381-3.735z" class="V"/><path d="M514.195 106.581l3.109-1.885c-.493-.886-1.588-1.181-2.446-.66s-1.155 1.659-.663 2.545zm1.22 2.476c-.003.847.655 1.534 1.471 1.535s1.479-.686 1.482-1.534-.656-1.534-1.471-1.535-1.479.686-1.482 1.534z" class="D"/><path d="M522.962 108.716l-1.259 9.427-4.811-2.073 6.07-7.354z" class="V"/><path d="M479.065 174.229l36.925.272 9.536 41.831-35.075-1.18-11.386-40.923z" class="F"/><path d="M510.383 204.717c-.17.863.47 2.026 2.229 3.35 1.417 1.067 2.416 3.014 4.751 3.431 4.757.85 7.08.05 7.08.05l-1.304-5.72-12.756-1.111zm-20.628-26.725l-.262-1.293c-.145-.715 2.041-1.286 4.883-1.276l5.441.018c2.841.01 5.263.597 5.408 1.311l.262 1.293-15.732-.053z" class="B G"/><path d="M502.362 174.4l4.177.03-.247-.784c-.136-.433-1.275-.812-2.545-.847l-2.298-.064s-.944-3.101-5.731-2.947-4.235 2.954-4.235 2.954l-2.154-.042c-1.189-.024-2.078.319-1.986.764l.175.828 3.721.027c.822.075 1.232.324 1.389 1.093l.346 2.204 8.419.069-.465-2.209c-.107-.608.184-1.062 1.434-1.076z" class="K"/><path d="M489.519 178.178l-.262-1.294c-.145-.714 2.041-1.285 4.883-1.275l5.441.018c2.842.01 5.263.597 5.408 1.311l.262 1.293-15.732-.053z" class="S"/><path d="M520.326 193.484c2.62-.026 6.689.634 8.954.857 1.159.114 2.41.237 3.549-.026.63-.145 2.203-.421 2.776-.726 3.124-1.665 28.662-14.052 28.662-14.052l-8.513-22.852s-3.088-12.561-1.713-20.801c10.811.717 13.022 6.949 16.183 17.471 3.618 12.04 8.279 24.69 9.153 30.675.401 2.746-.588 5.575-6.394 8.242-6.142 2.823-13.068 4.905-33.418 12.11-3.65 1.41-8.683 3.471-11.697 4.135-10.464 2.304-14.796.64-17.15-3.314-.684-1.15-.856-2.462-1.484-3.638-.347-.649-.816-1.25-.989-1.966s.073-1.616.768-1.86c.321-.114.674-.066 1.011-.022 1.697.226 3.386.448 5.08.572 1.976.143 3.862.05 5.817-.151.099-.01.201-.021.29-.067.283-.147.203-.258.031-.339l-.916-4.248z" class="U"/><path d="M553.445 135.307c4.954.309 11.002.243 14.285 8.376 2.921 7.24 5.123 13.186 8.718 24.218 2.773 8.507 5.312 16.685 4.386 19.482s-7.071 5.412-10.523 6.667c-5.16 1.877-20.545 6.723-20.545 6.723-.118-3.676-3.729-8.744-7.074-10.705l20.318-11.075-7.256-20.17s-6.397-10.226-2.309-23.516z" class="F"/><path d="M409.564 179.283c-9.24-.175-11.761 5.542-14.504 13.188-2.639 7.355-4.955 15.918-7.233 20.81-6.985 2.251-19.846 5.581-25.135 5.716-1.012.026-1.99-.333-2.759-.96-2.066-1.684-3.755-2.098-6.007-3.15-1.764-.824-2.448-1.778-2.826-1.481-.487.381-1.095 1.545-.111 2.918.494.691 1.443 1.488 2.67 2.468 0 0-4.143.656-7.645-.664-4.746-1.788-7.295.317-4.546 5.959.984 2.021 5.32 5.543 14.834 5.704 2.741.047 6.685.228 10.142-.141 9.245-.989 19.147-2.223 25.521-3.425 1.608-.303 4.157-1.071 6.483-4.117s11.319-23.784 14.794-32.059l-3.678-10.766z" class="T"/><path d="M447.124 379.296c.254 1.632.763 3.534.944 8.164.194 4.963 1.141 6.708 1.344 10.781.231 4.653-.537 6.411-2.375 9.066s-6.748 5.13-8.933.748c-2.211-4.435-1.973-7.285-1.395-11.867.598-4.735.634-7.345.963-10.955.29-3.181.665-5.601.665-5.601l8.787-.336z" class="K"/><path d="M432.245 340.535l16.35-.625c-.023 10.924-1.394 29.135-1.471 39.386-.014 1.929.35 14.984-.298 18.966-.973 5.984-8.065 5.321-8.512 1.761s.077-18.82.023-20.392c-.07-6.571-3.493-23.657-5.345-35.419-.091-.578-.661-3.114-.747-3.677z" class="T"/><path d="M409.938 371.101s.848.002 1.019.682c.203.81.31 2.101.725 3.427.576 1.842 1.139 4.898.94 6.435s-3.55 3.999-5.905 4.529-5.58 3.065-7.346 4.921c-2.163 2.273-6.975 4.574-10.33 4.735-2.878.138-7.172-.393-8.42-3.47-.35-.863-.351-1.902.153-2.685.513-.797 1.434-1.211 2.295-1.606 1.953-.895 3.851-1.908 5.683-3.03 2.839-1.74 5.508-3.696 7.825-6.09.957-.987 1.826-2.058 2.548-3.23a17.65 17.65 0 0 0 .937-1.734c.094-.199.642-1.82.763-1.834.006-.001 9.113-1.05 9.113-1.05z" class="K"/><path d="M410.351 371.177c.118-3.381 1.412-10.465 3.639-30.477l-15.323-1.09 1.93 29.446c.066 3.383-.457 4.738-1.929 6.543-1.205 1.476-2.538 2.875-3.865 4.246a46.13 46.13 0 0 1-4.315 3.904l-3.4 2.724c-.362.29-.764.692-.644 1.14.092.342.454.53.79.639 1.733.56 3.623.091 5.329-.544 2.656-.989 5.16-2.383 7.406-4.113 1.12-.863 2.054-1.94 3.152-2.811 1.109-.88 2.29-1.701 3.385-2.612 1.783-1.483 4.725-4.831 3.845-6.995z" class="T"/><path d="M434.521 222.585c1.896 2.571 8.115 9.678 10.72 20.991 3.487 15.147 1.46 59.178 1.46 59.178.285 2.716.574 7.76 1.973 19.71 1.653 14.12-.467 30.541-.467 30.541s-8.406 2.491-13.88 0l-7.439-42.617c-1.795-12.245-7.387-42.635-7.387-42.635l-4.023 39.167s.108 6.618.554 13.088c.572 8.295-3.37 32.392-3.37 32.392s-7.964 1.712-13.1 0l-3.914-46.26c-.489-12.005.799-35.786 2.383-54.854.477-5.748 2.545-22.025 3.46-26.96l33.03-1.741z" class="S"/><path d="M419.501 267.753l-1.923-11.584s-6.795.063-13.758-4.144c0 0 4.326 5.631 11.573 6.171l1.274 10.372-.663 33.226 3.497-34.041z" class="D"/><use xlink:href="#B" class="J"/><use xlink:href="#B" x="0.087" y="-0.174" class="E H"/><g class="O H"><path d="M396.61 176.403h17.814c14.359 0 25.999-11.641 25.999-26 0-11.433-9.268-20.702-20.701-20.702h-2.411c-11.433 0-20.701 9.269-20.701 20.702v26z"/><path d="M434.303 129.701l-1.414 5.428c1.515.448 3.06-.403 3.451-1.902s-.522-3.078-2.037-3.526z"/><path d="M438.963 134.648l-5.605.205c.005 1.58 1.265 2.815 2.813 2.759s2.798-1.384 2.792-2.964z"/></g><path d="M404.734 139.538c-2.313 1.367-5.174 7.187-4.891 19.388.239 10.341 3.591 12.895 5.274 13.631s4.928.288 8.084-.237v6.205s-4.361 5.066-4.087 7.912 6.297 3.518 10.379.738 6.697-7.011 6.697-7.011v-16.082s1.725 1.831 4.782-.265c3.043-2.085 3.31-5.981 1.443-8.183-1.324-1.561-4.706-1.676-6.332.756 0 0-4.237-.373-10.938-4.054s-9.494-9.524-10.411-12.798z" class="H T"/><path d="M412.546 156.328c-.038.745.514 1.377 1.231 1.411s1.329-.542 1.366-1.288-.514-1.377-1.231-1.411-1.329.543-1.366 1.288z" class="D H"/><path d="M411.041 165.094l-3.02.963c.25.865 1.129 1.349 1.964 1.084s1.306-1.183 1.056-2.047z" fill="#f28e8e" class="H"/><path d="M401.016 152.336l2.631-1.824c-.48-.751-1.458-.952-2.185-.449s-.926 1.521-.446 2.273zm.607 3.052c-.037.745.514 1.377 1.231 1.41s1.329-.542 1.367-1.287-.514-1.376-1.231-1.411-1.329.542-1.367 1.288z" class="D H"/><path d="M408.841 154.644l-.206 7.828-4.12-1.277 4.326-6.551zm4.36 17.676c3.326-.436 10.167-2.401 11.233-5.106 0 0-.355 1.7-2.399 3.451s-8.834 3.725-8.834 3.725v-2.07z" fill="#f28e8e" class="H"/><path d="M340.076 213.223h-.001c-1.117-.956-1.602-2.65-1.192-4.855.82-4.41 4.915-9.198 9.144-10.692 2.116-.747 3.864-.53 4.981.425l.001.001 81.213 64.274-.007.008c1.728 1.295 2.514 3.729 1.912 6.963-1.147 6.165-6.87 12.857-12.782 14.945-3.102 1.097-5.629.697-7.175-.81l-.017.02-76.077-70.279z" class="O"/><use xlink:href="#C" fill="#26ddbf" class="R"/><use xlink:href="#C" class="B R"/><path d="M326.759 194.155c.497-2.667 2.972-5.561 5.53-6.465 1.279-.451 2.336-.32 3.012.257l.002-.002 15.148 13.145c.676.578.969 1.602.721 2.935-.496 2.668-2.972 5.562-5.529 6.465-1.279.452-2.336.321-3.012-.257l-15.15-13.142c-.676-.578-.969-1.602-.722-2.936z" class="K"/><path d="M332.289 187.69a6.62 6.62 0 0 0-.983.449c-.052.028-.101.067-.153.097a8.55 8.55 0 0 0-.814.534c-.021.016-.039.035-.06.051-1.735 1.326-3.157 3.386-3.52 5.334-.247 1.334.046 2.357.722 2.936l5.073 4.401c1.55-1.245 3.047-2.674 4.394-4.271l12.589 10.232c.812-1.066 1.419-2.264 1.635-3.428.248-1.333-.045-2.357-.721-2.935l.002-.002-15.152-13.141c-.676-.577-1.733-.708-3.012-.257z" fill="#1a5275"/><path d="M352.597 207.024l82.018 66.663c.698-1.431 1.245-2.892 1.511-4.342.599-3.23-.18-5.669-1.92-6.962l.01-.012-81.201-64.267c1.125.962 1.593 2.649 1.188 4.855-.262 1.355-.826 2.743-1.606 4.065z" class="E W"/><path d="M434.214 262.384l.008-.008-6.095-4.823-4.155 2.474c-1.687.961-2.881.969-2.84 1.447.053.615.704 1.781 2.422 1.771.865-.005 3.58-.822 5.101-1.256 0 0-2.788 3.327-5.767 5.909-3.814 3.305-4.163 6.555 2.197 7.567 4.149.659 6.902-1.005 11.077-6.376.512-3.102-.267-5.447-1.948-6.705z" class="B G"/><path d="M372.949 104.674l-.126-2.404-.174-2.346-.165-1.561-.553-3.954-.32-1.755-.339-1.628-1.114-4.284-.64-1.948c-.039-.097-.078-.204-.097-.301l-.698-1.851-.872-2.055-.698-1.444c-.136-.358-.32-.698-.514-1.037l-.659-1.241c-.058-.097-.097-.194-.165-.271l-.63-1.076-.436-.679c-1.056-1.657-2.19-3.169-3.431-4.555l-.63-.717-.543-.562-.697-.698c-.679-.678-1.348-1.289-2.065-1.851l-1.057-.833-1.095-.795-1.774-1.153-.474-.3-.097-.078h-.029l-11.127-6.543h-.039l-.155-.097c-5.176-2.947-11.146-4.478-17.718-4.478-9.237 0-19.666 3.024-30.715 9.392-37.936 21.915-68.709 75.205-68.709 119.035 0 21.856 7.647 37.229 20.005 44.431l.116.058 11.146 6.542c0 .02 0 .02.02.02l.126.077v-.019a2.45 2.45 0 0 1 .164.087c.059.029.117.068.175.097.533.31 1.066.591 1.628.853.679.339 1.376.64 2.075.911.61.262 1.25.504 1.89.698.338.126.668.223 1.008.3a6.95 6.95 0 0 0 1.095.32c.378.116.737.204 1.114.281.281.078.543.136.824.175.475.097.989.203 1.493.261a.99.99 0 0 0 .339.059c.591.097 1.192.184 1.783.242 10.236 1.076 22.138-1.812 34.874-9.16 37.965-21.915 68.738-75.224 68.738-119.034 0-1.057-.019-2.094-.058-3.131zm-125.225 103.41c-1.916-6.633-2.322-13.475-2.322-17.984 0-41.53 30.386-94.171 66.354-114.936 5.842-3.353 11.528-5.707 16.828-6.967 3.041-.729 5.925-1.093 8.664-1.093 1.554 0 3.016.117 4.39.338l.119.047c7.363 8.706 8.446 22.66 8.446 30.116 0 41.53-30.356 94.171-66.334 114.925-9.153 5.28-17.953 8.071-25.502 8.071-1.573 0-3.371-.214-4.638-.595-2.851-3.424-4.757-7.621-6.005-11.922z" class="F"/><path d="M363.125 104.856c0 22.064-8.573 47.251-22.007 69.145a121.28 121.28 0 0 1-1.937 3.084 87.32 87.32 0 0 1-1.727 2.632c-1.26 1.873-2.536 3.721-3.876 5.53l-1.921 2.559-2.147 2.761c-1.381 1.744-2.81 3.439-4.263 5.094a100.92 100.92 0 0 1-2.914 3.237c-7.912 8.509-16.557 15.694-25.55 20.877-1.72.993-3.415 1.897-5.102 2.712-6.176 2.987-12.109 4.755-17.494 5.223-.985.098-1.954.138-2.89.138-.501 0-.977-.008-1.453-.04-.024 0-.032-.009-.057 0a22.8 22.8 0 0 1-2.728-.283c-.444-.065-.88-.138-1.3-.234a12.9 12.9 0 0 1-1.251-.307c-6.496-1.762-9.799-5.71-10.778-6.975 1.268.38 3.06.589 4.634.589 7.548 0 16.348-2.785 25.502-8.065 35.98-20.755 66.334-73.399 66.334-114.926 0-7.46-1.082-21.41-8.444-30.12l-.121-.04c9.381 1.502 14.717 7.879 17.72 15.25.864 2.091 1.534 4.27 2.051 6.434.024.121.056.242.08.363.097.396.194.8.266 1.195l.227 1.162c.024.089.04.194.056.299.081.42.153.831.218 1.235.234 1.542.428 3.043.557 4.48l.097 1.211c.032.299.049.606.065.896.007.121.016.25.016.371l.056.953c.008.088.008.169.008.266.025.396.033.791.041 1.171.024.742.032 1.453.032 2.123z" class="O"/><g class="E"><path d="M265.301 224.329c2.739 0 5.624-.364 8.664-1.093 5.301-1.261 10.987-3.614 16.829-6.967 35.968-20.765 66.354-73.406 66.354-114.936 0-4.509-.406-11.351-2.322-17.984-1.611-5.56-4.302-10.985-8.753-14.722-.141-.053-.284-.103-.427-.153a21.76 21.76 0 0 0-1.195-.386l-.716-.198c-.405-.103-.823-.192-1.245-.276-.244-.048-.483-.103-.733-.145-.026-.004-.054-.006-.081-.01l.08.026c7.362 8.711 8.444 22.661 8.444 30.121 0 41.527-30.354 94.171-66.334 114.927-9.154 5.28-17.954 8.065-25.502 8.065-1.574 0-3.366-.21-4.634-.589l.068.085c.824.98 1.714 1.904 2.704 2.736 2.541.958 5.457 1.499 8.799 1.499z" fill-opacity=".6"/><path d="M352.986 63.377l-.097-.081h-.032l-11.124-6.539h-.041l-.153-.097c-5.175-2.947-11.149-4.481-17.72-4.481-9.236 0-19.666 3.019-30.717 9.389-21.03 12.15-39.855 33.939-52.449 58.416l.08.047-.082-.047c-10.131 19.666-16.262 41.085-16.262 60.632 0 21.817 7.644 37.185 20.005 44.41l10.315 6.068c-11.903-7.405-19.177-22.566-19.177-43.945 0-19.42 6.637-40.464 16.679-60.022 12.633-24.116 31.315-45.942 52.055-59.012 18.834-11.867 36.707-12.029 49.188-4.44l-.468-.299z" class="W"/></g><path d="M459.456 229.34c-.938-8.614-7.379-28.096-8.99-35.138-1.841-8.043-5.139-12.221-12.953-13.214-3.922.977-5.784 13.707-.671 22.031 1.837 5.915 9.229 24.892 9.229 24.892-.418 1.465-8.687 19.961-11.758 24.698-.543.84-1.396 1.429-2.361 1.694-2.587.712-5.819 2.966-7.974 4.194-1.688.962-2.882.97-2.841 1.448.053.615.704 1.78 2.422 1.77.865-.005 3.58-.822 5.101-1.256 0 0-2.788 3.328-5.767 5.909-3.813 3.305-4.163 6.556 2.198 7.567 4.811.765 7.741-1.584 13.197-9.234 1.572-2.204 3.438-5.59 5.349-8.439 4.829-7.199 7.642-10.071 10.384-14.726 4.324-7.34 5.797-8.874 5.435-12.196z" class="T"/><path d="M49.37 313.553c.466 0 .831-.377 1.083-.723.458-.63.741-1.915-.066-2.218-.173-.066-.384-.085-.583-.125l-5.358-1.001-1.182-.231c-1.08-.169-.73-.206-1.117-.296.042-.18.878-1.227 1.089-1.463l7.014-8.337c.453-.577.807-1.065.807-1.941 0-.976-.961-.886-1.502-.365-.125.121-.164.198-.273.316l-.845.961c-.051.058-.086.081-.137.139l-1.376 1.646c-.058.07-.096.095-.151.163l-2.165 2.625-1.099 1.296-1.699 1.913-1.082 1.313c-.546.733-1.022 1.386-1.324 2.288-.19.567-.291 1.44-.04 2.033.267.631.97.546 1.763.632.812.089 3.101.584 4.048.742l3.089.522c.346.048.697.111 1.106.111zm14.367-22.657c0 .413.154.795.417.957.401.245 2.758.662 3.334.787l4.452 1.044-6.45 8.037c-.657.812-1.832 2.048-1.832 2.997 0 .875.537 1.139 1.123.81.178-.101.318-.262.447-.417l1.405-1.658 1.512-1.864 3.509-4.384 1.395-1.706c.617-.692 1.194-1.355 1.36-2.291.107-.602.121-1.49-.124-1.947-.138-.256-.378-.367-.711-.428l-4.694-.958-2.784-.592c-.828-.171-.93-.333-1.495.042a1.98 1.98 0 0 0-.863 1.571zm-11.934 23.167c1.129.263 1.316.307 1.937-.929l.659-1.579.612-1.587.628-1.609.942-2.357.153-.396c.058-.164.113-.266.172-.417l5.03-12.717.662-1.576c.265-.672.471-1.145.471-1.964 0-.284-.303-.825-.511-.825h-.157c-.649 0-1.382 1.749-1.661 2.304s-.583 1.431-.828 2.038l-1.772 4.471-2.125 5.335-.645 1.632-2.327 5.684c-.4.952-.97 2.42-1.145 3.41-.121.689-.095.363-.095 1.082zm-9.734 15.433c0 .265.079.719.267.871.361.293 1.322-.15 1.468-.511.748-1.857.867-3.501 1.327-5.387l.26-.996.637-1.798a11.67 11.67 0 0 1 .862-1.612c.585-.872.591-.755 1.074-1.36.507-.636.897-.809.897-1.773 0-.372-.125-.678-.196-.982-.938.219-1.289.53-1.953 1.188l-.295.334c-.222.239-.354.443-.551.705-.357.477-.67 1.027-.968 1.545l-.218.409c-.844 1.569-1.468 3.268-1.903 5.008l-.435 2.078c-.097.487-.271 1.766-.271 2.281zm23.356-21.637c0 .47.194.815.572.959.199.076.452.064.656.09.359.045.316.007.604.142 2.014.941 1.9 4.35 2.382 5.824.05.153.171.432.182.564.317 0 .497-.109.721-.222 1.663-.835 1.062-3.772.629-5.055l-.112-.36c-.286-.859-.709-1.858-1.254-2.554l-.449-.493-.28-.231c-1.879-1.354-3.651.291-3.651 1.336zm-16.369-20.105c0 .847.645.55 2.002.55 1.405 0 2.245 1.162 2.439 2.311.048.282.223 1.105.505 1.105.655 0 1.177-.965 1.177-1.649 0-.897-.57-1.967-1.027-2.586l-.32-.426c-.639-.761-2.504-1.039-3.349-.822-.413.107-.703.238-.948.505-.198.215-.48.618-.48 1.012zm10.756-.039c0 .995 1.065 1.479 1.476-.173l.364-1.52c.368-1.189 1.305-3.057 2.174-3.912.225-.222.315-.39.713-.701l.534-.408c.347-.266.772-.599.74-1.134-.011-.181-.088-.658-.152-.791-.789.017-1.718.788-2.268 1.344-.295.298-.748.899-1.001 1.236l-.193.279-.358.545c-.615 1.035-1.397 2.512-1.723 3.695-.105.378-.305 1.068-.305 1.54z" fill-rule="evenodd" stroke="#e09d00" stroke-width=".353" stroke-miterlimit="22.9256" class="N"/><defs><path id="B" d="M400.142 210.638c.178 3.414 1.349 13.688 1.349 13.688 13.933 9.433 33.344-1.29 33.344-1.29l5.022-20.456s-9.167-10.868-2.344-21.592l-11.379-1.714-12.718-.166-3.852.175c-4.256 3.122-10.797 9.976-12.164 13.475-1.395 3.572-3.449 10.59 2.742 17.88z"/><path id="C" d="M348.028 197.675c4.23-1.494 6.994.87 6.173 5.28s-4.915 9.198-9.145 10.693-6.994-.87-6.173-5.28 4.915-9.198 9.145-10.693z"/></defs></svg>