<svg xmlns="http://www.w3.org/2000/svg" xmlns:v="https://vecta.io/nano" width="657" height="556" fill="none"><style><![CDATA[.B{fill:#f4b41a}.C{fill:#f2c459}.D{fill:#2c3c43}.E{fill:#00b3a9}.F{fill:#fefefe}.G{fill:#143e59}.H{fill:#f7f7f6}.I{fill:#f69fa5}.J{stroke-width:.2}.K{stroke-miterlimit:22.9256}.L{fill:#d9dad9}.M{fill:#efefef}.N{fill:#ebab17}.O{fill:#384e55}.P{fill:#e5e6e5}.Q{fill:#42616a}]]></style><path d="M560.142 500.33c-64.04 36.786-147.964 55.188-231.898 55.207h-.242c-83.934-.018-167.858-18.419-231.896-55.205C32.035 463.526 0 415.287 0 367.048s32.035-96.477 96.106-133.281c128.141-73.61 335.897-73.61 464.037-.003s128.141 192.956-.001 266.566z" class="M"/><path d="M365.548 367.052c-26.926-15.545-70.579-15.545-97.505 0-22.823 13.177-26.29 33.292-10.42 48.584-.917.262-1.793.598-2.566 1.043l-85.061 49.11c-3.61 2.085-3.61 5.465 0 7.55l5.324 3.075c3.612 2.084 9.367 1.923 12.856-.361l79.221-51.847a7.87 7.87 0 0 0 .91-.717c26.945 15.398 70.401 15.351 97.241-.144 26.924-15.544 26.924-40.747 0-56.293zm189.265-56.543L446.46 373.211c-2.406 1.39-6.307 1.39-8.714 0L249.251 264.373c-2.407-1.388-2.407-3.643 0-5.031l108.355-62.704c2.407-1.388 6.307-1.388 8.714 0l188.493 108.84c2.408 1.39 2.408 3.641 0 5.031zM72.311 429.083l-28.985-16.735c-3.506-2.024-3.506-5.306 0-7.329l201.66-116.429c3.506-2.024 9.189-2.024 12.694 0l28.985 16.734c3.506 2.025 3.506 5.305 0 7.329L85.006 429.083c-3.506 2.023-9.19 2.023-12.694 0zm444.932 24.715c20.91 11.428 54.814 11.428 75.725 0s20.912-29.954 0-41.381-54.815-11.426-75.725 0-20.913 29.955 0 41.381z" fill="#e0e1e0"/><path d="M578.547 404.044c.522-6.488 6.296-19.55 13.705-27.434s18.491-13.19 25.804-10.013c6.809 2.958 5.312 12.085-3.674 17.49s-22.374 12.025-26.957 22.249l-8.878 12.283v-14.575z" class="E"/><path d="M578.547 418.619v-14.575c.522-6.488 6.296-19.55 13.704-27.434 5.919-6.295 14.179-10.948 20.991-10.948 1.716 0 3.341.294 4.814.935 2.853 1.239 4.248 3.561 4.245 6.239-.004 3.713-2.697 8.11-7.919 11.251-8.987 5.404-22.374 12.025-26.957 22.249l-8.878 12.283z" stroke="#f4b41a" class="B J K"/><path d="M577.354 412.882c.208 0 .4-.137.459-.347 6.126-21.797 25.49-38.358 36.533-41.473a.48.48 0 0 0 .328-.588.47.47 0 0 0-.586-.328c-11.255 3.175-30.973 20.004-37.192 42.132-.071.253.077.515.329.587l.129.017z" class="F"/><path d="M579.517 427.326c1.336-3.563 6.274-9.225 13.879-13.616 8.413-4.858 18.704-6.576 21.372-10.67 3.207-4.919-.736-10.125-9.006-9.767s-23.562 10.369-27.215 27.002l.97 7.051z" class="C"/><path d="M578.24 423.371a.48.48 0 0 0 .435-.281c8.318-18.428 23.329-23.923 30.103-24.255.263-.013.465-.235.452-.498a.47.47 0 0 0-.497-.452c-7.493.367-22.436 6.005-30.926 24.814-.107.239 0 .522.239.629l.194.043z" class="F"/><path d="M45.716 367.857s-1.532-13.474-8.235-23.933-15.913-16.984-24.505-17.665-15.534 7.227-6.34 12.656 25.531 10.971 33.049 31.277l6.031-2.335z" class="E"/><path d="M39.684 370.192c-7.518-20.306-23.854-25.847-33.049-31.277-3.084-1.82-4.353-3.919-4.353-5.88.001-3.649 4.392-6.817 9.654-6.817a13.48 13.48 0 0 1 1.038.041c8.593.681 17.802 7.208 24.505 17.665s8.235 23.933 8.235 23.933l-6.031 2.335z" stroke="#f4b41a" class="B J K"/><path d="M43.197 364.358l.09-.028c.235-.094.349-.362.253-.596-9.068-22.334-26.332-31.659-34.194-33.47a.46.46 0 0 0-.55.345c-.057.247.096.494.344.549 7.702 1.774 24.624 10.938 33.55 32.92a.46.46 0 0 0 .508.28z" class="F"/><path d="M1.985 364.27c.828 1.864 2.863 2.836 4.758 3.598 1.884.756 3.948 1.582 4.971 3.347 2.063 3.56-1.323 8.567.89 12.036.929 1.454 2.657 2.219 4.355 2.524 1.412.264 2.848.262 4.28.383.689-.016 1.37-.065 2.034-.159 1.963-.285 4.094-.377 5.893.629 2.83 1.59 3.699 5.164 5.418 7.92 2.061 3.3 5.706 5.46 9.534 5.982 1.272.167 3.638.396 4.934-.327l.268-.17.024-.023c.178-.201.401-.457.497-.596l.05-.083c.502-1.847-.317-3.769-.35-5.676l.003-.346.193-6.635c.105-4.07.149-8.148.122-12.221-.029-2.646.29-5.543-.829-8.035-1.24-2.741-4.322-2.802-5.487-5.49-.467-1.072-.715-2.223-1.166-3.306-1.348-3.178-4.614-5.465-8.07-5.634-5.381-.273-10.21 4.084-15.585 3.688-1.393-.109-2.749-.533-4.121-.785-4.358-.817-9.396.425-11.847 4.113-1.025 1.541-1.52 3.574-.771 5.266z" class="C"/><g class="F"><path d="M50.333 390.854l.036-.007a.46.46 0 0 0 .324-.563c-7.434-27.895-36.826-31.926-43.702-31.43-.249.02-.443.239-.425.491a.46.46 0 0 0 .492.425c6.726-.486 35.475 3.458 42.751 30.751.062.234.292.376.525.333z"/><path d="M17.677 376.719l.242-.129c.074-.073 7.569-7.465 20.003-5.633.25.034.485-.137.521-.388a.46.46 0 0 0-.387-.521c-12.913-1.898-20.71 5.818-20.789 5.897a.46.46 0 0 0 .411.774z"/></g><path d="M550.792 290.203L446.094 350.79c-2.325 1.342-6.096 1.342-8.421 0L255.538 245.625c-2.325-1.343-2.325-3.52 0-4.863l104.701-60.587c2.324-1.341 6.093-1.341 8.42 0l182.133 105.167c2.324 1.342 2.324 3.519 0 4.861z" class="G"/><path d="M494.851 317.991c-3.23 1.866-8.465 1.866-11.695 0s-3.229-4.886 0-6.75 8.465-1.865 11.695 0 3.229 4.887 0 6.75z" class="D"/><path d="M446.093 350.79l104.699-60.586c2.078-1.201 2.294-3.065.655-4.408 2.011 1.528 3.554 4.412 3.554 6.838v3.958c0 2.686-1.885 5.95-4.209 7.293l-104.699 60.586c-1.161.671-2.687 1.007-4.21 1.007v-13.681c1.523 0 3.049-.336 4.21-1.007z" fill="#1c567a"/><path d="M255.54 259.305c-2.325-1.342-4.21-4.608-4.21-7.292v-3.959c0-2.426 1.546-5.314 3.56-6.839-1.644 1.342-1.432 3.208.65 4.41L437.673 350.79c1.162.672 2.687 1.007 4.21 1.007v13.681c-1.523 0-3.048-.336-4.21-1.007L255.54 259.305z" fill="#082e45"/><path d="M428.61 338.097l98.75-57.159c1.394-.806 1.394-2.111 0-2.917l-145.961-84.419c-1.395-.806-3.657-.806-5.052 0l-98.786 57.147c-1.394.808-1.394 2.112 0 2.917l145.996 84.431c1.395.806 3.657.806 5.053 0z" class="H"/><path d="M292.82 253.333l47.224 27.282c1.751 1.011 4.594 1.011 6.347 0l82.965-47.9c1.755-1.011 1.755-2.651.001-3.664l-47.222-27.283c-1.753-1.014-4.595-1.014-6.347 0l-82.968 47.9c-1.753 1.011-1.753 2.652 0 3.665z" class="P"/><path d="M327.508 240.292l12.118 2.372c.762.149 1.607.073 2.253-.207l10.255-4.418c1.629-.702 3.943-.021 3.918 1.153l-.164 7.387c-.01.466.376.904 1.035 1.172l10.447 4.268c1.659.677 1.255 2.159-.686 2.506l-12.22 2.193c-.77.139-1.374.487-1.613.932l-3.798 7.054c-.604 1.121-3.171 1.356-4.345.397l-7.388-6.03c-.464-.381-1.225-.605-2.031-.6l-12.795.095c-2.032.015-3.212-1.322-1.996-2.262l7.652-5.92c.482-.374.615-.86.358-1.302l-4.111-6.996c-.652-1.111 1.186-2.173 3.111-1.794zm26.951-15.449l25.964-14.989c1.051-.607 2.574-.713 3.399-.235s.644 1.358-.407 1.964l-25.965 14.99c-1.051.608-2.574.713-3.4.235s-.642-1.358.409-1.965zm6.542 3.782l25.964-14.991c1.051-.606 2.573-.712 3.399-.234s.644 1.357-.407 1.964l-25.964 14.991c-1.052.607-2.574.712-3.401.233s-.642-1.356.409-1.963zm6.542 3.781l25.963-14.991c1.052-.607 2.574-.711 3.4-.235s.644 1.358-.409 1.966l-25.961 14.99c-1.052.606-2.576.712-3.402.233s-.642-1.356.409-1.963zm6.542 3.78l25.963-14.989c1.052-.607 2.574-.713 3.4-.235s.644 1.357-.408 1.964l-25.963 14.99c-1.052.608-2.573.713-3.401.234s-.642-1.357.409-1.964zm6.54 3.78l25.965-14.989c1.052-.607 2.574-.712 3.4-.234s.644 1.357-.409 1.965l-25.963 14.99c-1.05.607-2.572.711-3.4.233s-.642-1.357.407-1.965zm6.544 3.781l25.963-14.99c1.052-.607 2.574-.711 3.4-.234s.644 1.357-.408 1.966l-25.963 14.989c-1.051.607-2.574.711-3.399.233s-.646-1.356.407-1.964z" class="H"/><path d="M351.076 286.985l2.152 1.243c1.052.607 2.756.606 3.809-.002l49.775-28.741c1.052-.609 1.052-1.592 0-2.2l-2.15-1.241c-1.052-.606-2.757-.606-3.808 0l-49.78 28.744c-1.051.607-1.051 1.592.002 2.197zm89.316-51.566l2.146 1.24c1.051.606 1.051 1.591 0 2.199l-20.012 11.552c-1.05.608-2.757.608-3.807 0l-2.147-1.24c-1.053-.607-1.053-1.592 0-2.199l20.01-11.552c1.053-.607 2.758-.607 3.81 0z" class="L"/><path d="M364.318 294.594l47.223 27.282c1.754 1.014 4.596 1.014 6.347 0l82.969-47.899c1.751-1.011 1.751-2.651 0-3.663l-47.223-27.285c-1.753-1.011-4.595-1.011-6.348 0l-82.968 47.901c-1.751 1.011-1.751 2.653 0 3.664z" class="P"/><path d="M399.007 281.554l12.117 2.372c.765.151 1.607.073 2.254-.205l10.255-4.419c1.629-.701 3.945-.02 3.917 1.153l-.163 7.387c-.011.465.378.904 1.036 1.173l10.447 4.266c1.66.677 1.252 2.159-.688 2.508l-12.22 2.193c-.77.138-1.372.487-1.614.931l-3.796 7.055c-.602 1.12-3.169 1.354-4.344.397l-7.388-6.032c-.467-.381-1.226-.604-2.032-.598l-12.794.095c-2.033.015-3.213-1.323-1.998-2.263l7.653-5.92c.482-.374.616-.861.358-1.301l-4.11-6.996c-.653-1.111 1.185-2.172 3.11-1.796zm26.951-15.449l25.962-14.989c1.053-.607 2.576-.711 3.402-.233s.643 1.355-.409 1.964l-25.963 14.989c-1.053.608-2.574.711-3.401.235s-.643-1.357.409-1.966zm6.542 3.782l25.963-14.991c1.052-.607 2.575-.711 3.4-.233s.644 1.358-.409 1.964l-25.963 14.99c-1.052.607-2.573.713-3.399.235s-.644-1.358.408-1.965zm6.542 3.781l25.964-14.99c1.051-.608 2.574-.712 3.4-.235s.643 1.358-.409 1.965l-25.963 14.989c-1.052.607-2.574.713-3.399.235s-.646-1.357.407-1.964zm6.542 3.781l25.964-14.99c1.051-.607 2.574-.712 3.399-.233s.642 1.356-.409 1.962l-25.963 14.992c-1.052.606-2.574.711-3.4.234s-.643-1.357.409-1.965zm6.542 3.781l25.964-14.991c1.05-.607 2.573-.711 3.4-.233s.642 1.356-.408 1.964l-25.964 14.99c-1.053.607-2.574.712-3.401.234s-.644-1.357.409-1.964zm6.542 3.78l25.963-14.99c1.051-.608 2.574-.711 3.401-.234s.642 1.358-.408 1.964l-25.964 14.99c-1.051.608-2.574.712-3.401.235s-.643-1.358.409-1.965z" class="H"/><path d="M422.575 328.248l2.152 1.242c1.051.607 2.757.607 3.808 0l49.775-28.744c1.053-.606 1.053-1.591 0-2.198l-2.15-1.242c-1.051-.607-2.756-.607-3.807 0l-49.778 28.744c-1.053.607-1.053 1.59 0 2.198zm89.314-51.567l2.148 1.239c1.051.608 1.051 1.592-.001 2.199l-20.009 11.552c-1.053.608-2.758.608-3.81 0l-2.147-1.239c-1.051-.608-1.051-1.591.001-2.198l20.012-11.553c1.051-.607 2.756-.607 3.806 0z" class="L"/><path d="M316.741 215.001c-.711.412-1.868.412-2.58 0s-.712-1.079 0-1.49 1.869-.411 2.58 0 .714 1.08 0 1.49zm-4.123 11.703c-1.425.822-3.736.822-5.161 0s-1.427-2.158 0-2.98 3.736-.824 5.161 0 1.426 2.156 0 2.98zm3.64-5.186c-.952-.55-.9-1.468.112-2.053l16.978-9.801c1.013-.586 2.605-.615 3.554-.066s.901 1.466-.112 2.052l-16.979 9.801c-1.013.586-2.605.615-3.553.067z" class="D"/><path d="M275.156 78.115v3.444L87.791 189.739c-.88.513-1.656 1.363-2.242 2.36s-.939 2.125-.939 3.137v209.468c0 11.389-8.003 16.007-17.854 10.304-9.865-5.687-17.867-19.539-17.867-30.929V174.611c0-1.011.351-2.14.937-3.137s1.364-1.861 2.243-2.36L244.475 58.018c.572.982.91 2.126.91 3.152l.012 3.196L58.006 172.779c-.821.469-1.568 1.275-2.125 2.199-.645 1.026-1.041 2.228-1.041 3.298v209.248c0 7.594 5.336 16.813 11.917 20.61 6.567 3.796 11.903.718 11.903-6.875V191.791c0-1.011.352-2.125.923-3.122.588-.997 1.378-1.876 2.259-2.375l192.435-111.11c.542.938.88 1.993.88 2.931zm-17.87-10.085v10.085L75.874 182.863c-.88.499-1.656 1.364-2.243 2.36s-.938 2.126-.938 3.137v209.468c0 3.797-2.653 5.336-5.937 3.43-3.298-1.891-5.951-6.508-5.951-10.304V181.486c0-1.012.352-2.14.924-3.137.601-.997 1.378-1.847 2.243-2.36L256.391 64.893c.557.982.895 2.111.895 3.137z" class="L"/><path d="M91.485 195.543c-.571.982-.923 2.111-.923 3.122V406.33a33.87 33.87 0 0 1-.292 4.515l-.176 1.144-.206 1.04-.235.908-.233.851c-1.291 4.002-3.504 6.933-6.392 8.588-4.265 2.45-9.981 2.157-16.271-1.478-13.163-7.595-23.82-26.884-23.82-43.067V171.166c0-1.013.352-2.14.924-3.123l5.966 3.431c-.587.996-.937 2.126-.937 3.137v209.468c0 11.389 8.002 25.241 17.867 30.929 9.851 5.702 17.854 1.085 17.854-10.305V195.235c0-1.011.352-2.14.939-3.137l5.936 3.445zm-11.903-6.874c-.571.996-.923 2.11-.923 3.122v209.468c0 7.593-5.335 10.671-11.903 6.875-6.582-3.797-11.917-13.016-11.917-20.61V178.276c0-1.07.397-2.272 1.041-3.298l5.849 3.371c-.572.997-.923 2.126-.923 3.137v209.468c0 3.797 2.653 8.414 5.951 10.305 3.284 1.906 5.937.367 5.937-3.43V188.361c0-1.012.353-2.14.938-3.137l5.951 3.445z" class="P"/><path d="M244.475 58.018L52.069 169.114c-.879.499-1.657 1.364-2.243 2.36l-5.966-3.43c.571-.996 1.363-1.861 2.243-2.375L236.236 55.893c1.761-1.012 4.516-1.07 6.158-.117.82.469 1.538 1.29 2.081 2.242zm41.674 24.053v.016L93.743 193.168c-.879.513-1.672 1.378-2.258 2.375l-5.936-3.445c.586-.997 1.362-1.847 2.242-2.36L278.145 79.83c1.745-.894 4.296-.909 5.864-.029l.057.029.309.191c.69.484 1.304 1.216 1.774 2.051zm-29.758-17.177L63.972 175.989c-.865.514-1.642 1.364-2.243 2.36l-5.849-3.371c.558-.924 1.304-1.73 2.125-2.199L245.397 64.366l2.756-1.598c1.761-1.011 4.515-1.07 6.158-.118.805.47 1.538 1.292 2.08 2.244zm17.885 10.289L81.841 186.293c-.88.499-1.671 1.378-2.259 2.375l-5.951-3.445c.587-.996 1.363-1.861 2.243-2.36L266.023 73.072c1.759-1.011 4.5-1.055 6.157-.103.821.469 1.568 1.276 2.096 2.214z" class="H"/><path d="M287.058 85.222v207.667c0 8.517-2.946 14.483-7.666 17.121L82.746 423.534c3.107-1.804 5.72-4.949 6.906-9.597.088-.292.162-.6.235-.907l.206-1.041.176-1.144c.191-1.421.292-2.917.292-4.516V198.666c0-1.012.352-2.141.923-3.123.586-.996 1.378-1.862 2.258-2.374L286.149 82.088c.572.982.909 2.111.909 3.135z" class="M"/><path d="M111.604 196.612l29.378-16.961c1.753-1.012 3.174-.192 3.174 1.832v40.796c.001 2.024-1.421 4.486-3.174 5.497l-29.378 16.961c-1.753 1.013-3.174.192-3.174-1.832v-40.796c0-2.024 1.421-4.484 3.174-5.497z" class="G"/><path d="M108.43 260.32l160.766-92.819v6.877L108.43 267.196v-6.876z" class="E"/><path d="M108.43 267.196v-6.876l160.766-92.819v6.877L108.43 267.196z" class="B"/><path d="M110.335 279.847l31.917-18.427c1.052-.607 1.905-.115 1.905 1.099v64.356c0 1.215-.853 2.691-1.905 3.298l-31.917 18.429c-1.051.607-1.904.114-1.904-1.1l-.001-64.357c0-1.214.854-2.69 1.905-3.298zm0 75.63l31.917-18.428c1.052-.607 1.905-.114 1.905 1.1v50.361l-35.726 20.626-.001-50.36c0-1.216.854-2.692 1.905-3.299zm41.68-99.693l31.917-18.428c1.052-.608 1.906-.115 1.906 1.1v84.983c0 1.214-.854 2.692-1.906 3.298l-31.917 18.427c-1.051.607-1.903.117-1.903-1.099l-.001-84.983c0-1.216.853-2.692 1.904-3.298zm41.681-24.066l31.917-18.427c1.053-.607 1.904-.116 1.904 1.1v64.357c0 1.214-.851 2.69-1.904 3.298l-31.917 18.427c-1.051.608-1.904.115-1.904-1.099v-64.358c0-1.214.853-2.691 1.904-3.298zm41.681-24.064l31.916-18.427c1.052-.607 1.905-.115 1.905 1.099v84.985c0 1.214-.853 2.691-1.905 3.298l-31.916 18.429c-1.053.606-1.904.114-1.904-1.1l-.002-84.986c0-1.214.853-2.69 1.906-3.298zm-83.362 144.385l31.917-18.427c1.052-.606 1.906-.115 1.906 1.099v29.735l-35.725 20.626v-29.734c0-1.214.851-2.691 1.902-3.299zm39.777-41.391v50.361l35.725-20.628V290.02c0-1.213-.853-1.706-1.906-1.098l-31.917 18.428c-1.05.607-1.902 2.084-1.902 3.298zm43.584-6.737l31.917-18.426c1.051-.608 1.904-.115 1.904 1.1v29.733l-35.726 20.626v-29.735c0-1.213.852-2.689 1.905-3.298z" fill="#eaeae9"/><g class="L"><path d="M157.969 355.497l20.009-11.552c1.052-.608 1.904-.116 1.904 1.099v16.23c0 1.213-.852 2.69-1.904 3.298l-20.01 11.552c-1.051.607-1.903.114-1.903-1.099v-16.23c0-1.214.853-2.691 1.904-3.298zm83.362-48.127l20.008-11.552c1.052-.608 1.905-.116 1.905 1.098v16.231c0 1.214-.853 2.69-1.905 3.298l-20.009 11.552c-1.053.607-1.904.115-1.904-1.099l.001-16.229c0-1.214.852-2.692 1.904-3.299zM116.29 283.285l20.009-11.552c1.051-.609 1.903-.116 1.903 1.099v16.23c0 1.214-.852 2.69-1.903 3.298l-20.01 11.551c-1.052.609-1.904.116-1.904-1.099v-16.229c0-1.213.854-2.691 1.905-3.298zm-.636 24.434l21.279-12.286c.701-.405 1.269-.075 1.269.734v.505c0 .81-.568 1.795-1.269 2.199l-21.279 12.285c-.7.405-1.269.077-1.269-.732v-.506c0-.81.568-1.796 1.269-2.199zm0 6.875l21.279-12.285c.701-.406 1.269-.078 1.269.733v.505c0 .811-.568 1.794-1.269 2.199l-21.279 12.285c-.7.404-1.269.076-1.269-.733v-.505c0-.811.568-1.796 1.269-2.199zm0 6.875l21.279-12.285c.701-.405 1.269-.078 1.269.733v.505c0 .811-.568 1.795-1.269 2.199l-21.279 12.285c-.7.405-1.269.076-1.269-.733v-.506c0-.81.568-1.793 1.269-2.198zm0 6.873l21.279-12.284c.701-.404 1.269-.078 1.269.733v.506c0 .811-.568 1.794-1.269 2.199l-21.279 12.285c-.7.405-1.269.076-1.269-.733v-.507c0-.81.568-1.793 1.269-2.199zm0 6.876l21.279-12.285c.701-.405 1.269-.078 1.269.733v.505c0 .81-.568 1.795-1.269 2.199l-21.279 12.285c-.7.405-1.269.077-1.269-.733v-.505c0-.809.568-1.794 1.269-2.199zm42.315-75.997l20.009-11.554c1.052-.607 1.904-.114 1.904 1.099v16.23c0 1.215-.852 2.691-1.904 3.298l-20.01 11.553c-1.051.608-1.903.115-1.903-1.1v-16.228c0-1.215.853-2.691 1.904-3.298zm-.636 24.432l21.279-12.285c.701-.404 1.27-.076 1.27.733v.507c0 .809-.569 1.794-1.27 2.199l-21.278 12.283c-.7.407-1.269.078-1.269-.732v-.506c0-.809.567-1.793 1.268-2.199zm0 6.877l21.279-12.287c.701-.405 1.27-.077 1.27.732v.508c0 .809-.569 1.794-1.27 2.199l-21.278 12.285c-.7.404-1.269.076-1.269-.733v-.507c0-.81.567-1.794 1.268-2.197zm0 6.874l21.279-12.285c.701-.406 1.27-.077 1.27.733v.506a2.81 2.81 0 0 1-1.27 2.198l-21.278 12.285c-.7.405-1.269.077-1.269-.732v-.506c0-.81.567-1.796 1.268-2.199zm0 6.874l21.279-12.284c.701-.406 1.27-.078 1.27.733v.505c0 .811-.569 1.795-1.27 2.199l-21.278 12.285c-.7.405-1.269.076-1.269-.733v-.507c0-.809.567-1.792 1.268-2.198zm0 6.874l21.279-12.284c.701-.405 1.27-.078 1.27.733v.506c0 .809-.569 1.794-1.27 2.199l-21.278 12.285c-.7.404-1.269.076-1.269-.733v-.507c0-.81.567-1.793 1.268-2.199zm0 6.879l21.279-12.285c.701-.405 1.27-.078 1.27.733v.505a2.81 2.81 0 0 1-1.27 2.199l-21.278 12.285c-.7.405-1.269.077-1.269-.733v-.505c0-.811.567-1.795 1.268-2.199zm0 6.875l21.279-12.285c.701-.406 1.27-.077 1.27.733v.505c0 .811-.569 1.795-1.27 2.199l-21.278 12.285c-.7.405-1.269.076-1.269-.733v-.505c0-.811.567-1.794 1.268-2.199zm0 6.875l21.279-12.285c.701-.405 1.27-.076 1.27.733v.507c0 .809-.569 1.793-1.27 2.199l-21.278 12.284c-.7.404-1.269.076-1.269-.733v-.506c0-.811.567-1.794 1.268-2.199zm-41.043 27.142l20.009-11.553c1.051-.607 1.903-.114 1.903 1.099v16.23c0 1.214-.852 2.691-1.903 3.298l-20.01 11.553c-1.052.606-1.904.114-1.904-1.1v-16.228c0-1.215.854-2.691 1.905-3.299zm-.636 24.433l21.279-12.285c.701-.404 1.269-.076 1.269.733v.507a2.81 2.81 0 0 1-1.269 2.199l-21.279 12.284c-.7.406-1.269.078-1.269-.733v-.506c0-.809.568-1.794 1.269-2.199zm0 6.875l21.279-12.285c.701-.405 1.269-.076 1.269.733v.507c0 .809-.568 1.794-1.269 2.198l-21.279 12.284c-.7.406-1.269.078-1.269-.733v-.505a2.81 2.81 0 0 1 1.269-2.199zm0 6.875l21.279-12.286c.701-.404 1.269-.076 1.269.733v.508c0 .809-.568 1.794-1.269 2.198l-21.279 12.286c-.7.405-1.269.076-1.269-.733v-.508c0-.809.568-1.794 1.269-2.198zm83.996-161.948l20.009-11.552c1.052-.608 1.906-.116 1.906 1.098v16.231c0 1.214-.854 2.69-1.906 3.298l-20.009 11.551c-1.052.607-1.904.116-1.904-1.099l.001-16.229c0-1.213.852-2.691 1.903-3.298zm-.635 24.435l21.279-12.287c.702-.404 1.271-.076 1.271.733v.507c0 .809-.569 1.794-1.271 2.199l-21.279 12.285c-.7.405-1.269.076-1.269-.732v-.506c0-.811.567-1.796 1.269-2.199zm0 6.875l21.279-12.285c.702-.406 1.271-.078 1.271.733v.505c0 .811-.569 1.795-1.271 2.199l-21.279 12.285c-.7.405-1.269.076-1.269-.733v-.505c0-.811.567-1.794 1.269-2.199zm0 6.873l21.279-12.284c.702-.406 1.271-.077 1.271.733v.506c0 .811-.569 1.794-1.271 2.199l-21.279 12.285c-.7.405-1.269.076-1.269-.733v-.507c0-.809.567-1.793 1.269-2.199zm0 6.877l21.279-12.286c.702-.404 1.271-.077 1.271.733v.506c0 .811-.569 1.794-1.271 2.199l-21.279 12.285c-.7.405-1.269.076-1.269-.733v-.506c0-.81.567-1.794 1.269-2.198zm0 6.874l21.279-12.285c.702-.405 1.271-.078 1.271.733v.506c0 .809-.569 1.794-1.271 2.198l-21.279 12.286c-.7.404-1.269.076-1.269-.733v-.506c0-.809.567-1.794 1.269-2.199zm42.316-75.998l20.008-11.553c1.052-.608 1.905-.115 1.905 1.099v16.229c0 1.216-.853 2.691-1.905 3.299L241.33 231.72c-1.053.607-1.904.116-1.904-1.1v-16.228c.001-1.214.853-2.691 1.905-3.298zm-.636 24.433l21.28-12.286c.7-.404 1.269-.076 1.269.733v.508c0 .809-.569 1.794-1.269 2.199l-21.28 12.283c-.701.406-1.269.078-1.269-.733v-.506c0-.809.567-1.794 1.269-2.198z"/><path d="M240.695 242.401l21.28-12.285c.7-.405 1.269-.076 1.269.733v.507c0 .809-.569 1.794-1.269 2.199l-21.28 12.285c-.701.405-1.269.076-1.269-.733v-.507c0-.809.567-1.794 1.269-2.199z"/><path d="M240.695 249.276l21.28-12.284c.7-.406 1.269-.077 1.269.733v.506c0 .809-.569 1.795-1.269 2.199l-21.28 12.285c-.701.405-1.269.076-1.269-.733v-.507c0-.809.567-1.794 1.269-2.199z"/><path d="M240.695 256.151l21.28-12.284c.7-.406 1.269-.078 1.269.733v.506a2.81 2.81 0 0 1-1.269 2.198l-21.28 12.286c-.701.404-1.269.076-1.269-.733v-.507c0-.809.567-1.793 1.269-2.199z"/><path d="M240.695 263.026l21.28-12.284c.7-.404 1.269-.077 1.269.733v.506c0 .809-.569 1.794-1.269 2.199l-21.28 12.285c-.701.405-1.269.076-1.269-.733v-.507c0-.809.567-1.793 1.269-2.199z"/><path d="M240.695 269.905l21.28-12.287c.7-.403 1.269-.076 1.269.733v.507c0 .809-.569 1.794-1.269 2.199l-21.28 12.285c-.701.405-1.269.076-1.269-.733v-.506c0-.81.567-1.794 1.269-2.198z"/><path d="M240.695 276.78l21.28-12.285c.7-.406 1.269-.077 1.269.733v.506c0 .809-.569 1.794-1.269 2.198l-21.28 12.286c-.701.404-1.269.076-1.269-.733v-.506c0-.811.567-1.794 1.269-2.199z"/><path d="M240.695 283.655l21.28-12.285c.7-.406 1.269-.076 1.269.733v.505c0 .811-.569 1.794-1.269 2.199l-21.28 12.285c-.701.405-1.269.076-1.269-.733v-.505c0-.811.567-1.795 1.269-2.199zm-41.045 27.143l20.009-11.554c1.052-.607 1.906-.114 1.906 1.1v16.229c0 1.214-.854 2.692-1.906 3.298l-20.009 11.553c-1.052.607-1.904.116-1.904-1.1l.001-16.228c0-1.215.852-2.691 1.903-3.298zm-.635 24.432l21.279-12.285c.702-.404 1.271-.076 1.271.733v.507c0 .809-.569 1.794-1.271 2.199l-21.279 12.284c-.7.406-1.269.077-1.269-.733v-.506c0-.809.567-1.794 1.269-2.199zm0 6.875l21.279-12.285c.702-.405 1.271-.076 1.271.733v.508c0 .809-.569 1.793-1.271 2.198l-21.279 12.284c-.7.405-1.269.078-1.269-.733v-.506c0-.809.567-1.794 1.269-2.199zm0 6.875l21.279-12.285c.702-.405 1.271-.076 1.271.733v.507c0 .809-.569 1.794-1.271 2.199l-21.279 12.285c-.7.404-1.269.076-1.269-.733v-.508c0-.809.567-1.794 1.269-2.198z"/></g><path d="M156.988 214.809c-.293-.103-.44-.377-.44-.83 0-.36.089-.797.264-1.306l1.585-5.05c.236-.678.456-1.076.662-1.194.175-.103.409-.078.704.066 1.526.703 3.199.527 5.02-.524 1.378-.797 2.384-1.909 3.016-3.335s.945-3.226.945-5.395v-29.626c0-.994.156-1.828.464-2.504s.829-1.224 1.562-1.648l3.259-1.88c.734-.424 1.255-.477 1.564-.16s.461.978.461 1.971v29.627c0 4.431-.858 8.453-2.575 12.065s-4.235 6.375-7.552 8.291c-3.522 2.033-6.502 2.512-8.939 1.432zm43.88-33.706c1.365-3.477 2.048-7.86 2.048-13.148s-.683-8.882-2.048-10.783-3.384-2.082-6.055-.538c-2.702 1.558-4.733 4.078-6.098 7.553s-2.048 7.86-2.048 13.149.682 8.883 2.048 10.782 3.396 2.074 6.098.515c2.671-1.543 4.689-4.053 6.055-7.53zm-17.481 15.889c-2.628-2.686-3.942-7.847-3.942-15.485s1.314-14.319 3.942-20.039 6.435-10.022 11.426-12.902c4.96-2.864 8.755-2.955 11.382-.267s3.942 7.849 3.942 15.487-1.315 14.316-3.942 20.038-6.422 10.012-11.382 12.874c-4.991 2.884-8.799 2.98-11.426.294zm44.715-28.732c1.291-.743 2.253-1.831 2.883-3.257s.947-3 .947-4.717c0-1.942-.368-3.188-1.101-3.738s-1.76-.44-3.082.324l-6.737 3.889v11.593l7.09-4.094zm-.705-18.847c1.174-.678 2.085-1.654 2.729-2.931s.971-2.773.971-4.491c0-1.853-.302-3.001-.903-3.445s-1.535-.301-2.797.426l-6.385 3.688v10.44l6.385-3.687zm-13.187 34.358c-.309-.296-.463-.941-.463-1.935v-40.203c0-.992.154-1.828.463-2.503s.813-1.216 1.519-1.622l12.901-7.449c3.229-1.863 5.65-2.121 7.266-.771s2.421 4.035 2.421 8.059c0 2.124-.33 4.211-.991 6.266s-1.562 3.772-2.709 5.157c3.025-.21 4.538 2.329 4.538 7.618 0 2.577-.39 5.131-1.168 7.656a22.67 22.67 0 0 1-3.522 6.949 19.09 19.09 0 0 1-5.835 5.165l-12.901 7.449c-.706.408-1.211.462-1.519.164zm31.483-17.567c-2.1.466-3.794.396-5.086-.214-.44-.243-.66-.569-.66-.974 0-.273.074-.629.22-1.078l1.806-5.45c.176-.552.366-.888.572-1.007.176-.101.397-.095.66.027 1.087.32 2.335.367 3.743.142s2.832-.752 4.272-1.583c1.702-.984 2.964-2.13 3.787-3.444.821-1.307 1.232-2.868 1.232-4.676 0-1.221-.198-2.1-.594-2.64s-.985-.878-1.762-1.017-1.974-.217-3.588-.233c-1.879 0-3.471-.186-4.777-.564s-2.378-1.214-3.215-2.516-1.255-3.242-1.255-5.818c0-4.295 1.013-8.166 3.038-11.618s4.697-6.136 8.015-8.052c4.374-2.524 7.719-3.191 10.039-1.999.44.287.66.614.66.975 0 .272-.073.63-.22 1.077l-1.805 5.447c-.177.556-.367.891-.572 1.008-.176.103-.397.094-.662-.024-1.79-.773-3.962-.424-6.515 1.051-3.172 1.831-4.757 4.507-4.757 8.034 0 1.174.183 2.03.551 2.564s.872.873 1.519 1.021 1.657.229 3.039.245l1.232.034c2.143.075 3.83.331 5.065.772s2.18 1.305 2.839 2.597.991 3.246.991 5.869a22.26 22.26 0 0 1-2.885 11.053c-1.922 3.439-4.704 6.207-8.343 8.308-2.29 1.323-4.486 2.219-6.584 2.683z" class="G"/><path d="M428.859 25.141l.003-.002-.021-.01-.002-.003-5.949-3.443c-.689-.402-1.643-.347-2.693.258L344.454 65.78c-2.094 1.209-3.808 4.177-3.808 6.596v156.112c0 1.206.426 2.057 1.113 2.455v.001l.005.005 6.057 3.5v-.016c.68.342 1.588.277 2.586-.299l20.013-11.552v12.023c0 2.127.336 3.364.887 3.699l-.003.008 5.991 3.464v-.009c.674.362 1.656-.581 2.748-2.892l14.191-30.044 31.917-18.537c2.095-1.208 3.808-4.176 3.808-6.596V27.588c0-1.198-.422-2.044-1.1-2.447z" class="B"/><path d="M342.83 67.141c.408-.462.853-.862 1.325-1.174a6.94 6.94 0 0 0-1.325 1.174zm85.875-42.091l-5.815-3.366c-.081-.047-.166-.088-.254-.122a1.87 1.87 0 0 1 .249.116l5.82 3.371z" class="F"/><path d="M347.761 71.999l-5.951-3.444c.299-.509.644-.988 1.02-1.415.408-.46.855-.86 1.325-1.174l.295-.182 75.753-43.843c.601-.352 1.187-.513 1.685-.513a2.06 2.06 0 0 1 .748.134c.088.034.173.075.254.122l5.815 3.366c-.254-.116-.538-.175-.846-.175-.513 0-1.092.164-1.705.511L350.4 69.229c-1.027.586-1.95 1.598-2.639 2.77z" class="C"/><path d="M377.18 241.714l-5.877-3.401v-.011l.001.01 5.857 3.386c.006.006.014.012.019.016z" fill="#b2b4b4"/><path d="M377.161 241.698l-5.857-3.386.003-.008-.004-.006c-.543-.337-.88-1.568-.88-3.694v-12.019l5.951-3.445v18.909c0 1.998.301 3.224.787 3.649z" class="C"/><path d="M347.719 234.391l-.016-.006-5.935-3.43-.017-.015a1.79 1.79 0 0 1-.406-.325 1.88 1.88 0 0 0 .414.328v.002l.005.004 5.955 3.442z" fill="#cbcece"/><path d="M347.748 234.399l-.029-.008-.021-.014-5.934-3.428-.005-.005v-.001c-.151-.088-.291-.198-.414-.329-.434-.46-.693-1.184-.693-2.122V72.38c0-1.231.44-2.609 1.158-3.826l5.951 3.444c-.718 1.217-1.158 2.595-1.158 3.826v156.112c0 1.216.44 2.066 1.145 2.462z" class="N"/><path d="M361.679 76.465l53.2-30.812c1.75-1.014 3.17-.197 3.17 1.828v33.912c0 2.025-1.42 4.487-3.17 5.501l-53.198 30.814c-1.754 1.014-3.172.196-3.172-1.828V81.966c0-2.023 1.418-4.487 3.17-5.502zm56.37 18.922c0 1.898-1.421 4.258-3.173 5.269l-53.193 30.713c-1.754 1.012-3.174.293-3.174-1.607s1.42-4.258 3.174-5.271l53.193-30.709c1.752-1.013 3.173-.293 3.173 1.605zm0 13.749c0 1.898-1.421 4.259-3.173 5.27l-53.193 30.712c-1.754 1.012-3.174.294-3.174-1.606s1.42-4.259 3.174-5.27l53.193-30.711c1.752-1.013 3.173-.293 3.173 1.605zm0 13.75c0 1.898-1.421 4.258-3.173 5.27l-53.193 30.712c-1.754 1.013-3.174.293-3.174-1.605s1.42-4.26 3.174-5.271l53.193-30.711c1.752-1.011 3.173-.293 3.173 1.605zm0 13.749c0 1.9-1.421 4.258-3.173 5.271l-53.193 30.711c-1.754 1.013-3.174.293-3.174-1.605s1.42-4.259 3.174-5.271l53.193-30.711c1.752-1.011 3.173-.293 3.173 1.605zm-59.54 48.131c0 1.9 1.418 2.619 3.173 1.605l5.561-3.21c1.752-1.011 3.174-3.371 3.174-5.269s-1.42-2.619-3.174-1.605l-5.561 3.21c-1.755 1.011-3.173 3.371-3.173 5.269zm19.973-11.505c0 1.898 1.422 2.618 3.176 1.605l33.218-19.205c1.752-1.013 3.173-3.373 3.173-5.271s-1.421-2.62-3.173-1.607l-33.22 19.208c-1.753 1.013-3.174 3.371-3.174 5.27zm-19.973 25.256c0 1.898 1.418 2.618 3.173 1.605l5.561-3.211c1.752-1.012 3.174-3.37 3.174-5.27s-1.42-2.617-3.174-1.605l-5.561 3.212c-1.755 1.011-3.173 3.371-3.173 5.269zm19.973-11.505c0 1.898 1.422 2.616 3.176 1.605l33.218-19.206c1.752-1.013 3.173-3.373 3.173-5.273s-1.421-2.617-3.173-1.604l-33.22 19.208c-1.753 1.012-3.174 3.371-3.174 5.27zm-19.973 25.256c0 1.898 1.418 2.617 3.173 1.605l5.561-3.211c1.752-1.012 3.174-3.372 3.174-5.27s-1.42-2.618-3.174-1.605l-5.561 3.212c-1.755 1.011-3.173 3.371-3.173 5.269zm19.973-11.505c0 1.898 1.422 2.616 3.176 1.605l33.218-19.207c1.752-1.011 3.173-3.371 3.173-5.271s-1.421-2.618-3.173-1.607l-33.22 19.21c-1.753 1.011-3.174 3.372-3.174 5.27z" class="G"/><path d="M500.342 66.303l.003-.003-.018-.01-.004-.003-5.949-3.443c-.691-.4-1.643-.347-2.693.258l-75.743 43.839c-2.095 1.209-3.808 4.177-3.808 6.596v156.111c0 1.207.427 2.055 1.112 2.458l.005.004 6.058 3.5v-.014c.681.34 1.587.277 2.586-.301l20.012-11.552v12.022c0 2.128.337 3.364.89 3.7l-.005.008 5.99 3.464v-.009c.674.361 1.656-.581 2.748-2.893l14.191-30.043 31.919-18.537c2.093-1.208 3.807-4.176 3.807-6.597V68.748c0-1.198-.423-2.042-1.101-2.445z" class="B"/><path d="M415.456 107.253l.202-.138-.198.137z" fill="#52c3c1"/><path d="M414.299 108.318c.359-.409.747-.771 1.157-1.066-.407.297-.797.659-1.157 1.066z" fill="#859ba2"/><path d="M500.189 66.21h-.001l-5.814-3.366a1.97 1.97 0 0 0-.212-.105c.071.029.14.063.208.101l5.819 3.37z" class="F"/><path d="M419.246 113.16l-5.951-3.445c.294-.502.633-.974 1.004-1.396a7.15 7.15 0 0 1 1.161-1.067l.197-.137.276-.17 75.755-43.843c.6-.35 1.187-.513 1.684-.513a2.06 2.06 0 0 1 .79.149 1.97 1.97 0 0 1 .212.105l5.814 3.366c-.252-.116-.537-.175-.846-.175-.512 0-1.091.164-1.703.512l-75.755 43.845c-1.026.587-1.949 1.596-2.638 2.769z" class="C"/><path d="M448.663 282.875l-5.876-3.401v-.012l.001.011 5.856 3.386c.008.005.014.011.019.016z" fill="#b2b4b4"/><path d="M448.645 282.859l-5.857-3.386.005-.007-.006-.006c-.542-.338-.879-1.569-.879-3.694v-12.02l5.951-3.445v18.91c0 1.997.299 3.223.786 3.648z" class="C"/><path d="M419.202 275.552l-.015-.006-5.936-3.43-.017-.015a1.89 1.89 0 0 1-.416-.336 1.99 1.99 0 0 0 .424.341l.006.004 5.954 3.442zm-6.384-3.788z" fill="#cbcece"/><path d="M419.231 275.56l-.029-.009-.021-.013-5.934-3.428-.005-.005a1.93 1.93 0 0 1-.424-.34v-.001c-.428-.462-.683-1.182-.683-2.111V113.542c0-1.233.441-2.61 1.159-3.827l5.952 3.445c-.719 1.216-1.158 2.595-1.158 3.827v156.11c0 1.217.44 2.067 1.143 2.463z" class="N"/><path d="M433.162 117.625l53.2-30.812c1.752-1.014 3.171-.197 3.171 1.828v33.912c0 2.024-1.419 4.489-3.171 5.503l-53.198 30.812c-1.752 1.014-3.171.196-3.171-1.828l-.001-33.914c0-2.023 1.42-4.487 3.17-5.501zm56.371 18.922c0 1.899-1.421 4.258-3.174 5.27l-53.192 30.712c-1.753 1.012-3.174.293-3.174-1.606s1.421-4.258 3.174-5.27l53.192-30.712c1.753-1.01 3.174-.292 3.174 1.606zm0 13.75c0 1.898-1.421 4.258-3.174 5.27l-53.192 30.712c-1.753 1.011-3.174.293-3.174-1.605s1.421-4.26 3.174-5.272l53.192-30.71c1.753-1.013 3.174-.294 3.174 1.605zm0 13.749c0 1.899-1.421 4.258-3.174 5.27l-53.192 30.713c-1.753 1.012-3.174.292-3.174-1.605s1.421-4.26 3.174-5.272l53.192-30.711c1.753-1.011 3.174-.293 3.174 1.605zm0 13.75c0 1.9-1.421 4.258-3.174 5.271l-53.192 30.711c-1.753 1.013-3.174.293-3.174-1.605s1.421-4.258 3.174-5.271l53.192-30.711c1.753-1.011 3.174-.294 3.174 1.605zm-59.541 48.131c0 1.898 1.42 2.618 3.173 1.605l5.562-3.21c1.752-1.012 3.174-3.372 3.174-5.27s-1.421-2.618-3.173-1.605l-5.563 3.21c-1.753 1.011-3.173 3.371-3.173 5.27zm19.975-11.506c.001 1.9 1.422 2.618 3.175 1.606l33.217-19.206c1.753-1.013 3.174-3.371 3.174-5.271s-1.421-2.618-3.174-1.607l-33.218 19.209c-1.754 1.013-3.174 3.371-3.174 5.269zm-19.975 25.257c0 1.899 1.42 2.618 3.173 1.605l5.562-3.21c1.752-1.013 3.174-3.371 3.174-5.27s-1.421-2.617-3.173-1.606l-5.563 3.212c-1.753 1.011-3.173 3.371-3.173 5.269zm19.975-11.505c.001 1.898 1.422 2.616 3.175 1.605l33.217-19.205c1.753-1.013 3.174-3.374 3.174-5.272s-1.421-2.619-3.174-1.606l-33.218 19.208c-1.754 1.013-3.174 3.372-3.174 5.27zm-19.975 25.256c0 1.898 1.42 2.617 3.173 1.605l5.562-3.212c1.752-1.011 3.174-3.371 3.174-5.269s-1.421-2.617-3.173-1.605l-5.563 3.211c-1.753 1.011-3.173 3.371-3.173 5.27zm19.975-11.505c.001 1.898 1.422 2.616 3.175 1.605l33.217-19.205c1.753-1.013 3.174-3.373 3.174-5.273s-1.421-2.618-3.174-1.607l-33.218 19.21c-1.754 1.012-3.174 3.372-3.174 5.27z" class="G"/><path d="M577.81 5.792l-7.831-4.516-.008-.004-.072-.041-.006.01C568.426.413 566.729-.012 564.861 0c-2.559.018-5.44.86-8.489 2.62-10.625 6.133-19.238 21.052-19.238 33.32 0 6.124 2.149 10.428 5.617 12.442v.001l.016.011.003.001 7.123 4.066 1.702-2.845c1.757-.406 3.587-1.032 5.519-2.148 10.622-6.133 19.236-21.052 19.238-33.32 0-1.82-.244-3.425-.603-4.913l2.061-3.443z" class="E"/><path d="M537.137 35.939c0 6.125 2.143 10.428 5.611 12.44v.007l.022.008 7.126 4.069 1.702-2.847c1.751-.404 3.584-1.035 5.519-2.151 5.683-3.28 10.796-9.087 14.313-15.648l-27.899-16.105c-3.925 6.329-6.394 13.657-6.394 20.226z" class="D"/><path d="M577.812 5.792l-7.828-4.517h-.015l-.073-.044-.006.014c-3.477-1.963-8.241-1.672-13.521 1.375-4.938 2.847-9.441 7.597-12.838 13.093l27.9 16.105c3.063-5.699 4.925-11.97 4.925-17.669a20.44 20.44 0 0 0-.609-4.916l2.065-3.44z" class="Q"/><path d="M563.81 6.887c-10.625 6.134-19.238 21.052-19.238 33.319s8.612 17.241 19.236 11.107 19.239-21.052 19.239-33.32S574.435.754 563.81 6.887z" class="O"/><path d="M565.208 17.045c.676-.2 1.268-.238 1.779-.119s.938.344 1.283.677.608.737.787 1.218.283.968.311 1.463c.013.247-.038.482-.154.71s-.254.386-.406.472l-1.448.838c-.235.133-.411.167-.528.097s-.224-.195-.32-.374c-.208-.411-.523-.692-.942-.843s-1.047.015-1.873.493c-.358.208-.701.463-1.024.766s-.608.638-.848 1a5.01 5.01 0 0 0-.57 1.142c-.138.399-.207.799-.207 1.203 0 .488.075.843.229 1.063s.395.344.734.374.773-.018 1.303-.132l1.936-.45c.827-.201 1.528-.28 2.1-.241s1.042.219 1.407.527.628.759.787 1.347.237 1.318.237 2.189c0 .828-.103 1.665-.31 2.505a12.01 12.01 0 0 1-.901 2.464 12.24 12.24 0 0 1-1.438 2.265c-.565.71-1.207 1.344-1.924 1.907v2.168c0 .233-.056.466-.166.699s-.242.396-.394.484l-1.676.968c-.152.086-.284.078-.393-.028s-.165-.275-.165-.51V41.22c-.622.208-1.203.296-1.749.261s-1.023-.191-1.429-.466-.734-.674-.982-1.2-.389-1.186-.415-1.976c-.015-.248.038-.485.156-.711s.25-.386.403-.472l1.449-.837c.235-.135.414-.176.538-.12s.227.188.311.394a3.65 3.65 0 0 0 .352.627c.138.197.324.333.558.409s.53.082.88.017.79-.247 1.315-.551a8.95 8.95 0 0 0 1.2-.837c.386-.319.724-.673 1.015-1.063s.523-.802.701-1.236.27-.892.27-1.381c0-.467-.095-.793-.288-.979s-.487-.273-.881-.258-.879.093-1.459.236l-2.008.427c-.69.144-1.293.191-1.81.138s-.946-.235-1.283-.549-.59-.77-.756-1.365-.248-1.372-.248-2.328c0-.827.103-1.652.311-2.472s.492-1.62.857-2.392.805-1.495 1.315-2.161 1.07-1.261 1.677-1.781v-2.167c0-.233.054-.469.165-.702s.241-.393.393-.482l1.676-.968c.152-.086.285-.078.394.03s.166.275.166.508v2.231z" class="H"/><path d="M577.81 149.23l-7.831-4.516-.008-.004-.072-.041-.006.01c-3.477-1.961-8.247-1.665-13.521 1.379-10.625 6.135-19.238 21.052-19.238 33.32 0 6.124 2.149 10.428 5.617 12.442v.002l.016.01.003.001 7.123 4.067 1.702-2.846c1.757-.404 3.587-1.031 5.519-2.147 10.622-6.133 19.236-21.052 19.238-33.32 0-1.821-.244-3.426-.603-4.913l2.061-3.444z" class="E"/><path d="M537.137 179.376c0 6.126 2.143 10.428 5.611 12.441v.007l.022.007 7.126 4.069 1.702-2.847c1.751-.404 3.584-1.034 5.519-2.15 5.683-3.28 10.796-9.087 14.313-15.648l-27.899-16.105c-3.925 6.33-6.394 13.658-6.394 20.226z" class="D"/><path d="M577.812 149.232l-7.828-4.519h-.015l-.073-.044-.006.014c-3.477-1.963-8.241-1.673-13.521 1.375-4.938 2.847-9.441 7.598-12.838 13.093l27.9 16.105c3.063-5.699 4.925-11.97 4.925-17.669 0-1.823-.246-3.425-.609-4.917l2.065-3.438z" class="Q"/><path d="M563.81 150.325c-10.625 6.134-19.238 21.052-19.238 33.32s8.612 17.241 19.236 11.107 19.239-21.053 19.239-33.32-8.612-17.241-19.237-11.107z" class="O"/><g class="H"><path d="M573.596 176.921l-19.572 11.3c-.228.13-.412-.047-.412-.398v-17.361c0-.35.184-.74.412-.872l19.572-11.299c.227-.131.411.046.411.396v17.362c0 .35-.184.74-.411.872z"/><path d="M567.663 162.863c-.227.132-.412-.046-.412-.396v-2.645l-6.885 3.974v2.645c0 .35-.183.741-.41.872s-.412-.047-.412-.397v-3.278c0-.35.184-.74.412-.872l7.707-4.45c.228-.131.412.046.412.397v3.279c0 .349-.184.74-.412.871z"/><path d="M567.663 159.585l-7.707 4.449c-.228.132-.412-.047-.412-.396v-1.46c0-.35.184-.74.412-.872l7.707-4.449c.228-.132.412.045.412.396v1.46c0 .349-.184.74-.412.872z"/></g><path d="M566.608 170.417l-5.597 3.231c-.164.095-.299-.034-.299-.289v-1.058c0-.256.135-.538.299-.633l5.597-3.231c.165-.095.297.033.297.287v1.06c0 .253-.132.538-.297.633z" class="O"/><path d="M577.81 77.511l-7.911-4.562-.006.012c-3.477-1.963-8.247-1.666-13.521 1.378-10.625 6.134-19.238 21.052-19.238 33.32 0 6.124 2.149 10.427 5.617 12.44v.003l.016.011.003.001 7.123 4.066 1.702-2.847c1.757-.403 3.587-1.03 5.519-2.145 10.622-6.134 19.236-21.052 19.238-33.319a20.61 20.61 0 0 0-.603-4.915l2.061-3.443z" class="E"/><path d="M537.137 107.658c0 6.125 2.143 10.426 5.611 12.44v.008l.022.007 7.126 4.069 1.702-2.846a19.74 19.74 0 0 0 5.519-2.149c5.683-3.281 10.796-9.088 14.313-15.649l-27.899-16.106c-3.925 6.33-6.394 13.657-6.394 20.226z" class="D"/><path d="M577.812 77.511l-7.828-4.518h-.015l-.073-.044-.006.015c-3.477-1.963-8.241-1.673-13.521 1.376-4.938 2.845-9.441 7.596-12.838 13.091l27.9 16.105c3.063-5.699 4.925-11.97 4.925-17.668 0-1.826-.246-3.425-.609-4.917l2.065-3.44z" class="Q"/><path d="M563.81 78.606c-10.625 6.135-19.238 21.053-19.238 33.32s8.612 17.241 19.236 11.107 19.239-21.053 19.239-33.32-8.612-17.241-19.237-11.107z" class="O"/><path d="M556.759 98.13c0-2.791 1.469-5.902 3.281-6.948s3.282.368 3.282 3.159-1.469 5.901-3.282 6.947-3.281-.367-3.281-3.158zm9.113 14.075l-12.064 6.965.642-8.022c.276-3.427 2.083-6.916 4.223-8.152l2.334-1.347c2.14-1.235 3.947.167 4.222 3.276l.643 7.28zm-1.176-22.442c0-2.791 1.469-5.902 3.282-6.948s3.281.366 3.281 3.157-1.469 5.902-3.281 6.948-3.282-.368-3.282-3.157zm9.115 14.071l-7.401 4.273-.337-3.841c-.241-2.697-1.457-4.322-3.081-4.445.756-2.316 2.103-4.316 3.619-5.191l2.334-1.347c2.141-1.235 3.948.164 4.223 3.273l.643 7.278z" class="F"/><path d="M275.087 357.2c10.731-6.196 25.127-9.609 40.535-9.609s29.804 3.413 40.536 9.609c9.704 5.602 15.047 12.694 15.047 19.968s-5.345 14.365-15.047 19.967c-10.732 6.196-25.129 9.607-40.536 9.607s-29.803-3.411-40.535-9.607c-9.703-5.602-15.047-12.694-15.047-19.967s5.343-14.366 15.047-19.968zm102.069 19.968c-.001-9.093-6.007-18.184-18.024-25.122-24.03-13.874-62.99-13.874-87.021 0-12.015 6.938-18.022 16.029-18.022 25.122v16.747c0 9.091 6.007 18.184 18.023 25.121 24.03 13.873 62.992 13.873 87.021 0 12.016-6.937 18.023-16.03 18.023-25.121v-16.747z" class="B"/><path d="M315.622 406.742c15.404 0 29.8-3.412 40.531-9.607l.052-.031c.007-.003.016-.009.022-.011s.018-.012.029-.018.019-.011.028-.016.014-.008.02-.012l.032-.019c5.821-3.394 10.046-7.316 12.472-11.491-2.451 4.223-6.743 8.187-12.65 11.598-10.732 6.196-25.129 9.607-40.536 9.607z" fill="#e8e9e8"/><path d="M254.1 376.377c.337-8.826 6.34-17.594 18.008-24.331 12.014-6.936 27.761-10.404 43.51-10.404h.002c-15.748 0-31.494 3.468-43.509 10.404-9.589 5.538-15.352 12.447-17.288 19.634-.419 1.559-.663 3.128-.723 4.697zm113.355-9.638c-2.423-3.28-5.984-6.365-10.57-9.112 4.586 2.746 8.147 5.832 10.57 9.112zm-13.206-10.591zm-.047-.025a.52.52 0 0 1-.04-.021c.014.008.027.014.04.021zm-.046-.025c-5.677-2.974-12.261-5.221-19.404-6.658 7.14 1.435 13.725 3.682 19.404 6.658z" fill="#f9f8f8"/><path d="M315.617 412.694c-14.698 0-29.395-3.021-41.058-9.065-.831-.431-1.645-.876-2.444-1.338-14.437-8.344-20.196-19.793-17.281-30.611h-.011c1.936-7.187 7.699-14.096 17.288-19.634 12.015-6.936 27.761-10.404 43.509-10.404s31.493 3.468 43.509 10.404c24.031 13.874 24.031 36.369-.002 50.242-12.014 6.938-27.763 10.406-43.51 10.406zm.003-5.952c15.409 0 29.806-3.411 40.538-9.607 5.907-3.411 10.199-7.374 12.651-11.594 1.575-2.709 2.397-5.517 2.397-8.375 0-3.57-1.29-7.097-3.751-10.427-2.423-3.28-5.984-6.366-10.57-9.112l-.736-.431a56.57 56.57 0 0 0-1.9-1.048c-.027-.015-.037-.019-.047-.025s-.026-.013-.04-.021c-5.685-2.98-12.27-5.227-19.41-6.662-6.048-1.215-12.495-1.85-19.128-1.85-15.413 0-29.814 3.417-40.537 9.606-9.712 5.605-15.056 12.698-15.056 19.97 0 2.201.488 4.373 1.435 6.494 2.167 4.874 6.749 9.472 13.42 13.361a.34.34 0 0 1 .045.027c.008.004.015.008.022.011a.2.2 0 0 0 .028.016c.01.007.017.012.028.016s.014.01.022.014l.051.03c10.731 6.196 25.128 9.607 40.536 9.607z" stroke="#f2c459" class="C J K"/><path d="M260.031 377.166c0 2.857.821 5.665 2.405 8.379 2.439-4.225 6.736-8.188 12.65-11.592 10.724-6.2 25.125-9.616 40.538-9.616 15.402 0 29.802 3.416 40.525 9.616 5.915 3.404 10.211 7.367 12.663 11.592 1.572-2.714 2.394-5.522 2.394-8.379 0-7.272-5.346-14.365-15.057-19.97-10.723-6.189-25.123-9.606-40.525-9.606-15.413 0-29.814 3.417-40.538 9.606-9.711 5.605-15.055 12.698-15.055 19.97z" class="E"/><path d="M368.812 385.545c.859-1.51 1.497-3.039 1.894-4.586-1.517-5.916-6.545-11.553-14.553-16.176-10.731-6.196-25.127-9.609-40.535-9.609s-29.805 3.413-40.536 9.609c-8.006 4.623-13.034 10.26-14.551 16.176.397 1.55 1.036 3.082 1.907 4.582-.366-.619-.689-1.248-.972-1.881-.947-2.121-1.435-4.293-1.435-6.494 0-7.272 5.344-14.365 15.055-19.97 10.724-6.189 25.125-9.606 40.538-9.606 15.402 0 29.802 3.417 40.525 9.606 9.711 5.605 15.057 12.698 15.057 19.97 0 2.857-.822 5.665-2.394 8.379z" stroke="#ebab17" class="J K N"/><path d="M315.62 406.742c-15.406 0-29.802-3.412-40.534-9.607-3.237-1.87-5.99-3.905-8.22-6.058-1.838-1.775-3.32-3.629-4.428-5.536 2.439-4.223 6.736-8.186 12.648-11.588 10.724-6.2 25.125-9.616 40.538-9.616 15.402 0 29.802 3.416 40.525 9.616 5.908 3.399 10.2 7.359 12.654 11.577-2.421 4.178-6.643 8.103-12.453 11.491-.024.015-.034.02-.046.027-.007.004-.013.007-.02.011a.28.28 0 0 1-.028.016c-.011.006-.019.012-.029.018s-.015.009-.022.012c-.018.01-.035.021-.052.03-10.732 6.195-25.127 9.607-40.533 9.607z" fill="#eaeae9"/><path d="M315.618 406.742c-15.408 0-29.804-3.411-40.536-9.607l-.051-.031c-.007-.004-.014-.009-.022-.013a.2.2 0 0 1-.028-.016.28.28 0 0 1-.028-.016c-.007-.005-.014-.008-.022-.012s-.02-.013-.032-.019c-3.166-1.845-5.85-3.842-8.033-5.951 2.23 2.153 4.983 4.188 8.221 6.058 10.731 6.195 25.127 9.607 40.533 9.607z" fill="#52c3c1"/><path d="M315.62 406.742c15.406 0 29.802-3.412 40.533-9.607.017-.009.034-.02.052-.03-.018.01-.035.021-.052.03-10.731 6.195-25.127 9.607-40.533 9.607zm40.607-9.649c.01-.006.018-.012.029-.018-.011.006-.019.012-.029.018zm.057-.034c.007-.004.013-.007.02-.011-.006.004-.013.007-.02.011zm.052-.03z" class="M"/><path d="M315.618 406.742c-15.408 0-29.805-3.411-40.536-9.607-.016-.009-.034-.02-.051-.03l.051.03c10.731 6.196 25.128 9.607 40.536 9.607zm-40.609-9.651c-.011-.004-.018-.01-.028-.016a.2.2 0 0 0 .028.016zm-.056-.032c-.007-.003-.014-.007-.022-.011.008.004.015.007.022.011zm-.054-.03zm-12.461-11.488c-.871-1.5-1.51-3.032-1.907-4.583 1.517-5.915 6.545-11.552 14.551-16.175 10.732-6.196 25.128-9.609 40.536-9.609s29.804 3.413 40.535 9.609c8.008 4.623 13.036 10.26 14.553 16.175-.397 1.548-1.035 3.077-1.903 4.572-2.454-4.218-6.745-8.178-12.654-11.577-10.723-6.2-25.123-9.616-40.525-9.616-15.413 0-29.813 3.416-40.537 9.616-5.913 3.402-10.21 7.364-12.649 11.588z" class="C"/><path d="M287.026 425.382c-4.641-1.404-9.036-3.176-13.056-5.317 4.022 2.139 8.415 3.911 13.056 5.317z" fill="#c4c6c7"/><path d="M254.084 378.634v-1.468l.016-.789-.011 1.198v1.053z" class="L"/><path d="M259.884 408.989c-3.867-4.763-5.8-9.92-5.8-15.077v-15.278l.005 15.281c0 5.155 1.932 10.312 5.795 15.074z" fill="#c4c6c7"/><path d="M301.12 428.438c-4.85-.673-9.588-1.691-14.094-3.056-4.641-1.406-9.034-3.178-13.056-5.317a58.96 58.96 0 0 1-1.855-1.029 56.88 56.88 0 0 1-2.524-1.545l3.064-1.75-.002-.002c.789-.444 1.282-1.408 1.287-2.789v-.071c-.001-.011-.001-.018-.001-.024v-.072c-.002-.015-.002-.021-.002-.027v-.023c-.001-.013-.001-.021-.001-.028v-.001c0-.008 0-.015-.001-.021v-.026c-.002-.009-.002-.016-.002-.024-.001-.019-.001-.035-.003-.052-.149-2.674-2.001-5.793-4.271-7.117-.693-.405-1.349-.595-1.931-.595-.409 0-.781.094-1.104.275v-.001l-.011.006-.002.001-6.727 3.839c-3.863-4.762-5.795-9.919-5.795-15.074v-16.34c.177 8.956 6.184 17.88 18.018 24.712a57.02 57.02 0 0 0 2.452 1.341c7.797 4.047 16.957 6.732 26.561 8.078v16.732z" class="B"/><path d="M254.089 377.575l.011-1.198a21.2 21.2 0 0 1 .723-4.698c-.49 1.818-.734 3.653-.734 5.489v.407z" fill="#dcdddb"/><path d="M274.559 403.629l-2.452-1.342c-11.834-6.832-17.841-15.756-18.018-24.712v-.407c0-1.836.244-3.671.734-5.489h.011c-2.915 10.818 2.844 22.268 17.281 30.611a60.83 60.83 0 0 0 2.444 1.339z" fill="#13bab2"/><path d="M273.94 412.95c.01-2.75-1.905-6.101-4.281-7.486-1.181-.689-2.254-.759-3.035-.32v-.001l-.012.006-.001.001-20.732 11.834c-.775.45-1.257 1.41-1.263 2.777-.012 2.749 1.906 6.1 4.28 7.485 1.189.692 2.267.762 3.048.315l20.709-11.822c.789-.444 1.281-1.408 1.287-2.789z" fill="#1c567a"/><path d="M272.653 415.74c.789-.444 1.282-1.409 1.287-2.79.005-1.036-.266-2.157-.731-3.228l-26.71 15.276c.683.937 1.508 1.729 2.397 2.249 1.189.691 2.267.762 3.048.315l20.709-11.822z" class="G"/><path d="M252.391 427.187c.016-3.578-2.479-7.939-5.57-9.742-1.516-.883-2.889-.978-3.901-.432l-.004-.008-.059.031-.004.001-68.692 36.689 10.249 18.113 66.316-41.023c1.022-.58 1.659-1.835 1.665-3.629z" class="B"/><path d="M184.668 471.679c1.194-.818 1.929-2.404 1.937-4.608v-.056c-.003-2.434-.886-5.139-2.301-7.507l66.224-38.234c1.142 1.856 1.872 3.992 1.863 5.913-.006 1.794-.643 3.049-1.665 3.629l-66.058 40.863z" class="N"/><path d="M179.228 471.294c-4.055-2.36-7.324-8.08-7.306-12.776s3.322-6.587 7.376-4.224 7.327 8.083 7.307 12.777-3.322 6.583-7.377 4.223z" class="E"/><path d="M182.528 472.309c-.994 0-2.114-.327-3.3-1.016-4.038-2.351-7.3-8.036-7.306-12.721v-.055c.014-3.323 1.673-5.242 4.077-5.242.994 0 2.115.329 3.299 1.019 4.041 2.354 7.301 8.038 7.307 12.721v.055c-.012 3.322-1.672 5.239-4.077 5.239z" stroke="#f2c459" class="C J K"/><path d="M584.183 309.359c.749-27.881-1.485-34.562-8.908-39.669l-2.876 16.155s3.382 19.037 3.019 25.377c-.319 5.569-.861 12.538-2.177 17.042-.233.797-.774 1.468-1.478 1.909-1.889 1.182-2.653 2.396-4.075 3.886-1.114 1.167-2.064 1.457-1.918 1.828.19.478.984 1.249 2.352.832.686-.209 1.573-.745 2.681-1.453 0 0-.792 2.323-2.747 4.719-2.65 3.25-2.766 5.245 2.584 5.292 3.353.031 6.029-2.037 8.552-9.427.726-2.128 1.866-5.489 2.357-8.296 1.281-7.312 2.512-13.709 2.634-18.195z" class="I"/><path d="M569.031 267.572c3.543-.513 8.358.229 11.469 5.794s3.872 15.133 4.227 24.649c0 0-6.179 5.167-13.591 2.627l-2.105-33.07z" class="B"/><path d="M579.453 420.91c.563.214.705 1.285.79 3.415.064 1.614.409 4.427-1.479 4.99s-4.654.274-5.865-1.246c-1.51-1.897-2.53-3.565-4.686-5.881-1.871-2.007-3.893-3.881-4.648-6.696-.683-2.545-.114-3.648 1.622-4.387 2.387-1.018 6.137 2.306 8.007 2.829 1.611.451 5.696 6.763 6.259 6.976z" class="D"/><path d="M579.453 418.938v2.615s-2.719 2.09-6.611.179c-.115-.252-.686-3.743-.686-3.743l7.297.949z" class="I"/><path d="M558.269 435.987s.75 2.274 1.155 4.264c.321 1.581.781 4.225.227 5.415s-2.713 1.957-6.063 1.931c-2.169-.017-5.551 1.457-7.865 2.748-2.391 1.334-7.362 1.866-9.891 1.568-2.98-.35-6.066-2.077-6.549-3.312s.158-2.514 7.181-5.507c.065-.027 9.763-3.181 13.16-6.931l8.645-.176z" class="D"/><path d="M558.269 433.159v3.05c.01 1.11-1.302 2.763-4.692 2.641-2.382-.085-4.046-.725-3.953-2.687v-2.827l8.645-.177z" class="I"/><path d="M581.155 384.223c-1.198-8.549-3.089-13.625-3.089-13.625s.932-11.754 1.381-22.9c.484-12.038-.025-27.172.204-30.174 0 0-38.845-7.859-39.538 6.056s1.533 49.342 1.993 55.454 1.516 11.52 2.778 21.429c1.247 9.78 4.74 32.873 4.74 32.873 4.439 2.398 8.645-.177 8.645-.177s2.734-27.826 2.446-34.88c-.35-8.613-2.675-15.397-2.675-15.397l1.387-21.454 1.49-19.118.836-.413 1.311 23.332c.46 6.112 1.431 11.974 3.201 23.33 1.534 9.85 6.104 30.693 6.104 30.693 4.437 2.399 7.084-.314 7.084-.314s2.901-26.168 1.702-34.715z" class="G"/><path d="M560.917 342.31s9.423-4.644 14.14-8.832c0 0-4.379 6.171-10.128 8.907l-2.034 20.966-1.181-21.073-.797.032z" class="D"/><path d="M552.53 263.165l2.299 12.651 11.427-.835-2.4-14.341-11.326 2.525z" class="I"/><path d="M578.324 274.056c-1.13-3.439-5.495-7.182-9.862-6.372-8.022 1.491-14.385 3.085-19.124 4.776-3.996 1.429-7.641 4.883-7.971 18.036l-1.363 36.587c10.04 3.974 20.481 3.85 26.252 2.59 12.014-2.625 13.464-7.609 13.464-7.609l-.205-31.568c-.305-8.09-.412-14.077-1.191-16.44z" class="M"/><g class="I"><path d="M543.713 247.776s-2.898 4.621-2.546 5.061 2.57.793 2.57.793l-.024-5.854z"/><path d="M551.76 234.994c-6.043 1.419-7.737 4.126-8.09 13.784-.37 10.092.729 13.236 2.083 14.565.915.895 5.886.949 8.376.202 3.117-.935 10.148-3.607 13.352-8.751 3.769-6.052 4.613-14.16.358-17.381-5.986-4.535-13.619-2.996-16.079-2.419z"/></g><g class="D"><path d="M543.737 237.507c1.771 3.035 5.622 4.486 5.622 4.486 1.158 1.322.519 6.469 2.56 7.286 0 0 .875-3.747 4.027-3.35 3.17.402 3.688 4.42 1.751 6.913s-3.814 1.595-3.814 1.595.217 5.323 2.643 8.285c0 0 2.706.809 7.621-.355 3.019-.716 7.225-4.605 8.94-8.664 3.625-8.584 3.719-16.237-1.758-18.407-.674-3.903-3.798-5.589-7.331-6.318-7.604-1.568-12.507 3.178-18.362 2.768-3.351-.237-3.978 2.202-1.899 5.761z"/><path d="M571.452 236.604l3.586-2.224a2.11 2.11 0 0 0-3.586 2.224z"/></g><path d="M501.014 295.233c1.881.836 24.023 17.199 27.473 15.294s21.164-22.596 21.164-22.596c5.143-8.523 0-15.524 0-15.524s-5.68 1.05-8.648 5.542-15.806 20.589-15.806 20.589l-9.477-4.825-7.736-4.129c-.631-.361-1.47-.711-1.994-1.23-1.254-1.24-1.038-4.235-1.016-5.864.012-.762.023-1.525.111-2.282.109-.93.286-3.21-1.389-2.486-.323.14-.585.393-.801.672a3.82 3.82 0 0 0-.599 1.143c-.315.984-.213 2.062-.503 3.056-.044.144-.097.292-.207.396-.138.131-.34.167-.528.161-2.44-.073-4.75-3.491-5.87-5.307-.5-.808-.991-1.708-1.852-2.11-1.335-.624-2.939.269-3.799 1.466-1.095 1.527-1.424 3.509-1.208 5.377.299 2.587 1.293 4.981 3.181 6.741 2.862 2.669 5.972 4.347 9.504 5.916z" class="I"/><path d="M551.63 271.739c-2.442.281-5.863-.17-10.649 4.968s-10.768 13.855-10.768 13.855 1.662 8.333 10.709 10.08c0 0 8.377-8.582 10.708-13.31s2.875-12.404 0-15.593z" class="B"/></svg>