<svg width="170" height="78" viewBox="0 0 170 78" fill="none" xmlns="http://www.w3.org/2000/svg">
<g clip-path="url(#clip0)">
<g style="mix-blend-mode:multiply">
<path d="M157.271 50.976V44.1023H154.199L153.162 42.9164H163.793L162.756 44.1023H159.721V50.976H157.271ZM145.679 46.5848V50.976H143.229V42.9165L149.977 47.2705V42.9165H152.389V50.976L145.679 46.5848ZM132.881 50.976V42.9165H142.079L141.043 44.1024H135.332V46.3626H141.532V47.5485H135.332V49.7902H141.005L142.061 50.976H132.881ZM128.904 50.976V46.3626L126.284 47.9931L123.683 46.3626V50.976H121.232V42.9165L126.284 46.1404L131.335 42.9165V50.976H128.904ZM110.621 50.976V42.9165H119.688V48.1228H113.072V50.976H110.621ZM113.053 46.9371H117.237V44.1023H113.053V46.9371ZM101.763 50.976L99.7651 48.7527V42.9165H109.076V50.976H101.763ZM102.215 48.2339L103.61 49.7902H106.626V44.1023H102.215V48.2339ZM91.0195 50.976V42.9165H93.4698V49.7909H98.9923L97.9368 50.976H91.0195ZM80.6724 50.976V42.9165H89.8703L88.8338 44.1024H83.1219V46.3626H89.3224V47.5485H83.1219V49.7902H88.7954L89.8503 50.976H80.6724ZM74.0379 50.976L69.7021 42.9165H72.0957L74.8097 48.2898L77.5052 42.9165H79.8988L75.5639 50.976H74.0379ZM60.1272 50.976V42.9165H69.3251L68.2886 44.1024H62.5773V46.3626H68.7792V47.5485H62.5773V49.7902H68.2508L69.3062 50.976H60.1272ZM50.1181 50.976V42.9165H56.7526L59.3538 46.9555L56.7532 50.976H50.1181ZM52.5684 49.7902H55.0564L56.9223 46.9554L55.0564 44.1023H52.5697L52.5684 49.7902ZM148.366 40.4984V27.6032H163.866L162.208 29.5005H152.346V38.6012H159.373V33.4727H163.293V40.4984H148.366ZM135.157 33.4727V40.4984H131.236V27.6032L142.033 34.5696V27.6032H145.893V40.4984L135.157 33.4727ZM124.813 40.4984V35.0144H117.877V40.4984H113.866V27.6032H128.763V40.4984H124.813ZM117.937 33.0874H124.722V29.5005H117.937V33.0874ZM97.008 40.4984V27.6032H110.247V32.5243H111.393V40.4984H97.008ZM100.928 38.6013H107.472V34.4214H100.928V38.6013ZM100.928 32.5243H107.472V29.5005H100.928V32.5243ZM74.3297 40.4984V27.6032H89.8306L88.1718 29.5005H78.3106V38.6012H85.3371V33.4727H89.2575V40.4984H74.3297ZM67.3634 40.4984V27.6032H71.2838V40.4984H67.3634ZM49.9326 40.4984V27.6032H63.1714V32.5243H64.3174V40.4984H49.9326ZM53.8527 38.6013H60.3969V34.4214H53.8528L53.8527 38.6013ZM53.8527 32.5243H60.3969V29.5005H53.8528L53.8527 32.5243Z" fill="black"/>
<g filter="url(#filter0_d)">
<path d="M24.5537 50.034H0V28.0234H20.1214V40.1826H22.0776V48.5821H24.5538V50.0339L24.5537 50.034ZM6.69178 39.6612V46.7957H17.8619V39.6612H6.69178ZM6.69178 31.2617V36.4228H17.8619V31.2617H6.69178ZM44.6751 48.5822H24.5537V36.4228H22.5975V28.0234H20.1212V26.5714H44.6751V48.5821V48.5822ZM26.8132 40.1826V45.3438H37.9833V40.1826H26.8132ZM26.8132 29.8098V36.9443H37.9833V29.8098H26.8132Z" fill="url(#paint0_linear)"/>
</g>
</g>
</g>
<defs>
<filter id="filter0_d" x="-6" y="23.5714" width="56.6751" height="35.4626" filterUnits="userSpaceOnUse" color-interpolation-filters="sRGB">
<feFlood flood-opacity="0" result="BackgroundImageFix"/>
<feColorMatrix in="SourceAlpha" type="matrix" values="0 0 0 0 0 0 0 0 0 0 0 0 0 0 0 0 0 0 127 0"/>
<feOffset dy="3"/>
<feGaussianBlur stdDeviation="3"/>
<feColorMatrix type="matrix" values="0 0 0 0 0 0 0 0 0 0 0 0 0 0 0 0 0 0 0.161 0"/>
<feBlend mode="normal" in2="BackgroundImageFix" result="effect1_dropShadow"/>
<feBlend mode="normal" in="SourceGraphic" in2="effect1_dropShadow" result="shape"/>
</filter>
<linearGradient id="paint0_linear" x1="1.2509" y1="26.5714" x2="18.7931" y2="62.1055" gradientUnits="userSpaceOnUse">
<stop stop-color="#FFA62E"/>
<stop offset="1" stop-color="#FF2C00"/>
</linearGradient>
<clipPath id="clip0">
<rect width="170" height="34.2857" fill="white" transform="translate(0 21.4286)"/>
</clipPath>
</defs>
</svg>
