<svg xmlns="http://www.w3.org/2000/svg" width="164" height="33" viewBox="0 0 164 33" fill="none">
<g style="mix-blend-mode:luminosity">
<path d="M157.271 27.976V21.1023H154.199L153.162 19.9164H163.793L162.756 21.1023H159.721V27.976H157.271ZM145.679 23.5848V27.976H143.229V19.9165L149.977 24.2705V19.9165H152.389V27.976L145.679 23.5848ZM132.882 27.976V19.9165H142.079L141.043 21.1024H135.332V23.3626H141.532V24.5485H135.332V26.7902H141.005L142.061 27.976H132.882ZM128.904 27.976V23.3626L126.284 24.9931L123.683 23.3626V27.976H121.232V19.9165L126.284 23.1404L131.335 19.9165V27.976H128.904ZM110.621 27.976V19.9165H119.688V25.1228H113.072V27.976H110.621ZM113.053 23.9371H117.237V21.1023H113.053V23.9371ZM101.763 27.976L99.7651 25.7527V19.9165H109.076V27.976H101.763ZM102.215 25.2339L103.61 26.7902H106.626V21.1023H102.215V25.2339ZM91.0195 27.976V19.9165H93.4698V26.7909H98.9923L97.9368 27.976H91.0195ZM80.6724 27.976V19.9165H89.8703L88.8338 21.1024H83.1219V23.3626H89.3224V24.5485H83.1219V26.7902H88.7954L89.8503 27.976H80.6724ZM74.0379 27.976L69.7021 19.9165H72.0957L74.8097 25.2898L77.5052 19.9165H79.8988L75.5639 27.976H74.0379ZM60.1272 27.976V19.9165H69.3251L68.2886 21.1024H62.5773V23.3626H68.7792V24.5485H62.5773V26.7902H68.2508L69.3062 27.976H60.1272ZM50.1181 27.976V19.9165H56.7526L59.3538 23.9555L56.7532 27.976H50.1181ZM52.5684 26.7902H55.0564L56.9223 23.9554L55.0564 21.1023H52.5697L52.5684 26.7902ZM148.366 17.4984V4.60324H163.866L162.208 6.50045H152.346V15.6012H159.373V10.4727H163.293V17.4984H148.366ZM135.157 10.4727V17.4984H131.236V4.60324L142.033 11.5696V4.60324H145.893V17.4984L135.157 10.4727ZM124.813 17.4984V12.0144H117.877V17.4984H113.866V4.60324H128.763V17.4984H124.813ZM117.937 10.0874H124.722V6.50045H117.937V10.0874ZM97.008 17.4984V4.60324H110.247V9.52427H111.393V17.4984H97.008ZM100.928 15.6013H107.472V11.4214H100.928V15.6013ZM100.928 9.52427H107.472V6.50045H100.928V9.52427ZM74.3297 17.4984V4.60324H89.8306L88.1718 6.50045H78.3106V15.6012H85.3371V10.4727H89.2575V17.4984H74.3297ZM67.3634 17.4984V4.60324H71.2838V17.4984H67.3634ZM49.9326 17.4984V4.60324H63.1714V9.52427H64.3174V17.4984H49.9326ZM53.8527 15.6013H60.3969V11.4214H53.8528L53.8527 15.6013ZM53.8527 9.52427H60.3969V6.50045H53.8528L53.8527 9.52427Z" fill="black"/>
<g filter="url(#filter0_d)">
<path d="M24.5537 27.034H0V5.02336H20.1214V17.1826H22.0776V25.5821H24.5538V27.0339L24.5537 27.034ZM6.69178 16.6612V23.7957H17.8619V16.6612H6.69178ZM6.69178 8.26171V13.4228H17.8619V8.26171H6.69178ZM44.6751 25.5822H24.5537V13.4228H22.5975V5.02336H20.1212V3.57144H44.6751V25.5821V25.5822ZM26.8132 17.1826V22.3438H37.9833V17.1826H26.8132ZM26.8132 6.80979V13.9443H37.9833V6.80979H26.8132Z" fill="url(#paint0_linear)"/>
</g>
</g>
<defs>
<filter id="filter0_d" x="-6" y="0.571442" width="56.6751" height="35.4626" filterUnits="userSpaceOnUse" color-interpolation-filters="sRGB">
<feFlood flood-opacity="0" result="BackgroundImageFix"/>
<feColorMatrix in="SourceAlpha" type="matrix" values="0 0 0 0 0 0 0 0 0 0 0 0 0 0 0 0 0 0 127 0"/>
<feOffset dy="3"/>
<feGaussianBlur stdDeviation="3"/>
<feColorMatrix type="matrix" values="0 0 0 0 0 0 0 0 0 0 0 0 0 0 0 0 0 0 0.161 0"/>
<feBlend mode="normal" in2="BackgroundImageFix" result="effect1_dropShadow"/>
<feBlend mode="normal" in="SourceGraphic" in2="effect1_dropShadow" result="shape"/>
</filter>
<linearGradient id="paint0_linear" x1="1.2509" y1="3.57144" x2="18.7931" y2="39.1055" gradientUnits="userSpaceOnUse">
<stop stop-color="#FFA62E"/>
<stop offset="1" stop-color="#FF2C00"/>
</linearGradient>
</defs>
</svg>