<svg xmlns="http://www.w3.org/2000/svg" width="181" height="31" viewBox="0 0 181 31" fill="none">
<path d="M8.74282 30.8286C5.22853 30.8286 2.48567 30.0571 0.171387 27.8286L2.22853 25.7714C3.8571 27.4857 6.08567 28.1714 8.6571 28.1714C12.0857 28.1714 14.2285 26.9714 14.2285 24.4857C14.2285 22.6857 13.2 21.6571 10.8 21.4857L7.37139 21.2286C3.34282 20.8857 1.19996 19 1.19996 15.5714C1.19996 11.8 4.37139 9.57141 8.82853 9.57141C11.7428 9.57141 14.4857 10.2571 16.2857 11.8L14.3142 13.7714C12.8571 12.6571 10.9714 12.1428 8.74282 12.1428C5.74282 12.1428 4.11424 13.4286 4.11424 15.5714C4.11424 17.3714 5.14282 18.4 7.71424 18.5714L11.0571 18.8286C14.6571 19.1714 17.1428 20.5428 17.1428 24.4857C17.2285 28.5143 13.8 30.8286 8.74282 30.8286Z" fill="#AAABA9"/>
<path d="M31.8859 15.2286C31.1144 13.3428 29.2287 12.1428 27.0001 12.1428C24.7716 12.1428 22.9716 13.3428 22.1144 15.2286C21.6859 16.3428 21.6001 17.0286 21.5144 18.6571H32.4859C32.4001 17.0286 32.3144 16.3428 31.8859 15.2286ZM21.5144 20.9714C21.5144 25.5143 23.6573 28.1714 27.6001 28.1714C30.0001 28.1714 31.3716 27.4857 33.0859 25.7714L35.143 27.5714C33.0001 29.7143 31.1144 30.7428 27.5144 30.7428C22.0287 30.7428 18.4287 27.4857 18.4287 20.1143C18.4287 13.4286 21.6859 9.4857 27.0001 9.4857C32.4001 9.4857 35.5716 13.3428 35.5716 19.5143V20.8857L21.5144 20.9714Z" fill="#AAABA9"/>
<path d="M44.9998 30.5714H42.257L34.6284 9.74284H37.9713L43.6284 26.4571L49.2856 9.74284H52.6284L44.9998 30.5714Z" fill="#AAABA9"/>
<path d="M64.8856 15.2286C64.1142 13.3428 62.2284 12.1428 59.9999 12.1428C57.7713 12.1428 55.9713 13.3428 55.1142 15.2286C54.6856 16.3428 54.5999 17.0286 54.5142 18.6571H65.4856C65.4856 17.0286 65.3999 16.3428 64.8856 15.2286ZM54.5999 20.9714C54.5999 25.5143 56.7427 28.1714 60.6856 28.1714C63.0856 28.1714 64.457 27.4857 66.1713 25.7714L68.2284 27.5714C66.0856 29.7143 64.1999 30.7428 60.5999 30.7428C55.1142 30.7428 51.5142 27.4857 51.5142 20.1143C51.5142 13.4286 54.7713 9.4857 60.0856 9.4857C65.4856 9.4857 68.657 13.3428 68.657 19.5143V20.8857H54.5999V20.9714Z" fill="#AAABA9"/>
<path d="M82.1144 13.7714C81.0001 12.6571 80.143 12.2286 78.5144 12.2286C75.5144 12.2286 73.543 14.6286 73.543 17.8V30.5714H70.543V9.74285H73.543V12.3143C74.6573 10.6 76.9715 9.4857 79.3715 9.4857C81.343 9.4857 82.8858 9.91427 84.343 11.4571L82.1144 13.7714Z" fill="#AAABA9"/>
<path d="M98.3143 20.9714H92.4857C89.4 20.9714 87.8572 22.2571 87.8572 24.6571C87.8572 27.0571 89.3143 28.1714 92.6572 28.1714C94.4572 28.1714 96 28.0857 97.2857 26.8C97.9714 26.1143 98.3143 24.9143 98.3143 23.2V20.9714ZM98.3143 30.5714V28.6C96.6 30.3143 95.1429 30.8286 92.3143 30.8286C89.4 30.8286 87.7714 30.3143 86.4857 28.9428C85.4572 27.9143 84.9429 26.3714 84.9429 24.7428C84.9429 21.1428 87.5143 18.7428 92.1429 18.7428H98.4V16.7714C98.4 13.7714 96.8572 12.2286 93.0857 12.2286C90.4286 12.2286 89.0572 12.8286 87.8572 14.6286L85.8 12.7428C87.6857 10.3428 89.7429 9.65714 93.1714 9.65714C98.7429 9.65714 101.486 12.0571 101.486 16.6V30.7428H98.3143V30.5714Z" fill="#AAABA9"/>
<path d="M108.257 30.5714C104.657 30.5714 102.943 28.1714 102.943 25V0.485687H105.943V24.9143C105.943 26.9714 106.629 27.9143 108.771 27.9143H110.4V30.5714H108.257Z" fill="#AAABA9"/>
<path d="M126.086 30.5714V17.2857C126.086 14.2857 124.2 13.2571 122.486 13.2571C120.772 13.2571 118.8 14.2857 118.8 17.2857V30.5714H113.314V8.54285H118.714V10.6C120.172 9.05713 122.143 8.28571 124.2 8.28571C126.429 8.28571 128.143 8.97142 129.429 10.2571C131.229 12.0571 131.657 14.1143 131.657 16.5143V30.5714H126.086Z" fill="#1B85BC"/>
<path d="M131.057 10.1714C132.686 12.3143 132.943 14.6286 132.943 16.5143V30.5714H136.629V8.54285H131.143V10.1714" fill="#1B85BC"/>
<path d="M130.971 4.77141H136.628V0.31427H130.971V4.77141Z" fill="#1B85BC"/>
<path d="M151.971 10.2571C150.771 9.05713 148.971 8.28571 146.743 8.28571C144.685 8.28571 142.714 9.05713 141.257 10.6V8.54285H137.914V30.5714H141.428V17.2857C141.428 14.2857 143.4 13.2571 145.114 13.2571C146.828 13.2571 148.714 14.2857 148.714 17.2857V30.5714H154.2V16.5143C154.2 14.1143 153.771 12.0571 151.971 10.2571Z" fill="#1B85BC"/>
<path d="M155.571 17.5428C155.571 16.6 155.743 16 156.086 15.1428C156.686 13.8571 157.886 12.8286 159.771 12.8286C161.657 12.8286 162.857 13.7714 163.457 15.1428C163.8 15.9143 163.886 16.5143 163.972 17.5428H155.571ZM169.372 18.8286C169.372 12.8286 165.943 8.28571 159.771 8.28571C157.457 8.28571 155.4 8.97142 153.771 10.2571C155.314 12.3143 155.571 14.6286 155.571 16.4286V29.8857C157.029 30.4857 158.657 30.7428 160.372 30.7428C164.314 30.7428 166.457 29.5428 168.771 27.3143L165.429 24.1428C164.057 25.5143 162.857 26.2 160.457 26.2C157.371 26.2 155.657 24.1428 155.657 21.3143H169.457L169.372 18.8286Z" fill="#1B85BC"/>
<path d="M174.086 17.2L170.657 16.8571C170.743 17.4571 170.743 18.1428 170.743 18.8286V21.5714L172.972 21.7428C174.686 21.9143 175.286 22.6857 175.286 23.8C175.286 25.4286 173.314 26.1143 171.429 26.1143C170.829 26.1143 170.057 26.1143 169.286 25.9428L170.743 27.3143L169.8 28.2571C168.943 29.1143 168.172 29.8 167.143 30.4C168.514 30.6571 169.886 30.7428 171.343 30.7428C176.572 30.7428 180.686 28.4286 180.686 23.5428C180.6 19.9428 178.372 17.6286 174.086 17.2Z" fill="#1B85BC"/>
<path d="M169.628 13.1714C170.057 13 170.743 12.8286 171.428 12.8286C173.314 12.8286 175.286 13.1714 176.571 14.2857L179.914 10.8571C177.771 8.88571 174.943 8.28571 171.514 8.28571C169.8 8.28571 168.171 8.62856 166.8 9.31428C168 10.3428 168.943 11.6286 169.628 13.1714Z" fill="#1B85BC"/>
</svg>
