<svg width="140" height="78" viewBox="0 0 140 78" fill="none" xmlns="http://www.w3.org/2000/svg">
<g clip-path="url(#clip0)">
<g filter="url(#filter0_d)">
<path d="M28.0823 50.0767H27.5315C27.7116 50.0767 27.8919 50.0707 28.0823 50.0628V50.0774V50.0767ZM27.1643 50.0767L11.3866 50.0421C9.93426 50.0704 8.52985 49.5218 7.48122 48.5165C6.43259 47.5112 5.82503 46.1317 5.79199 44.6794V27.791C5.82503 26.3387 6.43259 24.9592 7.48122 23.9539C8.52985 22.9486 9.93426 22.4 11.3866 22.4283H28.0823V22.4698C30.8617 22.4777 33.5547 23.4374 35.7126 25.1892C36.7462 26.0531 37.5697 27.1406 38.1216 28.3694C38.6715 29.6579 38.9455 31.047 38.9251 32.4477V33.6023H31.1488C31.1962 32.4485 30.858 31.3114 30.1886 30.3705C29.9366 30.0372 29.6199 29.7583 29.2576 29.5501C28.8952 29.342 28.4949 29.2089 28.08 29.1591V43.3766C28.4951 43.3266 28.896 43.1934 29.2584 42.9848C29.6207 42.7763 29.9368 42.4967 30.1886 42.1629C30.8609 41.2153 31.1991 40.0711 31.1488 38.9104H38.9251V40.1057C38.9454 41.5013 38.6706 42.8855 38.1193 44.1678C37.5641 45.3953 36.7385 46.4812 35.7034 47.3435C33.5481 49.0936 30.8586 50.054 28.0823 50.0651V50.0651V43.3789C27.8787 43.407 27.6732 43.4208 27.4677 43.4204C26.8969 43.4396 26.3313 43.3096 25.8261 43.0432C25.3209 42.7768 24.8936 42.3835 24.587 41.9017C23.8285 40.5724 23.4733 39.0508 23.5646 37.5231V35.0357C23.4713 33.5018 23.8265 31.974 24.587 30.6386C24.8938 30.1569 25.321 29.7635 25.8261 29.4971C26.3313 29.2307 26.897 29.101 27.4677 29.1199C27.6732 29.1194 27.8787 29.1331 28.0823 29.1614V22.4752C27.862 22.4665 27.6356 22.4621 27.3886 22.4621C23.5019 22.4621 20.4571 23.5986 18.3379 25.8444C16.2188 28.0902 15.1446 31.1854 15.1446 35.0595V37.4708C15.1446 41.33 16.2224 44.4307 18.3487 46.6851C20.4316 48.8979 23.398 50.0411 27.1635 50.0836L27.1643 50.0767ZM122.956 50.0352C119.602 50.0352 116.97 49.1159 115.131 47.3028C114.195 46.3709 113.484 45.2381 113.052 43.9904C112.568 42.5495 112.333 41.0363 112.358 39.5165V38.4787C112.3 37.0991 112.521 35.7218 113.008 34.4296C113.494 33.1373 114.237 31.957 115.19 30.9582C116.138 30.0042 117.285 29.2711 118.549 28.8119C119.965 28.3157 121.458 28.074 122.958 28.0967C126.219 28.0967 128.82 29.049 130.686 30.9282C131.635 31.9235 132.373 33.0999 132.856 34.3873C133.339 35.6748 133.557 37.0472 133.497 38.4211V39.4773C133.522 41.0025 133.288 42.521 132.806 43.9681C132.376 45.2196 131.668 46.3565 130.733 47.2935C128.898 49.1098 126.286 50.0329 122.956 50.0329V50.0352ZM122.938 33.8158C121.273 33.8158 120.43 35.3146 120.43 38.2636V39.8499C120.43 42.8138 121.273 44.3161 122.938 44.3161C124.59 44.3161 125.425 42.8138 125.425 39.8499V38.2636C125.425 35.3122 124.588 33.8127 122.938 33.8127V33.8158ZM79.5012 50.0352C76.3437 50.0352 73.906 49.4061 72.2541 48.1562C71.4776 47.6125 70.8448 46.8875 70.4113 46.0445C69.9778 45.2014 69.7565 44.2654 69.766 43.3174H77.444C77.4612 43.5709 77.5344 43.8177 77.6583 44.0395C77.7822 44.2614 77.9539 44.4527 78.1607 44.6003C78.6476 44.9478 79.2361 45.1233 79.8338 45.0996C80.3495 45.1294 80.8601 44.9848 81.2833 44.6886C81.4454 44.5769 81.5782 44.4277 81.6705 44.2538C81.7628 44.08 81.8117 43.8861 81.8134 43.6892C81.8179 43.4163 81.7162 43.1528 81.5292 42.9541C81.2821 42.7192 80.979 42.5513 80.6488 42.4663C80.25 42.342 79.8675 42.2392 79.5111 42.1613C79.1548 42.0835 78.6725 41.9946 78.0731 41.8978C77.4737 41.8011 77.0068 41.7165 76.6819 41.652C74.8851 41.3749 73.2093 40.5763 71.8624 39.3552C71.3251 38.7941 70.906 38.131 70.6302 37.4048C70.3544 36.6785 70.2275 35.9041 70.2569 35.1279C70.2351 34.0102 70.4975 32.9053 71.0197 31.9169C71.5121 31.0105 72.2357 30.2508 73.1168 29.7145C74.0448 29.1585 75.0529 28.7492 76.1058 28.5008C77.2902 28.2242 78.5039 28.0895 79.7201 28.099C81.2789 28.0703 82.8314 28.3022 84.3138 28.785C85.5596 29.1975 86.6584 29.9624 87.4779 30.9874C88.2911 32.0582 88.7135 33.3752 88.674 34.7192H81.8564C81.775 34.2415 81.5326 33.8057 81.1696 33.4847C80.7387 33.138 80.1938 32.9641 79.6417 32.9969C79.1306 32.9611 78.6241 33.1103 78.2137 33.4171C78.0617 33.5376 77.9382 33.6906 77.8534 33.865C77.7686 34.0394 77.7245 34.231 77.7236 34.425C77.7216 34.5797 77.7508 34.7328 77.8096 34.8759C77.8684 35.0191 77.9552 35.1491 78.0654 35.2577C78.3688 35.5262 78.7319 35.718 79.1247 35.8169C79.5967 35.9601 80.0359 36.0717 80.426 36.1495C80.8162 36.2274 81.3451 36.3139 82.0538 36.4138C82.6241 36.4925 83.2075 36.5807 83.5426 36.6396C85.1794 36.8459 86.7192 37.5299 87.9696 38.6062C88.4826 39.1419 88.8795 39.7776 89.1357 40.4736C89.3919 41.1697 89.5023 41.9117 89.4591 42.6522C89.4991 43.695 89.2868 44.7319 88.8399 45.675C88.393 46.6181 87.7243 47.4393 86.8918 48.0686C85.1841 49.3705 82.6996 50.0329 79.4989 50.0329L79.5012 50.0352ZM50.6322 49.9199C49.7058 49.9697 48.7797 49.8215 47.9151 49.4852C47.0506 49.1488 46.2674 48.6322 45.6183 47.9695C44.4226 46.6787 43.8169 44.7447 43.8169 42.222V28.5077H51.7491V40.2224C51.7352 40.7872 51.8186 41.3496 51.9949 41.8863C52.1147 42.2778 52.342 42.6279 52.651 42.8965C52.888 43.0907 53.1563 43.2433 53.4445 43.3474C53.7071 43.433 53.9818 43.4758 54.258 43.4741C54.6036 43.475 54.9454 43.4012 55.2597 43.2575C55.574 43.1139 55.853 42.9033 56.0786 42.6414C56.6351 41.9406 56.9083 41.0566 56.8429 40.1641V28.5077H64.7767V49.6234H57.1179V46.079H56.7246C56.3396 47.152 55.6312 48.0793 54.6974 48.7331C53.5099 49.567 52.0795 49.9835 50.6299 49.9176L50.6322 49.9199ZM104.49 49.6242C101.59 49.6242 99.4311 49.1631 98.0734 48.2538C96.7157 47.3444 96.0278 45.7629 96.0278 43.5533V34.3843H92.8145V28.5077H96.2636V23.8226H103.884V28.5039H107.839V34.3804H103.884V41.7857C103.884 43.1772 104.727 43.882 106.39 43.882C107.085 43.882 107.57 43.8688 107.839 43.8429V49.4275C106.729 49.5665 105.611 49.632 104.492 49.6234L104.49 49.6242Z" fill="#CACACA"/>
</g>
</g>
<defs>
<filter id="filter0_d" x="-0.208008" y="19.4273" width="139.714" height="39.6563" filterUnits="userSpaceOnUse" color-interpolation-filters="sRGB">
<feFlood flood-opacity="0" result="BackgroundImageFix"/>
<feColorMatrix in="SourceAlpha" type="matrix" values="0 0 0 0 0 0 0 0 0 0 0 0 0 0 0 0 0 0 127 0"/>
<feOffset dy="3"/>
<feGaussianBlur stdDeviation="3"/>
<feColorMatrix type="matrix" values="0 0 0 0 0 0 0 0 0 0 0 0 0 0 0 0 0 0 0.161 0"/>
<feBlend mode="normal" in2="BackgroundImageFix" result="effect1_dropShadow"/>
<feBlend mode="normal" in="SourceGraphic" in2="effect1_dropShadow" result="shape"/>
</filter>
<clipPath id="clip0">
<rect width="139.714" height="39.4286" fill="none" transform="translate(0 19)"/>
</clipPath>
</defs>
</svg>