<svg
    xmlns="http://www.w3.org/2000/svg"
    width="129"
    height="28"
    viewBox="0 0 129 28"
    fill="none">
    <path
        d="M23.0823 27.9338H22.5315C22.7116 27.9338 22.8919 27.9278 23.0823 27.92V27.9346V27.9338ZM22.1643 27.9338L6.38665 27.8992C4.93426 27.9275 3.52985 27.3789 2.48122 26.3736C1.43259 25.3683 0.825025 23.9888 0.791992 22.5366V5.64811C0.825025 4.19583 1.43259 2.81634 2.48122 1.81106C3.52985 0.805774 4.93426 0.257178 6.38665 0.285449H23.0823V0.326931C25.8617 0.3348 28.5547 1.29454 30.7126 3.04629C31.7462 3.91026 32.5697 4.99768 33.1216 6.22655C33.6715 7.51498 33.9455 8.90409 33.9251 10.3048V11.4594H26.1488C26.1962 10.3056 25.858 9.16856 25.1886 8.22766C24.9366 7.89434 24.6199 7.61539 24.2576 7.40725C23.8952 7.1991 23.4949 7.06601 23.08 7.01624V21.2337C23.4951 21.1837 23.896 21.0505 24.2584 20.8419C24.6207 20.6334 24.9368 20.3538 25.1886 20.02C25.8609 19.0725 26.1991 17.9282 26.1488 16.7675H33.9251V17.9628C33.9454 19.3584 33.6706 20.7427 33.1193 22.0249C32.5641 23.2525 31.7385 24.3383 30.7034 25.2006C28.5481 26.9508 25.8586 27.9111 23.0823 27.9223V21.236C22.8787 21.2642 22.6732 21.2779 22.4677 21.2775C21.8969 21.2967 21.3313 21.1667 20.8261 20.9003C20.3209 20.6339 19.8936 20.2407 19.587 19.7588C18.8285 18.4296 18.4733 16.9079 18.5646 15.3802V12.8928C18.4713 11.3589 18.8265 9.83112 19.587 8.49576C19.8938 8.01408 20.321 7.6206 20.8261 7.35424C21.3313 7.08788 21.897 6.95809 22.4677 6.97707C22.6732 6.97654 22.8787 6.99026 23.0823 7.01855V0.332308C22.862 0.323656 22.6356 0.319249 22.3886 0.319249C18.5019 0.319249 15.4571 1.45576 13.3379 3.70155C11.2188 5.94734 10.1446 9.04255 10.1446 12.9166V15.328C10.1446 19.1871 11.2224 22.2878 13.3487 24.5423C15.4316 26.755 18.398 27.8982 22.1635 27.9407L22.1643 27.9338ZM117.956 27.8923C114.602 27.8923 111.97 26.973 110.131 25.1599C109.195 24.2281 108.484 23.0953 108.052 21.8475C107.568 20.4067 107.333 18.8934 107.358 17.3736V16.3358C107.3 14.9562 107.521 13.579 108.008 12.2867C108.494 10.9945 109.237 9.8141 110.19 8.81532C111.138 7.86137 112.285 7.1282 113.549 6.66903C114.965 6.17281 116.458 5.93113 117.958 5.95385C121.219 5.95385 123.82 6.90614 125.686 8.78536C126.635 9.78061 127.373 10.957 127.856 12.2445C128.339 13.532 128.557 14.9044 128.497 16.2782V17.3344C128.522 18.8597 128.288 20.3781 127.806 21.8252C127.376 23.0767 126.668 24.2136 125.733 25.1507C123.898 26.967 121.286 27.89 117.956 27.89V27.8923ZM117.938 11.6729C116.273 11.6729 115.43 13.1717 115.43 16.1207V17.707C115.43 20.671 116.273 22.1732 117.938 22.1732C119.59 22.1732 120.425 20.671 120.425 17.707V16.1207C120.425 13.1693 119.588 11.6699 117.938 11.6699V11.6729ZM74.5012 27.8923C71.3437 27.8923 68.906 27.2633 67.2542 26.0133C66.4776 25.4696 65.8448 24.7447 65.4113 23.9016C64.9778 23.0586 64.7565 22.1225 64.766 21.1746H72.444C72.4612 21.4281 72.5344 21.6748 72.6583 21.8967C72.7822 22.1185 72.9539 22.3098 73.1607 22.4574C73.6476 22.8049 74.2361 22.9804 74.8338 22.9567C75.3495 22.9865 75.8601 22.842 76.2833 22.5458C76.4454 22.434 76.5782 22.2849 76.6705 22.111C76.7628 21.9371 76.8117 21.7432 76.8134 21.5464C76.8179 21.2735 76.7162 21.0099 76.5292 20.8112C76.2821 20.5764 75.979 20.4084 75.6488 20.3234C75.25 20.1991 74.8675 20.0963 74.5111 20.0185C74.1548 19.9406 73.6725 19.8517 73.0731 19.755C72.4737 19.6582 72.0068 19.5737 71.6819 19.5092C69.8851 19.232 68.2093 18.4334 66.8624 17.2123C66.3251 16.6513 65.906 15.9881 65.6302 15.2619C65.3544 14.5357 65.2275 13.7613 65.2569 12.985C65.2351 11.8673 65.4975 10.7624 66.0197 9.77401C66.5121 8.86764 67.2357 8.10789 68.1168 7.57164C69.0448 7.01566 70.0529 6.60628 71.1058 6.35791C72.2902 6.08137 73.5039 5.94664 74.7201 5.95615C76.2789 5.92745 77.8314 6.15934 79.3138 6.64214C80.5596 7.05462 81.6584 7.81958 82.4779 8.84451C83.2911 9.91529 83.7135 11.2324 83.674 12.5763H76.8564C76.775 12.0986 76.5326 11.6629 76.1696 11.3419C75.7387 10.9952 75.1938 10.8212 74.6417 10.8541C74.1306 10.8183 73.6241 10.9675 73.2137 11.2743C73.0617 11.3947 72.9382 11.5477 72.8534 11.7221C72.7686 11.8965 72.7245 12.0882 72.7236 12.2821C72.7216 12.4369 72.7508 12.5899 72.8096 12.733C72.8684 12.8762 72.9552 13.0062 73.0654 13.1148C73.3688 13.3834 73.7319 13.5751 74.1247 13.6741C74.5967 13.8172 75.0359 13.9288 75.426 14.0067C75.8162 14.0846 76.3451 14.171 77.0538 14.2709C77.6241 14.3496 78.2075 14.4378 78.5425 14.4968C80.1794 14.7031 81.7192 15.3871 82.9696 16.4633C83.4826 16.9991 83.8795 17.6347 84.1357 18.3308C84.3919 19.0268 84.5023 19.7689 84.4591 20.5093C84.4991 21.5522 84.2868 22.589 83.8399 23.5321C83.393 24.4752 82.7243 25.2964 81.8918 25.9258C80.1841 27.2276 77.6996 27.89 74.4989 27.89L74.5012 27.8923ZM45.6322 27.7771C44.7058 27.8268 43.7797 27.6787 42.9151 27.3423C42.0506 27.0059 41.2674 26.4894 40.6183 25.8267C39.4226 24.5358 38.8169 22.6018 38.8169 20.0791V6.36483H46.7491V18.0796C46.7352 18.6443 46.8186 19.2067 46.9949 19.7435C47.1147 20.1349 47.342 20.485 47.651 20.7536C47.888 20.9478 48.1563 21.1004 48.4445 21.2045C48.7071 21.2901 48.9818 21.333 49.258 21.3313C49.6036 21.3321 49.9454 21.2583 50.2597 21.1147C50.574 20.971 50.853 20.7604 51.0786 20.4986C51.6351 19.7977 51.9083 18.9137 51.8429 18.0212V6.36483H59.7767V27.4806H52.1179V23.9362H51.7246C51.3396 25.0091 50.6312 25.9364 49.6974 26.5902C48.5099 27.4242 47.0795 27.8407 45.6299 27.7748L45.6322 27.7771ZM99.4901 27.4813C96.5898 27.4813 94.4311 27.0202 93.0734 26.1109C91.7157 25.2016 91.0278 23.62 91.0278 21.4104V12.2414H87.8145V6.36483H91.2636V1.6797H98.884V6.36099H102.839V12.2376H98.884V19.6428C98.884 21.0343 99.7269 21.7392 101.39 21.7392C102.085 21.7392 102.57 21.726 102.839 21.7V27.2847C101.729 27.4237 100.611 27.4891 99.4916 27.4806L99.4901 27.4813Z"
        fill="#AAABA9"/>
</svg>