<svg width="181" height="78" viewBox="0 0 181 78" fill="none" xmlns="http://www.w3.org/2000/svg">
<g id="Group 166" style="mix-blend-mode:luminosity">
<g id="severalnines 1" clip-path="url(#clip0)">
<g id="Layer 2">
<g id="severalnines logo 1">
<g id="Group 3 1">
<path id="Fill 1 1" d="M8.74282 53.8286C5.22853 53.8286 2.48567 53.0571 0.171387 50.8286L2.22853 48.7714C3.8571 50.4857 6.08567 51.1714 8.6571 51.1714C12.0857 51.1714 14.2285 49.9714 14.2285 47.4857C14.2285 45.6857 13.2 44.6571 10.8 44.4857L7.37139 44.2286C3.34282 43.8857 1.19996 42 1.19996 38.5714C1.19996 34.8 4.37139 32.5714 8.82853 32.5714C11.7428 32.5714 14.4857 33.2571 16.2857 34.8L14.3142 36.7714C12.8571 35.6571 10.9714 35.1428 8.74282 35.1428C5.74282 35.1428 4.11424 36.4286 4.11424 38.5714C4.11424 40.3714 5.14282 41.4 7.71424 41.5714L11.0571 41.8286C14.6571 42.1714 17.1428 43.5428 17.1428 47.4857C17.2285 51.5143 13.8 53.8286 8.74282 53.8286Z" fill="#AAAAAA"/>
</g>
<path id="Fill 4 1" d="M31.8859 38.2286C31.1144 36.3428 29.2287 35.1428 27.0001 35.1428C24.7716 35.1428 22.9716 36.3428 22.1144 38.2286C21.6859 39.3428 21.6001 40.0286 21.5144 41.6571H32.4859C32.4001 40.0286 32.3144 39.3428 31.8859 38.2286ZM21.5144 43.9714C21.5144 48.5143 23.6573 51.1714 27.6001 51.1714C30.0001 51.1714 31.3716 50.4857 33.0859 48.7714L35.143 50.5714C33.0001 52.7143 31.1144 53.7428 27.5144 53.7428C22.0287 53.7428 18.4287 50.4857 18.4287 43.1143C18.4287 36.4286 21.6859 32.4857 27.0001 32.4857C32.4001 32.4857 35.5716 36.3428 35.5716 42.5143V43.8857L21.5144 43.9714Z" fill="#AAAAAA"/>
<path id="Fill 5 1" d="M44.9998 53.5714H42.257L34.6284 32.7428H37.9713L43.6284 49.4571L49.2856 32.7428H52.6284L44.9998 53.5714Z" fill="#AAAAAA"/>
<path id="Fill 6 1" d="M64.8856 38.2286C64.1142 36.3428 62.2284 35.1428 59.9999 35.1428C57.7713 35.1428 55.9713 36.3428 55.1142 38.2286C54.6856 39.3428 54.5999 40.0286 54.5142 41.6571H65.4856C65.4856 40.0286 65.3999 39.3428 64.8856 38.2286ZM54.5999 43.9714C54.5999 48.5143 56.7427 51.1714 60.6856 51.1714C63.0856 51.1714 64.457 50.4857 66.1713 48.7714L68.2284 50.5714C66.0856 52.7143 64.1999 53.7428 60.5999 53.7428C55.1142 53.7428 51.5142 50.4857 51.5142 43.1143C51.5142 36.4286 54.7713 32.4857 60.0856 32.4857C65.4856 32.4857 68.657 36.3428 68.657 42.5143V43.8857H54.5999V43.9714Z" fill="#AAAAAA"/>
<path id="Fill 7 1" d="M82.1144 36.7714C81.0001 35.6571 80.143 35.2286 78.5144 35.2286C75.5144 35.2286 73.543 37.6286 73.543 40.8V53.5714H70.543V32.7428H73.543V35.3143C74.6573 33.6 76.9715 32.4857 79.3715 32.4857C81.343 32.4857 82.8858 32.9143 84.343 34.4571L82.1144 36.7714Z" fill="#AAAAAA"/>
<path id="Fill 8 1" d="M98.3143 43.9714H92.4857C89.4 43.9714 87.8572 45.2571 87.8572 47.6571C87.8572 50.0571 89.3143 51.1714 92.6572 51.1714C94.4572 51.1714 96 51.0857 97.2857 49.8C97.9714 49.1143 98.3143 47.9143 98.3143 46.2V43.9714ZM98.3143 53.5714V51.6C96.6 53.3143 95.1429 53.8286 92.3143 53.8286C89.4 53.8286 87.7714 53.3143 86.4857 51.9428C85.4572 50.9143 84.9429 49.3714 84.9429 47.7428C84.9429 44.1428 87.5143 41.7428 92.1429 41.7428H98.4V39.7714C98.4 36.7714 96.8572 35.2286 93.0857 35.2286C90.4286 35.2286 89.0572 35.8286 87.8572 37.6286L85.8 35.7428C87.6857 33.3428 89.7429 32.6571 93.1714 32.6571C98.7429 32.6571 101.486 35.0571 101.486 39.6V53.7428H98.3143V53.5714Z" fill="#AAAAAA"/>
<path id="Fill 9 1" d="M108.257 53.5714C104.657 53.5714 102.943 51.1714 102.943 48V23.4857H105.943V47.9143C105.943 49.9714 106.629 50.9143 108.771 50.9143H110.4V53.5714H108.257Z" fill="#AAAAAA"/>
<path id="Fill 10 1" d="M126.086 53.5714V40.2857C126.086 37.2857 124.2 36.2571 122.486 36.2571C120.772 36.2571 118.8 37.2857 118.8 40.2857V53.5714H113.314V31.5428H118.714V33.6C120.172 32.0571 122.143 31.2857 124.2 31.2857C126.429 31.2857 128.143 31.9714 129.429 33.2571C131.229 35.0571 131.657 37.1143 131.657 39.5143V53.5714H126.086Z" fill="#6B6B6B"/>
<path id="Fill 11 1" d="M131.057 33.1714C132.686 35.3143 132.943 37.6286 132.943 39.5143V53.5714H136.629V31.5428H131.143V33.1714" fill="#6B6B6B"/>
<path id="Fill 12 1" d="M130.971 27.7714H136.628V23.3143H130.971V27.7714Z" fill="#6B6B6B"/>
<path id="Fill 13 1" d="M151.971 33.2571C150.771 32.0571 148.971 31.2857 146.743 31.2857C144.685 31.2857 142.714 32.0571 141.257 33.6V31.5428H137.914V53.5714H141.428V40.2857C141.428 37.2857 143.4 36.2571 145.114 36.2571C146.828 36.2571 148.714 37.2857 148.714 40.2857V53.5714H154.2V39.5143C154.2 37.1143 153.771 35.0571 151.971 33.2571Z" fill="#6B6B6B"/>
<path id="Fill 14 1" d="M155.571 40.5428C155.571 39.6 155.743 39 156.086 38.1428C156.686 36.8571 157.886 35.8286 159.771 35.8286C161.657 35.8286 162.857 36.7714 163.457 38.1428C163.8 38.9143 163.886 39.5143 163.972 40.5428H155.571ZM169.372 41.8286C169.372 35.8286 165.943 31.2857 159.771 31.2857C157.457 31.2857 155.4 31.9714 153.771 33.2571C155.314 35.3143 155.571 37.6286 155.571 39.4286V52.8857C157.029 53.4857 158.657 53.7428 160.372 53.7428C164.314 53.7428 166.457 52.5428 168.771 50.3143L165.429 47.1428C164.057 48.5143 162.857 49.2 160.457 49.2C157.371 49.2 155.657 47.1428 155.657 44.3143H169.457L169.372 41.8286Z" fill="#6B6B6B"/>
<path id="Fill 15 1" d="M174.086 40.2L170.657 39.8571C170.743 40.4571 170.743 41.1428 170.743 41.8286V44.5714L172.972 44.7428C174.686 44.9143 175.286 45.6857 175.286 46.8C175.286 48.4286 173.314 49.1143 171.429 49.1143C170.829 49.1143 170.057 49.1143 169.286 48.9428L170.743 50.3143L169.8 51.2571C168.943 52.1143 168.172 52.8 167.143 53.4C168.514 53.6571 169.886 53.7428 171.343 53.7428C176.572 53.7428 180.686 51.4286 180.686 46.5428C180.6 42.9428 178.372 40.6286 174.086 40.2Z" fill="#6B6B6B"/>
<path id="Fill 16 1" d="M169.628 36.1714C170.057 36 170.743 35.8286 171.428 35.8286C173.314 35.8286 175.286 36.1714 176.571 37.2857L179.914 33.8571C177.771 31.8857 174.943 31.2857 171.514 31.2857C169.8 31.2857 168.171 31.6286 166.8 32.3143C168 33.3428 168.943 34.6286 169.628 36.1714Z" fill="#6B6B6B"/>
</g>
</g>
</g>
</g>
<defs>
<clipPath id="clip0">
<rect width="180.857" height="30.8571" fill="white" transform="translate(0 23.1429)"/>
</clipPath>
</defs>
</svg>
